<svg width="48" height="41" viewBox="0 0 48 41" fill="none" xmlns="http://www.w3.org/2000/svg">
<g clip-path="url(#clip0_160_14402)" filter="url(#filter0_d_160_14402)">
<path d="M13.3393 21.3196L14.3182 13.9271L5.82727 8.00258L13.5853 10.6439L15.4175 7.81843L22.1077 3.646L36.8543 11.812L37.6186 24.2714L31.0488 33.4476L25.8558 34.2473L28.5413 29.3067V24.5502L26.5887 20.8356L24.6047 19.5149L21.5528 22.6771V26.0235L19.1709 28.2649L16.1452 28.6332L14.8051 29.3961L12.6064 28.6911L11.6903 25.3763L13.3393 23.0454V21.3196Z" fill="white"/>
<path d="M26.8977 7.93921C25.2801 7.60247 23.5107 7.69192 23.5107 7.69192C23.5107 7.69192 22.9296 10.3911 19.3281 11.1014C19.3542 11.1014 24.0866 12.7272 26.8977 7.93921Z" fill="#94A6C3"/>
<path d="M28.3634 32.4322C30.316 30.8959 31.7818 28.7807 32.4571 26.3867C32.4885 26.2973 32.7607 26.1394 32.9439 26.0184C33.2475 25.8342 33.5564 25.6816 33.614 25.4344C33.7344 24.7293 33.7972 23.9927 33.7972 23.2561C33.7972 22.9825 33.5197 22.7036 33.2475 22.43C33.0329 22.2458 32.8183 22.0301 32.8183 21.8775C32.5146 19.0836 31.2321 16.4739 29.1853 14.5745L28.9706 14.7902C30.9547 16.6633 32.2372 19.2099 32.5146 21.9091C32.5461 22.1564 32.7869 22.3984 33.0329 22.6457C33.2475 22.8299 33.4936 23.1087 33.4936 23.2298C33.4936 23.9348 33.4307 24.6399 33.3103 25.3449C33.2789 25.4659 33.0067 25.5922 32.7921 25.7132C32.4885 25.8658 32.211 26.0184 32.1534 26.2657C31.4206 28.8754 29.7402 31.1484 27.5101 32.6217C27.908 31.764 29.1591 28.9701 29.8292 27.5548L29.7088 23.014L25.8297 19.2415L23.6311 19.5466L21.2178 23.477C21.2178 23.477 22.3485 24.9187 20.7571 26.6077C19.2024 28.2651 17.9774 28.6334 17.9774 28.6334L16.8467 28.0178C17.1817 27.5863 17.857 26.9444 18.3753 26.513C19.26 25.7764 20.1447 25.7132 20.1447 24.9187C20.1813 23.2561 18.4067 23.7138 18.4067 23.7138L17.7628 24.3294L17.4906 26.6024L16.1505 28.2914L15.9987 28.2598L13.8 27.7705C13.8 27.7705 15.1454 27.0654 15.36 26.2657C15.5746 25.4975 14.9307 22.9509 14.8993 22.7983C14.9307 22.8299 15.5432 23.3508 15.8154 24.2084C16.3023 22.8562 16.9462 21.5671 17.1294 21.4461C17.3126 21.3251 19.7835 20.0044 19.7835 20.0044L18.9616 22.1827L19.5741 21.846L21.0398 18.226C21.0398 18.226 22.4742 17.5209 23.5421 17.5209C25.4633 17.4894 28.3058 15.1269 27.0233 10.8914C27.3897 11.0439 33.7396 14.2377 34.8389 20.499C35.6608 25.3133 32.9439 29.8225 28.3634 32.4322Z" fill="#94A6C3"/>
<path d="M21.0975 8.61343C21.799 7.7821 21.5268 6.55615 21.5268 6.55615L19.48 9.59734C19.4486 9.59734 20.2076 9.62891 21.0975 8.61343Z" fill="#1B314F"/>
<path d="M14.2242 25.2184L14.4703 23.9924C14.4703 23.9924 13.4599 25.7708 13.3709 26.0181C13.2767 26.297 13.4338 26.7863 13.8264 26.7548C14.2242 26.7232 14.7111 26.1392 14.7111 25.713C14.7111 25.1605 14.2242 25.2184 14.2242 25.2184Z" fill="#1B314F"/>
<path d="M32.3629 5.69799C32.3629 5.69799 33.8915 5.76113 35.4777 5.94528C31.9022 3.11982 28.5153 2.29375 25.767 2.29375C21.9822 2.29375 19.4171 3.8617 19.2601 3.95115L20.4536 2.04646C20.4536 2.04646 15.6899 1.58344 14.0095 6.65033C13.5802 5.57697 13.1876 4.00902 13.1876 4.00902C13.1876 4.00902 10.7115 6.19258 11.8737 9.81254C9.03114 8.77075 4.97412 7.32382 4.81708 7.29751C4.60245 7.26594 4.53963 7.36065 4.53963 7.36065C4.53963 7.36065 4.47681 7.45009 4.66003 7.60794C5.0003 7.87628 11.413 12.638 12.8212 13.5588C12.5176 14.6637 12.5176 15.1846 12.8212 15.7055C13.2504 16.4106 13.2766 16.7789 13.219 17.2998C13.1562 17.8207 12.6066 22.3351 12.4861 22.8876C12.3657 23.44 11.0832 25.4026 11.1408 25.9866C11.2036 26.5707 11.9941 29.0541 12.7008 29.333C13.219 29.5171 14.5016 29.917 15.3549 29.917C15.6585 29.917 15.9359 29.8539 16.0563 29.7329C16.5746 29.2751 16.7264 29.1804 17.0928 29.1804C17.1242 29.1804 17.1556 29.1804 17.1818 29.1804C17.3336 29.1804 17.5169 29.212 17.7315 29.212C18.2183 29.212 18.8622 29.1173 19.3176 28.6911C19.9877 28.0176 21.1498 27.0968 21.5163 26.6654C21.977 26.0813 22.2178 25.2868 22.0974 24.4871C22.0031 23.7505 22.401 23.1033 22.8616 22.4614C23.4427 21.6932 24.5106 20.3146 24.5106 20.3146C26.6203 21.9036 27.9342 24.3292 27.9342 27.0284C27.9342 31.8165 23.783 35.6837 18.6528 35.6837C17.8571 35.6837 17.0981 35.5943 16.3338 35.4101C18.6842 36.2362 20.6682 36.515 22.291 36.515C25.7408 36.515 27.573 35.2575 27.573 35.2575C27.573 35.2575 26.9344 36.0889 25.8926 37.0359C25.924 37.0359 25.924 37.0359 25.924 37.0359C31.6353 36.2362 34.415 31.5113 34.415 31.5113C34.415 31.5113 34.2004 33.0477 33.9281 34.0895C41.5239 28.3491 40.2414 21.167 40.21 20.925C40.2728 21.0144 41.0371 21.9352 41.4297 22.4298C42.6547 9.78097 32.3629 5.69799 32.3629 5.69799ZM20.6682 25.8972C20.5478 26.0498 20.0296 26.5128 19.6631 26.8495C19.2967 27.1863 18.8989 27.523 18.5952 27.8334C18.4748 27.9545 18.2288 28.0176 17.8624 28.0176C17.7419 28.0176 17.6163 28.0176 17.5273 28.0176C17.4645 28.0176 17.4069 28.0176 17.3441 28.0176C17.2813 28.0176 17.2499 28.0176 17.2237 28.0176C17.1295 28.0176 17.0405 28.0176 16.9462 28.0176C17.4069 27.402 18.747 25.9919 19.2077 25.6867C19.7574 25.3184 20.0348 24.9501 19.6946 24.3082C19.3595 23.661 18.4748 23.8189 18.4748 23.8189C18.4748 23.8189 18.9931 23.6031 19.4537 23.6031C18.8727 23.4505 18.1398 23.6031 17.8048 23.9399C17.4383 24.2766 17.5011 25.4763 17.3493 26.2392C17.1975 27.0389 16.6793 27.4388 15.8836 28.1754C15.4543 28.5753 15.1507 28.6963 14.9047 28.6963C14.3864 28.6069 13.7739 28.449 13.3447 28.2965C13.041 27.8966 12.5804 26.5759 12.46 26.0235C12.549 25.7183 12.9154 25.0711 13.0986 24.7028C13.4651 23.9977 13.6797 23.5979 13.7425 23.2296C13.8629 22.7087 14.2608 19.4833 14.4126 18.1364C14.8104 18.6572 15.3601 19.5201 15.2345 20.0726C16.1191 18.8151 15.4805 17.5839 15.1716 17.0946C14.8994 16.6052 14.533 15.6213 14.8366 14.5795C15.1402 13.5377 16.2395 10.6491 16.2395 10.6491C16.2395 10.6491 16.606 11.2963 17.1242 11.17C17.6425 11.049 21.8251 4.7246 21.8251 4.7246C21.8251 4.7246 22.9559 7.20806 21.7623 9.0233C20.5426 10.8333 19.3491 11.17 19.3491 11.17C19.3491 11.17 21.0294 11.4752 22.5842 10.3387C23.2228 11.8435 23.8353 13.4062 23.8667 13.6219C23.7725 13.8376 22.5528 16.7841 22.4324 16.9683C22.3696 17.0314 21.9455 17.1524 21.6367 17.2156C21.1184 17.3682 20.8148 17.4629 20.6892 17.5523C20.4745 17.7365 19.4956 20.4357 19.0402 21.7563C18.4905 21.9089 17.9409 22.2193 17.543 22.8297C17.7577 22.6771 18.4277 22.5824 18.9198 22.5245C19.3491 22.4929 20.6578 23.198 20.998 24.5186C20.998 24.5502 20.998 24.5502 20.998 24.5818C21.0661 25.0658 20.9143 25.5289 20.6682 25.8972ZM17.7995 26.2655C18.077 25.8656 18.0456 25.1921 18.077 24.9764C18.1084 24.7607 18.166 24.3608 18.412 24.3029C18.6581 24.2398 19.2391 24.3345 19.2391 24.7607C19.2391 25.1606 18.8099 25.25 18.5062 25.5289C18.2864 25.7393 17.8571 26.2023 17.7995 26.2655ZM29.9811 20.3988C30.2847 18.8361 30.3161 17.4839 30.2271 16.379C31.4154 17.9732 32.1483 19.9095 32.3629 21.9036C32.3943 22.1509 32.6351 22.393 32.8812 22.6403C33.0958 22.8244 33.3418 23.0717 33.3418 23.2243C33.3418 23.9293 33.279 24.6344 33.1586 25.3447C33.1272 25.4342 32.855 25.592 32.6404 25.713C32.3367 25.8656 32.0593 26.0182 32.0017 26.2655C31.3316 28.6279 29.8921 30.7168 27.9709 32.19C30.8082 29.212 32.1797 24.2977 29.9811 20.3988ZM28.0599 32.4636C30.0439 30.9272 31.5725 28.7805 32.2425 26.3549C32.2739 26.2655 32.5461 26.1076 32.7294 25.9866C33.033 25.834 33.3418 25.6499 33.3994 25.4026C33.5198 24.6975 33.5826 23.9609 33.5826 23.2243C33.5826 22.9507 33.3052 22.6718 33.033 22.3982C32.8812 22.2141 32.6351 21.9984 32.6351 21.8458C32.3891 19.6043 31.5044 17.4892 30.1329 15.7371C29.5204 12.054 27.0809 10.9175 27.0181 10.8859C27.0809 10.9806 28.6671 13.2799 27.5678 15.9791C26.4371 18.7099 23.5369 18.2837 23.2909 18.31C23.0449 18.31 22.1026 19.5359 20.909 21.8089C20.7572 21.7458 20.1133 21.5932 19.3805 21.7195C19.9301 20.1831 20.7572 18.0048 20.909 17.8207C20.9719 17.7575 21.4273 17.6365 21.7361 17.5471C22.3172 17.3945 22.5894 17.2998 22.6837 17.1787C22.7465 17.084 23.0501 16.379 23.3537 15.6424C23.6312 15.6424 24.3326 15.5792 24.3902 15.5477C24.453 15.4845 25.0341 13.985 25.0341 13.8008C25.0341 13.6482 23.8406 10.6702 23.3851 9.53368C23.5998 9.28638 23.8144 8.98121 24.0238 8.64447C30.2847 9.32321 35.174 14.6637 35.174 21.1355C35.174 26.1076 32.2739 30.4379 28.0599 32.4636Z" fill="#1B314F"/>
<path d="M19.9354 15.89C20.5164 15.2165 20.2128 13.959 19.1397 13.7433C19.4171 13.1013 19.8097 11.8123 19.8097 11.8123C19.8097 11.8123 16.695 16.7213 16.4228 16.816C16.1453 16.9107 15.8731 15.8321 15.8731 15.8321C15.2921 18.0735 16.852 18.3787 17.0353 17.6737C17.8885 17.4527 19.3543 16.5319 19.9354 15.89Z" fill="#1B314F"/>
<path d="M17.2761 17.0845L18.8623 14.3538C18.8623 14.3538 19.7784 14.8168 19.3177 15.5534C18.7419 16.411 17.2761 17.0845 17.2761 17.0845Z" fill="#FFD923"/>
<path d="M36.9121 29.7327C36.4514 30.3484 35.9332 30.9903 35.3259 31.6059C39.2625 23.9924 35.5091 17.026 35.3573 16.7524C35.6348 17.0313 35.907 17.3365 36.153 17.6101C39.1735 20.9827 39.54 26.0496 36.9121 29.7327Z" fill="#5A9DED"/>
<path d="M40.5763 19.941C39.1996 16.2263 37.247 13.0641 32.9439 10.2123C28.7927 7.44999 24.3326 7.66571 24.0865 7.69728C24.0551 7.69728 24.0237 7.69728 24.0237 7.69728C24.1755 7.63414 24.3273 7.60257 24.4791 7.57626C25.4267 7.27109 26.6464 7.0238 27.8713 6.87121C31.1117 6.40293 34.3783 7.50786 36.6083 9.87557C36.6397 9.90714 36.6397 9.90714 36.6711 9.93871C39.2048 12.6379 40.5188 16.0106 40.5763 19.941Z" fill="#5A9DED"/>
<path d="M31.965 4.74579C27.4159 3.88816 24.4844 4.31434 22.3747 5.1141C22.3119 4.86681 22.0973 4.37748 21.914 3.9776C21.2806 4.74579 20.6053 5.66657 20.1813 6.2506C19.0192 7.05036 18.5323 7.81855 18.5323 7.81855C19.2024 5.51398 21.1602 3.79871 23.5421 3.36726C24.2121 3.24624 24.945 3.18311 25.7407 3.18311C27.8451 3.21467 29.9496 3.73557 31.965 4.74579Z" fill="#5A9DED"/>
<path d="M15.1403 10.6389C11.5701 10.5179 12.7584 6.34018 12.8212 6.09814C12.8212 6.12971 13.062 9.38137 15.1403 10.6389Z" fill="#5A9DED"/>
<path d="M18.6526 3.12036C15.9043 4.77776 16.454 8.73446 16.454 8.73446C13.8261 4.71988 18.438 3.21507 18.6526 3.12036Z" fill="#5A9DED"/>
<path d="M14.1352 11.7437C14.3184 11.8963 14.5016 12.1751 14.287 12.575C14.1666 12.7907 13.9834 12.7592 13.7059 12.6381C13.3395 12.454 11.1408 11.1649 9.15683 9.84424C11.4183 10.644 13.7059 11.5016 14.0724 11.6858C14.0724 11.6858 14.1038 11.7174 14.1352 11.7437Z" fill="white"/>
</g>
<defs>
<filter id="filter0_d_160_14402" x="-7.46564" y="-5.96387" width="61" height="59" filterUnits="userSpaceOnUse" color-interpolation-filters="sRGB">
<feFlood flood-opacity="0" result="BackgroundImageFix"/>
<feColorMatrix in="SourceAlpha" type="matrix" values="0 0 0 0 0 0 0 0 0 0 0 0 0 0 0 0 0 0 127 0" result="hardAlpha"/>
<feOffset dy="4"/>
<feGaussianBlur stdDeviation="6"/>
<feComposite in2="hardAlpha" operator="out"/>
<feColorMatrix type="matrix" values="0 0 0 0 0 0 0 0 0 0 0 0 0 0 0 0 0 0 0.1 0"/>
<feBlend mode="normal" in2="BackgroundImageFix" result="effect1_dropShadow_160_14402"/>
<feBlend mode="normal" in="SourceGraphic" in2="effect1_dropShadow_160_14402" result="shape"/>
</filter>
<clipPath id="clip0_160_14402">
<rect width="37" height="35" fill="white" transform="translate(4.53436 2.03613)"/>
</clipPath>
</defs>
</svg>
