<svg width="40" height="41" viewBox="0 0 40 41" fill="none" xmlns="http://www.w3.org/2000/svg">
<g clip-path="url(#clip0)">
<path d="M28.0003 36.793H40.0002L20.8003 20.793C20.5367 26.6044 23.0951 32.2898 28.0003 36.793Z" fill="url(#paint0_radial)"/>
<path d="M4 28.7931V40.7931L20 21.5931C19.7272 21.5808 19.4558 21.5747 19.1836 21.5747C13.6586 21.575 8.29172 24.1183 4 28.7931Z" fill="url(#paint1_radial)"/>
<path d="M0 4.79297L19.2 20.793C19.4636 14.9817 16.9052 9.2961 12 4.79297H0Z" fill="url(#paint2_radial)"/>
<path d="M36 0.792969L20 19.9928C25.8114 20.2566 31.4969 17.698 36 12.7928V0.792969Z" fill="url(#paint3_radial)"/>
<path d="M20.0003 20.793C18.2067 25.4422 18.4776 30.1814 20.8003 34.7931C23.2003 35.993 25.2003 36.793 28.0003 36.793C23.0951 32.2898 20.5367 26.6044 20.8003 20.793H20.0003Z" fill="url(#paint4_radial)"/>
<path d="M6 21.5927C4.80016 23.9929 4 25.9927 4 28.7927C8.50297 23.8876 14.1886 21.3293 20 21.5927V20.7927C17.9775 20.0126 15.9384 19.623 13.9 19.623C11.2522 19.6232 8.60563 20.2804 6 21.5927Z" fill="url(#paint5_radial)"/>
<path d="M19.2 20.793H20C21.7934 16.1438 21.5227 11.4044 19.2 6.79297C16.8 5.59297 14.8002 4.79297 12 4.79297C16.9052 9.2961 19.4636 14.9817 19.2 20.793Z" fill="url(#paint6_radial)"/>
<path d="M20 19.993V20.7931C24.6492 22.5866 29.3884 22.3156 34 19.993C35.2 17.5933 36 15.5933 36 12.793C31.4969 17.6981 25.8114 20.2567 20 19.993Z" fill="url(#paint7_radial)"/>
<path d="M11.1997 26.7931L20.7997 34.7933C18.477 30.1816 18.2061 25.4423 19.9997 20.7931C19.7222 20.7006 19.3969 20.6562 19.0375 20.6562C16.2877 20.6564 11.5535 23.2555 11.1997 26.7931Z" fill="url(#paint8_radial)"/>
<path d="M6 21.5927C10.6116 19.27 15.3508 18.9992 20 20.7927C20.8 18.3928 18 12.3927 14 11.9927L6 21.5927Z" fill="url(#paint9_radial)"/>
<path d="M20.0002 20.793C22.4002 21.593 28.4 18.793 28.8002 14.793L19.2002 6.79297C21.5229 11.4044 21.7936 16.1437 20.0002 20.793Z" fill="url(#paint10_radial)"/>
<path d="M19.9996 20.7928C19.1996 23.193 21.9996 29.1928 25.9996 29.5928L33.9996 19.9927C29.3881 22.3153 24.6488 22.5863 19.9996 20.7928Z" fill="url(#paint11_radial)"/>
<path d="M20.0003 19.793C20.5527 19.793 21.0003 20.2406 21.0003 20.7928C21.0003 21.3453 20.5527 21.793 20.0003 21.793C19.4481 21.793 19.0005 21.3453 19.0005 20.7928C19.0005 20.2406 19.4481 19.793 20.0003 19.793Z" fill="black"/>
</g>
<defs>
<radialGradient id="paint0_radial" cx="0" cy="0" r="1" gradientUnits="userSpaceOnUse" gradientTransform="translate(17.3015 30.7903) scale(19.2185 16)">
<stop stop-color="#00C812"/>
<stop offset="1" stop-color="#006E00"/>
</radialGradient>
<radialGradient id="paint1_radial" cx="0" cy="0" r="1" gradientUnits="userSpaceOnUse" gradientTransform="translate(-17.3012 4.12328) rotate(90) scale(16.0001 19.2185)">
<stop stop-color="#56AFFD"/>
<stop offset="1" stop-color="#04A3FF"/>
</radialGradient>
<radialGradient id="paint2_radial" cx="0" cy="0" r="1" gradientUnits="userSpaceOnUse" gradientTransform="translate(-15.7137 -2.53716) rotate(180) scale(19.2185 16)">
<stop stop-color="#DF1F00"/>
<stop offset="1" stop-color="#560D00"/>
</radialGradient>
<radialGradient id="paint3_radial" cx="0" cy="0" r="1" gradientUnits="userSpaceOnUse" gradientTransform="translate(16.0262 -28.892) rotate(-90) scale(16.0001 19.2184)">
<stop stop-color="#00FFFD"/>
<stop offset="1" stop-color="#00DAFF"/>
</radialGradient>
<radialGradient id="paint4_radial" cx="0" cy="0" r="1" gradientUnits="userSpaceOnUse" gradientTransform="translate(18.8306 36.7931) scale(9.16968 16)">
<stop stop-color="#008200"/>
<stop offset="1" stop-color="#007500"/>
</radialGradient>
<radialGradient id="paint5_radial" cx="0" cy="0" r="1" gradientUnits="userSpaceOnUse" gradientTransform="translate(-18.8303 4.79274) rotate(90) scale(16 9.16968)">
<stop stop-color="#3166D4"/>
<stop offset="1" stop-color="#1A509E"/>
</radialGradient>
<radialGradient id="paint6_radial" cx="0" cy="0" r="1" gradientUnits="userSpaceOnUse" gradientTransform="translate(-20.8572 -3.20702) rotate(180) scale(9.16968 16)">
<stop stop-color="#8E1400"/>
<stop offset="1" stop-color="#4B0B00"/>
</radialGradient>
<radialGradient id="paint7_radial" cx="0" cy="0" r="1" gradientUnits="userSpaceOnUse" gradientTransform="translate(21.1698 -34.8944) rotate(-90) scale(15.9999 9.16974)">
<stop stop-color="#0090C4"/>
<stop offset="1" stop-color="#005D8C"/>
</radialGradient>
<radialGradient id="paint8_radial" cx="0" cy="0" r="1" gradientUnits="userSpaceOnUse" gradientTransform="translate(11.1997 34.7927) scale(9.59999 14.1368)">
<stop stop-color="#00CD1C"/>
<stop offset="1" stop-color="#00E950"/>
</radialGradient>
<radialGradient id="paint9_radial" cx="0" cy="0" r="1" gradientUnits="userSpaceOnUse" gradientTransform="translate(-11.2 6.79268) rotate(90) scale(14.1368 9.6)">
<stop stop-color="#B1C8FD"/>
<stop offset="1" stop-color="#7EC3FD"/>
</radialGradient>
<radialGradient id="paint10_radial" cx="0" cy="0" r="1" gradientUnits="userSpaceOnUse" gradientTransform="translate(-28.4873 -5.20703) rotate(180) scale(9.60001 14.1368)">
<stop stop-color="#E12A00"/>
<stop offset="1" stop-color="#B62F00"/>
</radialGradient>
<radialGradient id="paint11_radial" cx="0" cy="0" r="1" gradientUnits="userSpaceOnUse" gradientTransform="translate(28.8001 -32.8947) rotate(-90) scale(14.1366 9.60016)">
<stop stop-color="#00B6DD"/>
<stop offset="1" stop-color="#00FFFF"/>
</radialGradient>
<clipPath id="clip0">
<rect width="40" height="40" fill="white" transform="translate(0 0.792969)"/>
</clipPath>
</defs>
</svg>
