<svg width="66" height="21" viewBox="0 0 66 21" fill="none" xmlns="http://www.w3.org/2000/svg">
<g clip-path="url(#clip0)">
<path d="M3.08634 20.1939C2.96981 20.1389 2.7479 20.0144 2.59305 19.9174C2.15303 19.6416 2.02874 19.5887 1.74675 19.5571C1.43582 19.5222 1.32376 19.4499 1.05925 19.1133C0.962402 18.99 0.781399 18.8082 0.65704 18.7093C0.160446 18.3141 0.0538256 18.096 0.00417273 17.3734C-0.0137593 17.1121 -0.0466454 16.7199 -0.0689147 16.5018L-0.109375 16.1052L0.00643851 15.7979C0.280792 15.07 0.580651 14.583 0.993864 14.1943C1.3382 13.8704 1.64446 13.7043 1.83977 13.7356C1.96148 13.755 1.98737 13.7433 2.14274 13.599C2.38285 13.3763 2.47141 13.3403 2.98419 13.2574C3.23426 13.2169 3.56552 13.1459 3.72043 13.0995C3.87522 13.053 4.11274 13.004 4.24829 12.9905C4.38379 12.977 4.57379 12.9362 4.67057 12.8999C4.79104 12.8546 4.9389 12.8338 5.13965 12.8338C5.48897 12.8338 5.70111 12.7595 6.22696 12.4534L6.57084 12.2532L6.91097 12.2622C7.3012 12.2726 7.40931 12.2428 7.48046 12.1051C7.61278 11.8487 7.71273 10.9074 7.64741 10.5323C7.60184 10.2709 7.47586 9.95643 7.38717 9.88328C7.35577 9.85732 7.15127 9.8133 6.93285 9.7854C6.6493 9.74927 6.48533 9.70888 6.35974 9.64427C6.1474 9.535 5.98893 9.53189 5.63469 9.63003C5.29463 9.72429 5.22776 9.7204 5.04358 9.59559C4.91333 9.50735 4.85436 9.49065 4.67264 9.49065C4.55385 9.49065 4.3654 9.46689 4.25393 9.43783C3.97828 9.36603 3.79184 9.37154 3.53289 9.45893C3.27071 9.54749 3.1046 9.69761 3.1046 9.84606C3.1046 9.90561 3.17419 10.0696 3.26799 10.231L3.43145 10.5123L3.41183 10.8548C3.38814 11.2675 3.25834 11.7078 3.10252 11.9038C2.85258 12.2183 2.61674 12.2929 2.17673 12.1964C1.95028 12.1468 1.86263 12.1427 1.69535 12.1738C1.52082 12.2062 1.46592 12.2024 1.32117 12.1478C1.0832 12.0578 0.775961 11.8427 0.639367 11.6701C0.431369 11.4075 0.288948 10.8205 0.289984 10.2296C0.291408 9.37529 0.578385 8.83021 1.20814 8.48594C1.38681 8.38819 1.56782 8.24124 1.81718 7.99142C2.01236 7.79591 2.24088 7.59277 2.3251 7.54007C2.40926 7.48738 2.57369 7.3739 2.69054 7.28793L2.90288 7.13159L3.45242 7.1402C3.89509 7.14719 4.04302 7.13664 4.21308 7.08627C4.32921 7.05183 4.63995 7.00315 4.90356 6.97797C5.35535 6.93492 5.39504 6.92488 5.59436 6.80382C5.82871 6.66147 5.90587 6.65163 6.19628 6.72679C6.30555 6.75501 6.59298 6.80253 6.83503 6.83231C7.37429 6.89873 7.45107 6.92009 7.70606 7.07455C7.81721 7.14188 8.05855 7.25607 8.2424 7.32832C8.56466 7.45488 8.59017 7.4732 8.94784 7.83579C9.41238 8.30675 9.64311 8.61159 9.84075 9.01555C10.0632 9.47033 10.1398 9.75607 10.1947 10.3352C10.2213 10.6159 10.2697 10.9214 10.3023 11.0141C10.3509 11.1526 10.3546 11.2104 10.3225 11.3377C10.2727 11.5357 10.2732 11.7167 10.3247 12.0172C10.3586 12.2144 10.3555 12.3459 10.308 12.7481C10.276 13.0178 10.2324 13.5473 10.2109 13.9247C10.1894 14.3021 10.1552 14.6742 10.135 14.7517C10.0684 15.0062 10.0632 15.3179 10.1222 15.521C10.2019 15.7952 10.1917 15.9479 10.0734 16.2473C10.0115 16.4043 9.96873 16.5786 9.96802 16.6776C9.96614 16.9309 10.2478 17.6201 10.3728 17.6681C10.4042 17.6802 10.4919 17.6901 10.5675 17.6901C10.697 17.6901 10.7153 17.676 10.8812 17.4479C11.079 17.176 11.215 17.0918 11.4569 17.0918C11.7432 17.0918 12.9656 17.2316 13.3734 17.3109C13.8174 17.3973 13.8531 17.39 13.9498 17.1942C14.0425 17.0068 14.077 16.8041 14.2089 15.67C14.3643 14.3339 14.3664 14.2722 14.2611 14.1297C14.1822 14.0231 14.1801 14.0027 14.2015 13.5584C14.218 13.2345 14.2383 12.9108 14.2623 12.5874C14.3041 12.0362 14.2851 11.5063 14.2039 10.9534C14.129 10.4443 14.1343 10.1204 14.2232 9.77582C14.3417 9.31645 14.3364 9.27003 14.1264 8.92893C13.9035 8.56673 13.8942 8.45131 14.0508 7.99284C14.166 7.65556 14.167 7.59834 14.0653 7.23147L13.9999 6.99577L14.0821 6.82033C14.1881 6.59421 14.171 6.48778 13.9491 5.98892C13.8544 5.77613 13.749 5.51492 13.7148 5.40849C13.6094 5.07976 13.5268 5.03354 13.2747 5.16217C13.085 5.25895 12.9433 5.25054 12.6821 5.12695C12.4259 5.0057 12.3714 4.99955 12.2583 5.07872C12.1414 5.16068 11.9307 5.20056 11.8051 5.16457C11.746 5.1476 11.6193 5.07186 11.5236 4.99619C11.4278 4.92044 11.1966 4.77382 11.0097 4.6703C10.6027 4.44482 10.3552 4.20711 10.2077 3.90019C9.99475 3.45681 10.0906 2.92597 10.4898 2.3381C10.7652 1.93227 11.0316 1.6616 11.2753 1.53983C11.5524 1.40136 11.7159 1.40136 12.1074 1.5397C12.6214 1.72136 12.8733 1.7611 13.8906 1.82092C14.2389 1.84144 14.6349 1.88106 14.7704 1.90896C15.0939 1.97564 15.1445 1.9737 15.4258 1.88307L15.6639 1.80642L15.9209 1.9335C16.2963 2.1191 16.3678 2.20785 16.4288 2.56358C16.5293 3.14983 16.8343 4.16173 17.0092 4.48956C17.1563 4.76514 17.1498 5.01645 16.984 5.46837C16.7907 5.99527 16.7929 5.98387 16.7587 6.64768C16.7283 7.23795 16.7204 7.28559 16.6106 7.54506L16.4947 7.81909V10.6696L16.6491 11.0535L16.8035 11.4373L16.6748 11.8276C16.604 12.0423 16.5463 12.2789 16.5467 12.3532C16.5471 12.4276 16.5972 12.6484 16.6579 12.8439C16.7682 13.199 16.7683 13.1995 16.7241 13.5456C16.6661 14.0009 16.6702 14.1094 16.7561 14.3821C16.8468 14.6705 16.8467 14.784 16.7551 15.2141C16.6992 15.4759 16.68 15.6992 16.6767 16.1241C16.6717 16.7461 16.7127 17.0109 16.8544 17.2741C16.9549 17.4608 16.9678 17.4672 17.5228 17.6064C17.8817 17.6963 17.9329 17.7013 18.0859 17.6611C18.1785 17.6367 18.3809 17.5337 18.5358 17.4323C19.0634 17.0867 19.0185 17.0946 20.1193 17.1546C20.719 17.1874 21.4989 17.2109 21.6375 17.2005C21.7469 17.1922 21.8997 16.5651 21.9998 15.7135C22.0399 15.3716 22.1143 14.899 22.1648 14.6633C22.2632 14.2048 22.2613 14.1855 22.1015 13.9867C22.0246 13.8909 22.0243 13.8863 22.0662 13.3005C22.1265 12.4581 22.1196 11.3352 22.0502 10.7017L21.9921 10.1709L22.0852 9.75154C22.2127 9.17707 22.2095 9.1346 22.014 8.82108C21.8073 8.48995 21.7851 8.32915 21.8988 7.98999C21.9929 7.70904 22.0056 7.39325 21.9354 7.07294C21.8903 6.86694 21.8918 6.84752 21.9624 6.72782C22.0703 6.54494 22.0559 6.39883 21.892 6.01378C21.7998 5.79585 21.7112 5.57647 21.626 5.35573C21.4776 4.96589 21.4237 4.88063 21.3257 4.88063C21.2836 4.88063 21.1894 4.92213 21.1162 4.97288L20.9831 5.06506L20.7 5.0081C20.5444 4.9767 20.331 4.951 20.2259 4.951C20.0402 4.951 20.0318 4.94666 19.9304 4.79945C19.784 4.5866 19.7628 4.57417 19.4792 4.53494C19.2921 4.50904 19.1853 4.47169 19.0689 4.39161C18.858 4.24654 18.67 4.02488 18.5582 3.78969C18.4319 3.52433 18.428 3.05273 18.5486 2.6636C18.6636 2.29246 18.9134 1.82467 19.1012 1.62865C19.2607 1.46215 19.5625 1.29215 19.6995 1.2915C19.7397 1.29131 19.9395 1.3541 20.1437 1.43108C20.348 1.50811 20.6082 1.58036 20.7218 1.59182C20.8356 1.60328 21.0238 1.64697 21.1398 1.68892C21.3273 1.75657 21.4102 1.76402 21.8789 1.75495C22.3746 1.74537 22.4215 1.75029 22.6486 1.836L22.8905 1.92728L23.2038 1.8351L23.5172 1.74291L23.7361 1.84927C24.0081 1.9814 24.0657 2.02769 24.1131 2.15224C24.1337 2.20649 24.2445 2.63084 24.3593 3.0952C24.5347 3.80516 24.5968 3.99827 24.7498 4.3092C24.9172 4.64939 24.9301 4.69335 24.9111 4.85894C24.8998 4.95799 24.825 5.21318 24.745 5.42604C24.6064 5.79458 24.5972 5.84365 24.5536 6.44661C24.5132 7.00684 24.495 7.11463 24.3965 7.37882C24.2623 7.73856 24.2217 8.11228 24.2208 8.99794C24.2199 9.88593 24.2664 10.3562 24.3947 10.7575C24.5638 11.2864 24.5671 11.4467 24.4171 11.8634L24.2914 12.2126L24.4183 12.584L24.5452 12.9555L24.5209 13.4868C24.4973 14.0025 24.4993 14.026 24.5904 14.2896L24.6842 14.5612L24.5752 15.1315C24.421 15.9388 24.3956 16.1229 24.3952 16.4355C24.3951 16.6909 24.406 16.7327 24.5405 16.9913C24.7114 17.3198 24.7416 17.3396 25.2617 17.4649C25.6953 17.5694 25.8194 17.5655 26.2946 17.4324C26.6822 17.3238 27.2915 17.2532 27.5446 17.2875C27.8745 17.3321 28.1082 17.4968 28.2798 17.8054C28.4428 18.0986 28.5061 18.4089 28.4484 18.632C28.3497 19.014 28.0168 19.5439 27.7962 19.6703C27.7491 19.6972 27.5677 19.7145 27.3158 19.7159C26.9959 19.7177 26.8372 19.7378 26.5578 19.8115L26.2043 19.9047L25.9243 19.8363C25.5325 19.7406 25.1944 19.7164 24.896 19.7627C24.7044 19.7925 24.4935 19.7919 24.0515 19.7603C23.1089 19.6931 22.8069 19.7004 22.4465 19.7989C22.1068 19.8918 22.0997 19.8912 21.6677 19.7313C21.4699 19.658 21.4388 19.6558 21.1741 19.6966L20.8916 19.7401L20.6736 19.6301C20.5537 19.5696 20.4138 19.52 20.3626 19.52C20.3106 19.52 20.1901 19.5782 20.0894 19.652L19.9091 19.784L19.5661 19.7741C19.2913 19.7661 19.1487 19.7825 18.849 19.856C18.4925 19.9436 18.4608 19.9458 18.1711 19.903C17.9889 19.876 17.4936 19.8568 16.9346 19.855C16.4217 19.8535 15.8357 19.8395 15.6325 19.824C15.2768 19.7968 15.2516 19.7998 14.9567 19.9015L14.6503 20.0072L14.3936 19.8957C14.1489 19.7893 14.1183 19.7845 13.7388 19.7932C13.3456 19.8023 13.3376 19.8008 13.0877 19.6775C12.8785 19.5741 12.8105 19.5563 12.6941 19.5742C12.4806 19.6069 12.0599 19.7269 11.8928 19.8029C11.7777 19.855 11.6626 19.8706 11.3857 19.8712C11.1888 19.8716 10.9064 19.8888 10.7583 19.9094C10.1623 19.9923 9.69574 19.8219 9.2855 19.3715C9.00727 19.0658 8.78341 18.9041 8.58926 18.8685C8.44412 18.8419 8.36592 18.874 8.14931 19.049C8.06904 19.1139 7.79708 19.2678 7.54493 19.3911C7.29285 19.5145 7.02594 19.663 6.95188 19.721C6.87782 19.7791 6.78234 19.8449 6.73974 19.8671C6.64464 19.917 5.81608 19.9762 5.19837 19.9773C4.54252 19.9784 4.23088 20.0228 3.85373 20.1688C3.67538 20.2378 3.47748 20.2942 3.41384 20.2942C3.35021 20.2942 3.2028 20.2491 3.08627 20.194L3.08634 20.1939ZM4.25826 18.0644C4.53449 17.926 4.64655 17.9044 5.26207 17.8709C5.77387 17.8431 5.86043 17.83 5.90464 17.7732C5.9328 17.7372 6.05703 17.5652 6.18074 17.391C6.49271 16.9518 6.56418 16.8869 7.21588 16.451C7.69383 16.1313 7.79961 16.0448 7.84447 15.9376C7.90882 15.7836 7.95193 14.749 7.90189 14.5608C7.88428 14.4945 7.82809 14.409 7.77695 14.3709C7.68438 14.3018 7.68302 14.3018 7.37383 14.3765C7.20319 14.4176 6.87426 14.5075 6.64296 14.5763C6.2827 14.6833 6.14132 14.7061 5.65761 14.7352C4.67135 14.7943 4.36637 14.8612 3.80614 15.1409C3.64042 15.2236 3.33163 15.3651 3.11994 15.4553C2.90825 15.5455 2.6985 15.6534 2.65384 15.695C2.5386 15.8025 2.37903 16.1559 2.32853 16.4159C2.19777 17.0884 2.51323 17.6494 3.12156 17.8261C3.27 17.8693 3.50506 17.9591 3.64391 18.0257C3.94306 18.1692 4.03732 18.1751 4.25826 18.0644Z" fill="#EE1E23"/>
<path d="M38.4918 19.9044C38.3004 19.848 37.9995 19.7845 37.8232 19.7633C37.5726 19.7331 37.3875 19.6792 36.9748 19.5158C36.2884 19.244 36.2936 19.2469 36.1677 19.0658C36.1084 18.9805 36.023 18.8659 35.978 18.8113L35.8963 18.7119L35.7493 18.7863C35.6685 18.8272 35.254 19.0943 34.8281 19.3798L34.0539 19.8989L33.0965 19.9409L32.139 19.9828L31.9268 19.8876C31.7453 19.8062 31.6903 19.7964 31.547 19.8204C31.4549 19.836 31.2448 19.8499 31.0803 19.8515C30.8202 19.854 30.7549 19.8415 30.5797 19.7554C29.8815 19.4125 28.8123 17.8286 28.3377 16.4338C28.0833 15.6866 28.0842 15.6961 28.0694 13.3969C28.0621 12.2646 28.0388 11.1086 28.0174 10.828C27.9794 10.3281 27.8889 9.78376 27.8105 9.58346C27.7714 9.48351 27.7692 9.4828 27.5509 9.50623C27.2744 9.53582 26.9003 9.47775 26.7267 9.37818C26.3219 9.14623 25.9604 8.76397 25.8583 8.46016C25.7924 8.26394 25.7843 7.80082 25.8385 7.32643C25.8816 6.94934 25.9526 6.82201 26.2508 6.58727C26.6624 6.26327 27.0795 6.20332 27.5964 6.3939C27.9096 6.50933 28.115 6.52972 28.1461 6.44841C28.1675 6.39274 28.3081 6.34076 28.5305 6.30651C29.2033 6.20293 30.3249 6.9059 30.6656 7.6448C30.7366 7.79868 30.7456 7.87073 30.7425 8.25902C30.7391 8.67152 30.7305 8.72409 30.603 9.10357C30.4777 9.47658 30.467 9.5386 30.4676 9.89536C30.4682 10.3326 30.5104 10.4762 30.7638 10.9027C30.9662 11.2435 30.9752 11.3366 30.8322 11.6094C30.7759 11.7165 30.7201 11.8238 30.6649 11.9315C30.5965 12.0663 30.4894 12.4881 30.4614 12.7328C30.4403 12.9177 30.4478 12.9471 30.5748 13.1727L30.7108 13.4144L30.7284 14.8254L30.7461 16.2364L30.8847 16.409C31.2509 16.8651 31.6396 17.2208 31.8846 17.324C31.9729 17.3612 32.1887 17.3845 32.5765 17.3984L33.1401 17.4188L33.3991 17.1414C33.837 16.6725 34.7798 15.4378 35.0873 14.9304C35.2476 14.666 35.5035 14.0225 35.5936 13.6571L35.6693 13.3507L35.5864 13.0482C35.4719 12.6296 35.4638 12.4776 35.5308 11.9874C35.5955 11.513 35.5937 11.4953 35.4217 10.9552C35.3432 10.7086 35.3072 10.538 35.3207 10.4764C35.3323 10.4238 35.4212 10.2916 35.5183 10.1827C35.7291 9.94625 35.7758 9.8169 35.7087 9.65616C35.6366 9.4839 35.5565 9.43075 35.2708 9.36576C35.1273 9.33313 34.8581 9.24321 34.6726 9.16591C34.3526 9.03256 34.3212 9.02628 34.0539 9.04259C33.4833 9.07729 33.0619 8.93364 32.7026 8.58186C32.3462 8.2328 32.3069 8.04326 32.5095 7.64998C32.7255 7.23049 33.503 6.38232 33.8197 6.2208C33.9991 6.1292 34.0964 6.1292 34.503 6.2208C34.9674 6.32541 35.2127 6.32567 35.4352 6.22183L35.6153 6.13768L35.8552 6.2263C36.1438 6.33292 36.2125 6.34438 36.9641 6.41145C37.6583 6.47334 37.8875 6.54338 38.1061 6.76038C38.2667 6.91976 38.2988 7.01252 38.3578 7.48478C38.3784 7.64934 38.4219 7.91851 38.4546 8.08307C38.5277 8.45142 38.5379 10.0031 38.473 10.8913C38.4299 11.4811 38.376 11.7426 38.2029 12.2004C38.1138 12.4359 38.1029 12.5098 38.102 12.8866C38.1011 13.2112 38.1185 13.374 38.1768 13.5904C38.2421 13.8327 38.2555 14.0019 38.273 14.8045C38.2854 15.3724 38.2777 15.9456 38.2534 16.2701C38.2155 16.7751 38.2171 16.8095 38.282 16.9207C38.3712 17.0735 38.5709 17.1476 39.0809 17.2171C39.7136 17.3034 40.1195 17.4713 40.2967 17.7202C40.4696 17.963 40.521 18.6876 40.3822 18.9227C40.3496 18.9779 40.1555 19.1335 39.9508 19.2684C39.7463 19.4032 39.4365 19.6259 39.2624 19.7631C39.0884 19.9004 38.9221 20.0115 38.8929 20.0098C38.8638 20.0083 38.6833 19.9608 38.4918 19.9044ZM41.4954 19.7041C41.0336 19.369 40.7777 18.8233 40.872 18.3743C40.9897 17.8129 41.344 17.5074 41.8802 17.5049C42.0175 17.5042 42.2461 17.5247 42.3882 17.5504C42.6197 17.5921 42.6654 17.5906 42.8284 17.5352C43.072 17.4523 43.3786 17.2414 43.4602 17.1006C43.5482 16.9486 43.6951 16.218 43.6954 15.9306C43.6955 15.8048 43.6784 15.5606 43.6572 15.388C43.6274 15.1456 43.6322 14.7525 43.6781 13.6636C43.7575 11.7763 43.7406 9.59402 43.6445 9.3363C43.5591 9.10713 43.3687 8.93021 42.9604 8.7002C42.4264 8.3995 42.4912 8.40895 42.1111 8.57623C41.74 8.73956 41.5822 8.75672 41.3373 8.66039C40.7782 8.44035 40.2473 7.89158 40.0601 7.3399C40.0189 7.21897 40.0138 7.14374 40.0389 7.03175C40.1561 6.51056 40.5567 6.11657 41.1529 5.93641C41.3966 5.86274 41.4564 5.86002 42.5429 5.87232C43.6365 5.88462 43.6837 5.88799 43.8264 5.9636C44.01 6.06071 44.0875 6.06142 44.3501 5.96826C44.7681 5.82008 45.3087 5.88275 45.6319 6.11677C45.804 6.24145 45.8727 6.38193 46.04 6.95025C46.1772 7.4168 46.2996 7.6505 46.4226 7.68138C46.6013 7.72624 46.7472 7.63581 47.3664 7.09636C47.6974 6.80796 47.9512 6.67544 48.1724 6.67544C48.324 6.67544 48.3585 6.65732 48.6047 6.44809C49.0445 6.07424 49.485 5.9012 49.9969 5.9012C50.1739 5.9012 50.3353 5.92521 50.4701 5.97163C50.5826 6.01034 50.7124 6.042 50.7585 6.042C50.8047 6.042 50.9045 6.01028 50.9804 5.97163C51.2076 5.85569 51.2864 5.8755 51.5065 6.10388C51.6139 6.21536 51.9334 6.64767 52.2165 7.06457L52.7313 7.82257L52.755 8.15519C52.7979 8.75646 52.8472 9.18559 52.9205 9.59622C53.0346 10.235 52.9557 10.5509 52.6028 10.8678C52.379 11.0688 51.6956 11.5346 51.3971 11.6895L51.1979 11.7928L50.8868 11.6495C50.7156 11.5707 50.5044 11.477 50.4173 11.4412C50.0459 11.2887 49.6 10.8241 49.3739 10.3538C49.2269 10.0479 49.2206 9.84267 49.3436 9.35967C49.4416 8.97514 49.4502 8.86534 49.392 8.73768C49.3363 8.61533 49.2731 8.60096 49.0618 8.6624C48.9287 8.70104 48.8018 8.78151 48.6008 8.95449C48.4483 9.08584 48.1626 9.32303 47.9662 9.4817C47.5591 9.8103 47.4407 9.94223 47.2819 10.2443C46.9985 10.7834 46.868 10.9688 46.5068 11.3457C46.2015 11.6644 46.1003 11.7976 45.9812 12.038L45.8337 12.3357L45.8911 12.7343C45.9613 13.2217 45.9626 13.5748 45.8975 14.5757C45.8698 15.0016 45.8361 15.6352 45.8227 15.9839L45.7983 16.6178L46.0227 16.8141C46.3205 17.0745 46.5504 17.2358 46.8278 17.3787L47.0566 17.4966H49.2507L49.4385 17.6584C49.9323 18.0844 49.9615 18.5857 49.5259 19.1558C49.3128 19.4345 49.0686 19.5356 48.3501 19.6425C47.8583 19.7155 47.4559 19.7104 47.1053 19.6267C46.8486 19.5654 46.8048 19.5633 46.7248 19.6079C46.4006 19.7885 46.4392 19.783 45.5082 19.7835L44.6284 19.784L44.4217 19.6873C44.1761 19.5723 44.0703 19.568 43.7663 19.6608C43.486 19.7464 43.139 19.7511 42.7806 19.6741C42.5213 19.6184 42.5073 19.619 42.2167 19.6977C41.7504 19.8239 41.6616 19.8248 41.4954 19.7041V19.7041ZM59.0566 19.9903C58.376 19.945 58.0836 19.8332 57.7259 19.4815C57.4384 19.1987 57.3804 19.1681 57.1305 19.1681C56.5399 19.1681 55.9225 18.8885 55.2789 18.3296C54.9887 18.0775 54.9097 17.951 54.8026 17.5669C54.6835 17.1392 54.5918 16.9415 54.1651 16.1921C53.5012 15.026 53.4422 14.8804 53.2538 13.9423C53.0798 13.0754 53.0708 12.943 53.1631 12.6083C53.2322 12.3577 53.2374 12.2818 53.2149 11.8472C53.185 11.2695 53.1983 11.2118 53.5504 10.388C53.6828 10.0784 53.8249 9.69831 53.8661 9.54346C54.0541 8.83738 54.2398 8.41368 54.5392 8.00765C54.7393 7.73647 54.8714 7.62733 55.1476 7.50517C55.3178 7.42988 55.3569 7.39421 55.4163 7.25995C55.5085 7.05137 55.6642 6.92086 56.4805 6.36749L57.1683 5.90126L57.391 5.90003C57.843 5.89764 58.3506 5.83516 58.3934 5.77671C58.4157 5.74609 58.5187 5.68672 58.6222 5.64478C58.7964 5.57408 58.8821 5.56754 59.7801 5.55647L60.7499 5.54443L61.1265 5.74194C61.3336 5.85057 61.7127 6.01552 61.969 6.10855C62.7892 6.4062 63.4149 6.75442 63.7546 7.10238C63.8804 7.2312 64.1058 7.41959 64.2554 7.52103C64.5833 7.74307 64.6514 7.84212 64.9806 8.57571C65.3442 9.38563 65.4845 9.82791 65.4942 10.1945C65.5014 10.4624 65.5179 10.5285 65.653 10.828C65.8608 11.2886 65.8721 11.4553 65.7235 11.8661C65.6605 12.0402 65.5621 12.317 65.5049 12.4811C65.4477 12.6452 65.3565 12.8432 65.3024 12.921C65.0953 13.2187 64.7787 13.4566 64.4302 13.5765C64.197 13.6567 64.0762 13.6586 63.6842 13.5881C63.3524 13.5286 63.1396 13.5406 62.6552 13.6464C62.2666 13.7313 62.0705 13.7306 61.2022 13.6412C60.8157 13.6015 60.3173 13.5664 60.0948 13.5634C59.7203 13.5583 59.6632 13.5668 59.3322 13.6775L58.9742 13.7971L58.6435 13.7321C58.3305 13.6705 58.2939 13.6701 57.9633 13.7243C57.7105 13.7658 57.5061 13.7758 57.2245 13.7603C56.8529 13.7399 56.8255 13.7433 56.6209 13.8351C56.5031 13.888 56.3626 13.9772 56.3087 14.0334L56.2108 14.1357L56.2749 14.4789C56.4106 15.2067 56.5988 15.849 56.7604 16.1363C56.963 16.4966 57.1629 16.6406 57.642 16.7713C57.937 16.8519 58.019 16.8945 58.2648 17.0942C58.492 17.2789 58.6137 17.3327 58.9418 17.3933C59.2821 17.4562 59.5079 17.5236 59.7847 17.6451L59.9849 17.733L60.4533 17.6061C60.7109 17.5363 61.0168 17.4625 61.1329 17.4421C61.4829 17.3805 61.5797 17.3376 61.8336 17.1314C62.1309 16.8899 62.4654 16.5143 62.8661 15.9716C63.2685 15.4269 63.4946 15.166 63.6275 15.0932C63.7174 15.044 63.8349 15.0332 64.2824 15.0332C64.9134 15.0332 65.0201 15.0598 65.2271 15.2689C65.6461 15.6921 65.5889 16.5633 65.0745 17.5926C64.8817 17.9784 64.7177 18.2134 64.5573 18.3338C64.4932 18.382 64.2824 18.487 64.0889 18.5673C63.8953 18.6476 63.5153 18.8375 63.2443 18.9893C62.6058 19.3471 62.059 19.6189 61.6484 19.7824C61.3674 19.8944 61.2931 19.9106 61.1382 19.8932C60.5552 19.828 60.3195 19.8296 59.9533 19.9013C59.5277 19.9845 59.3039 20.0068 59.0567 19.9903H59.0566ZM61.1038 11.3555C61.3322 11.2949 61.5609 11.2351 61.7898 11.176C61.9537 11.1348 62.2128 10.8758 62.3304 10.6355C62.5153 10.2576 62.482 9.60683 62.2664 9.38505C62.014 9.12545 61.2624 8.71438 60.8773 8.62537C60.7469 8.5952 60.5215 8.50444 60.3762 8.42358C60.1226 8.28239 60.1007 8.27676 59.8132 8.27916C59.5931 8.2809 59.431 8.30699 59.1993 8.37775C58.5005 8.59118 58.119 8.79789 57.9247 9.06849C57.6749 9.41612 57.6725 9.41787 57.3538 9.47309C56.8255 9.56482 56.6288 9.71604 56.3768 10.2244C56.2731 10.4338 56.2404 10.5453 56.2299 10.7259C56.1999 11.2446 56.4345 11.3552 57.3308 11.2451C57.6305 11.2083 57.6861 11.2114 57.9609 11.2803C58.2983 11.3649 58.4748 11.3732 58.7714 11.3184C58.9915 11.2777 59.0738 11.2901 59.6021 11.4442C60.0295 11.5687 60.3731 11.5484 61.1038 11.3555Z" fill="#EE1E23"/>
</g>
<defs>
<clipPath id="clip0">
<rect width="65.7143" height="20" fill="white" transform="translate(0 0.792969)"/>
</clipPath>
</defs>
</svg>
