<svg width="42" height="34" viewBox="0 0 42 34" fill="none" xmlns="http://www.w3.org/2000/svg">
<g clip-path="url(#clip0)">
<path d="M4.63321 5.10562C4.55396 2.86194 6.32691 0.792969 8.72337 0.792969H33.2797C35.6761 0.792969 37.4491 2.86194 37.3698 5.10562C37.2937 7.26089 37.3926 10.0528 38.1052 12.3292C38.8201 14.6127 40.0256 16.056 42 16.2415V18.3444C40.0256 18.5299 38.8201 19.9732 38.1052 22.2567C37.3926 24.5332 37.2937 27.3251 37.3698 29.4804C37.4491 31.724 35.6761 33.793 33.2797 33.793H8.72337C6.32691 33.793 4.55396 31.724 4.63329 29.4804C4.70933 27.3251 4.61048 24.5332 3.8978 22.2567C3.18298 19.9732 1.97449 18.5299 0 18.3444V16.2415C1.97441 16.056 3.18298 14.6127 3.8978 12.3292C4.61048 10.0528 4.70933 7.26089 4.63321 5.10562Z" fill="url(#paint0_linear)"/>
<g filter="url(#filter0_d)">
<path d="M21.9111 26.0651C25.7909 26.0651 28.1289 24.1921 28.1289 21.1026C28.1289 18.7673 26.4607 17.0766 23.9837 16.809V16.7117C25.8036 16.4198 27.2316 14.7534 27.2316 12.8925C27.2316 10.2409 25.1085 8.51367 21.8732 8.51367H14.5938V26.0651H21.9111ZM17.4246 10.7396H21.1908C23.2381 10.7396 24.4007 11.6396 24.4007 13.2695C24.4007 15.0088 23.0485 15.9819 20.5968 15.9819H17.4246V10.7396ZM17.4246 23.8393V18.0618H21.1654C23.8447 18.0618 25.2348 19.0348 25.2348 20.9323C25.2348 22.8298 23.8826 23.8393 21.3297 23.8393H17.4246Z" fill="url(#paint1_linear)"/>
<path d="M21.9111 26.0651C25.7909 26.0651 28.1289 24.1921 28.1289 21.1026C28.1289 18.7673 26.4607 17.0766 23.9837 16.809V16.7117C25.8036 16.4198 27.2316 14.7534 27.2316 12.8925C27.2316 10.2409 25.1085 8.51367 21.8732 8.51367H14.5938V26.0651H21.9111ZM17.4246 10.7396H21.1908C23.2381 10.7396 24.4007 11.6396 24.4007 13.2695C24.4007 15.0088 23.0485 15.9819 20.5968 15.9819H17.4246V10.7396ZM17.4246 23.8393V18.0618H21.1654C23.8447 18.0618 25.2348 19.0348 25.2348 20.9323C25.2348 22.8298 23.8826 23.8393 21.3297 23.8393H17.4246Z" stroke="white"/>
</g>
</g>
<defs>
<filter id="filter0_d" x="-1.90625" y="-3.98633" width="46.5352" height="50.5515" filterUnits="userSpaceOnUse" color-interpolation-filters="sRGB">
<feFlood flood-opacity="0" result="BackgroundImageFix"/>
<feColorMatrix in="SourceAlpha" type="matrix" values="0 0 0 0 0 0 0 0 0 0 0 0 0 0 0 0 0 0 127 0" result="hardAlpha"/>
<feOffset dy="4"/>
<feGaussianBlur stdDeviation="8"/>
<feColorMatrix type="matrix" values="0 0 0 0 0 0 0 0 0 0 0 0 0 0 0 0 0 0 0.15 0"/>
<feBlend mode="normal" in2="BackgroundImageFix" result="effect1_dropShadow"/>
<feBlend mode="normal" in="SourceGraphic" in2="effect1_dropShadow" result="shape"/>
</filter>
<linearGradient id="paint0_linear" x1="6.24086" y1="1.66634" x2="42.5403" y2="30.8901" gradientUnits="userSpaceOnUse">
<stop stop-color="#9013FE"/>
<stop offset="1" stop-color="#6610F2"/>
</linearGradient>
<linearGradient id="paint1_linear" x1="15.874" y1="9.66891" x2="23.9073" y2="23.448" gradientUnits="userSpaceOnUse">
<stop stop-color="white"/>
<stop offset="1" stop-color="#F1E5FC"/>
</linearGradient>
<clipPath id="clip0">
<rect width="42" height="33" fill="white" transform="translate(0 0.792969)"/>
</clipPath>
</defs>
</svg>
