<svg width="46" height="37" viewBox="0 0 46 37" fill="none" xmlns="http://www.w3.org/2000/svg">
<g clip-path="url(#clip0_94_8293)">
<path d="M41.4119 11.0233V3.22852H4.0597V11.0233H1.13727V26.9949H44.2779V11.0232H41.4119V11.0233Z" fill="#FF0000"/>
<path d="M0.35733 27.334V10.2434H3.28029V2.44873H42.1915V10.2434H45.0575V27.334H0.35733ZM1.57626 26.7204L43.6809 26.7573L43.4985 11.8029H40.6318V4.00776H4.83862V11.8029H1.91636L1.63127 26.2257L1.57643 26.7204H1.57626Z" fill="#EB1019"/>
<path d="M6.0061 2.38423V5.89689L7.33732 7.69795L11.2507 6.36917L11.2349 1.06494L6.00592 2.38406L6.0061 2.38423Z" fill="white"/>
<path d="M6.8167 20.3023L15.648 22.2978L38.6187 20.1577L38.624 27.1238H6.79895L6.8167 20.3023ZM33.0999 15.3582L30.6996 14.3625L25.7079 10.9546L19.7438 12.7695L6.81108 11.7905V16.3785L15.0116 18.7313L38.4438 16.6497V11.8638L33.0999 15.3582Z" fill="#BD101D" stroke="#BD101D" stroke-width="0.5"/>
<path d="M3.27682 8.74622L1.79865 10.31V14.5029L3.88567 15.3912V12.9695L4.77381 13.6655V12.0109L6.81091 12.0105L10.5811 17.6874L11.9713 18.0665L13.8592 25.8903L14.8388 26.2963L15.5318 29.1588H20.9949L18.3679 18.3004L25.7896 13.4813L29.826 16.892L30.8068 16.508L31.1789 17.5222L38.4439 16.8701L37.8134 15.2604L33.7259 14.2608L26.3244 8.23035L18.2598 11.2895L15.7817 8.02822L19.515 4.23293H23.073L24.4768 5.41548V4.23293H27.2732L26.5977 2.66335L18.4064 1.36621L10.8445 6.20941L3.27682 8.74622Z" fill="white"/>
</g>
<defs>
<clipPath id="clip0_94_8293">
<rect width="45" height="35.856" fill="white" transform="translate(0.230469 0.974609)"/>
</clipPath>
</defs>
</svg>
