<svg width="29" height="33" viewBox="0 0 29 33" fill="none" xmlns="http://www.w3.org/2000/svg">
<path d="M28.3386 0.0761719L25.7569 28.998L14.152 32.2152L2.57898 29.0025L0 0.0761719H28.3386Z" fill="#264DE4"/>
<path d="M23.5468 27.1564L25.753 2.44141H14.1694V29.7562L23.5468 27.1564Z" fill="#2965F1"/>
<path d="M5.91211 13.1694L6.23008 16.7171H14.1691V13.1694H5.91211Z" fill="#EBEBEB"/>
<path d="M14.1694 5.98975H14.1571H5.27344L5.59594 9.53748H14.1694V5.98975Z" fill="#EBEBEB"/>
<path d="M14.1692 26.0745V22.3834L14.1537 22.3875L10.2026 21.3207L9.95 18.4912H8.03008H6.38867L6.8857 24.0616L14.1529 26.079L14.1692 26.0745Z" fill="#EBEBEB"/>
<path d="M18.5253 16.718L18.1135 21.3191L14.1567 22.3871V26.078L21.4297 24.0623L21.4831 23.4629L22.3167 14.123L22.4033 13.1704L23.0438 5.98975H14.1567V9.53748H19.1558L18.833 13.1704H14.1567V16.718H18.5253Z" fill="white"/>
</svg>
