<svg width="36" height="27" viewBox="0 0 36 27" fill="none" xmlns="http://www.w3.org/2000/svg">
<path d="M35.0016 10.7233C34.2021 10.1604 32.3699 9.94925 30.9375 10.2307C30.771 8.82341 30.0048 7.59201 28.6723 6.50135L27.9062 5.93843L27.3732 6.74763C26.7069 7.80311 26.3738 9.28078 26.4737 10.6881C26.5071 11.1806 26.6736 12.0602 27.1733 12.8342C26.7069 13.1157 25.7409 13.4675 24.475 13.4675H0.390621L0.323997 13.749C0.0908147 15.1563 0.0908146 19.5541 2.82238 22.9317C4.88771 25.5 7.95239 26.8018 11.9831 26.8018C20.7108 26.8018 27.1733 22.5447 30.2047 14.8396C31.4039 14.8748 33.9689 14.8396 35.2681 12.2009C35.3014 12.1306 35.368 11.9899 35.6012 11.4621L35.7344 11.1806L35.0016 10.7233ZM19.6448 0.801758H15.9805V4.32003H19.6448V0.801758ZM19.6448 5.02368H15.9805V8.54195H19.6448V5.02368ZM15.3143 5.02368H11.65V8.54195H15.3143V5.02368ZM10.9838 5.02368H7.31947V8.54195H10.9838V5.02368ZM6.65324 9.2456H2.98894V12.7639H6.65324V9.2456ZM10.9838 9.2456H7.31947V12.7639H10.9838V9.2456ZM15.3143 9.2456H11.65V12.7639H15.3143V9.2456ZM19.6448 9.2456H15.9805V12.7639H19.6448V9.2456ZM23.9754 9.2456H20.3111V12.7639H23.9754V9.2456Z" fill="#2396ED"/>
</svg>
