<svg width="46" height="27" viewBox="0 0 46 27" fill="none" xmlns="http://www.w3.org/2000/svg">
<path d="M35.5802 5.79218H35.5577L26.8258 0.709136L18.2064 5.72471L9.36202 0.59668L0 6.03959V15.9358L18.0714 26.4617L26.7133 21.4687L35.5802 26.5967L45.0097 21.1538V11.2576L35.5802 5.79218ZM35.5352 15.9358L28.1311 11.6399L35.6027 7.27661L43.0068 11.6174L35.5352 15.9358ZM18.0039 7.20914L25.4755 11.5275L18.0939 15.8233L10.6448 11.4825L18.0039 7.20914ZM34.2524 6.5344L26.9383 10.7853L19.4892 6.46692L26.8258 2.19357L34.2524 6.5344ZM16.8111 6.39945L15.3033 7.27661L9.20449 10.7178L1.93542 6.39945L9.38453 2.08111L16.8111 6.39945ZM1.30528 7.47903L8.61936 11.8873V19.6693L1.30528 15.2161V7.47903ZM10.0822 12.652L17.3963 16.9929V24.7524L10.0822 20.4116V12.652ZM27.4784 12.742L34.9276 17.1278V24.8199L27.4784 20.3891V12.742Z" fill="black"/>
<path opacity="0.5" d="M10.0822 20.434L17.3963 24.7299V16.9928L10.0822 12.652V20.434ZM1.3053 15.1935L8.61938 19.6468V11.8873L1.3053 7.479V15.1935ZM27.4785 20.4115L34.9276 24.8423V17.1278L27.4785 12.742V20.4115Z" fill="black"/>
</svg>
