<svg width="75" height="15" viewBox="0 0 75 15" fill="none" xmlns="http://www.w3.org/2000/svg">
<path d="M39.7508 7.05111C39.8578 6.96739 39.988 6.92553 40.1369 6.92553C40.3369 6.92553 40.5509 6.99994 40.7789 7.14413C41.0068 7.28832 41.2254 7.51623 41.4348 7.82785L42.2442 6.53018C41.993 6.16738 41.6813 5.88366 41.3045 5.68366C40.9277 5.48366 40.5276 5.38599 40.109 5.38599C39.5135 5.38599 38.9925 5.56738 38.5552 5.93017C38.1179 6.29297 37.8993 6.76739 37.8993 7.34413C37.8993 7.75809 38.0388 8.15344 38.318 8.52553C38.518 8.79065 38.8809 9.11158 39.4019 9.48367C39.8531 9.8046 40.1322 10.0279 40.2346 10.1534C40.3369 10.279 40.3881 10.4 40.3881 10.5209C40.3881 10.6697 40.323 10.7953 40.1881 10.9069C40.0531 11.0139 39.8764 11.0697 39.6531 11.0697C39.0902 11.0697 38.5692 10.7581 38.0947 10.1302L37.048 11.3488C37.5132 11.8418 37.9365 12.186 38.3133 12.3721C38.6901 12.5581 39.1134 12.6511 39.574 12.6511C40.3741 12.6511 40.9835 12.4232 41.4069 11.9674C41.8302 11.5116 42.0395 11.0232 42.0395 10.5116C42.0395 10.1209 41.9372 9.76274 41.7325 9.42786C41.5278 9.09762 41.0998 8.69762 40.4486 8.23251C40.0392 7.93948 39.7973 7.74413 39.7182 7.64181C39.6345 7.53948 39.5926 7.43715 39.5926 7.33483C39.5879 7.22785 39.6438 7.13483 39.7508 7.05111Z" fill="#5588FF"/>
<path d="M46.1243 9.66043L44.7799 5.56274H43.1145L45.059 11.5302L43.0959 15H44.8869L50.3157 5.56274H48.4875L46.1243 9.66043Z" fill="#5588FF"/>
<path d="M28.1117 6.7255H24.8367L25.1066 4.78596C25.1066 4.78596 28.5816 4.78131 28.6002 4.78131C29.0561 4.78131 29.4282 4.40921 29.4282 3.9534C29.4282 3.49758 29.0561 3.12549 28.6002 3.12549C28.5862 3.12549 23.5575 3.12549 23.5575 3.12549L22.2735 12.4744H27.5395C27.9815 12.4651 28.3397 12.1023 28.3397 11.6604C28.3397 11.2092 27.9722 10.8418 27.5209 10.8418C27.5023 10.8418 24.2552 10.8464 24.2552 10.8464L24.5995 8.36737C24.5995 8.36737 27.935 8.37202 27.9629 8.37202C28.4188 8.37202 28.7909 7.99992 28.7909 7.54411C28.8002 7.13015 28.5025 6.79062 28.1117 6.7255Z" fill="#5588FF"/>
<path d="M56.8097 3.13013C56.7958 3.13013 51.767 3.13013 51.767 3.13013L50.4924 12.4697H55.763C56.205 12.4604 56.5632 12.0976 56.5632 11.6557C56.5632 11.2046 56.1957 10.8371 55.7444 10.8371C55.7258 10.8371 52.4787 10.8418 52.4787 10.8418L52.823 8.3627C52.823 8.3627 56.1584 8.36735 56.191 8.36735C56.6469 8.36735 57.0191 7.99526 57.0191 7.53944C57.0191 7.13014 56.7213 6.7906 56.3306 6.72549H53.0556L53.3254 4.78595C53.3254 4.78595 56.8004 4.78129 56.819 4.78129C57.2749 4.78129 57.6471 4.4092 57.6471 3.95338C57.6378 3.50222 57.2703 3.13013 56.8097 3.13013Z" fill="#5588FF"/>
<path d="M66.2212 7.60479C66.2212 6.68851 66.0072 5.87455 65.5839 5.17222C65.1605 4.4699 64.6116 3.95362 63.9324 3.62803C63.2532 3.2978 62.2252 3.13501 60.8342 3.13501H59.3549L58.0803 12.4746H60.9831C62.2019 12.4746 63.1556 12.2932 63.8394 11.9304C64.5232 11.5676 65.0954 10.9908 65.5467 10.2048C65.9979 9.4141 66.2212 8.54898 66.2212 7.60479ZM63.9231 9.53503C63.5835 10.0467 63.1369 10.4095 62.5787 10.6188C62.1786 10.7676 61.5367 10.842 60.6481 10.842H60.0713L60.8947 4.77688H61.3366C62.0577 4.77688 62.6345 4.8885 63.0672 5.11641C63.4998 5.34432 63.8347 5.66525 64.0766 6.08386C64.3139 6.50246 64.4348 7.01874 64.4348 7.63735C64.4302 8.38619 64.2627 9.0234 63.9231 9.53503Z" fill="#5588FF"/>
<path d="M73.1288 7.49778L72.0914 8.06987C72.0077 8.82336 71.3657 9.40476 70.5935 9.40476C69.7608 9.40476 69.0863 8.73034 69.0863 7.89778C69.0863 7.06522 69.7608 6.3908 70.5935 6.3908C70.9145 6.3908 71.2122 6.49312 71.4541 6.66056L72.7427 5.94893L72.0449 3.14893H70.5702L65.5461 12.4513H67.4255L68.4862 10.4699H72.1798L72.6729 12.4513H74.3662L73.1288 7.49778Z" fill="#5588FF"/>
<path d="M70.0403 7.86045C70.0403 8.18138 70.3008 8.44185 70.6218 8.44185C70.9428 8.44185 71.2033 8.18138 71.2033 7.86045C71.2033 7.53952 70.9428 7.27905 70.6218 7.27905C70.3008 7.27905 70.0403 7.53952 70.0403 7.86045Z" fill="#5588FF"/>
<path d="M35.7078 6.65109C35.7078 6.65109 35.7078 6.64644 35.7078 6.65109H35.1263L35.0658 6.53947C34.8286 6.16272 34.5308 5.879 34.1726 5.68365C33.8098 5.4883 33.2376 5.39062 32.8096 5.39062C32.1723 5.39062 31.5629 5.56272 30.9814 5.90691C30.3999 6.25109 29.9347 6.73016 29.5904 7.34877C29.2462 7.96272 29.0694 8.61389 29.0694 9.29296C29.0694 10.186 29.3392 10.9674 29.8789 11.6418C30.4185 12.3162 31.1489 12.6511 32.0653 12.6511C32.4654 12.6511 32.8236 12.586 33.1445 12.4465C33.4655 12.3116 33.8098 12.0744 34.1773 11.7302C34.1773 11.7302 34.6099 12.1069 34.6146 12.1023C34.8844 12.3162 35.2193 12.4511 35.5822 12.4744H35.7496L35.7729 12.2744L36.3637 7.30226C36.3591 7.30226 36.3591 7.30226 36.3544 7.30226C36.3544 6.94412 36.066 6.65574 35.7078 6.65109ZM34.3494 9.98599C34.1401 10.3813 33.8796 10.6744 33.5679 10.8604C33.2562 11.0465 32.8933 11.1395 32.4747 11.1395C31.9723 11.1395 31.5629 10.9767 31.2419 10.6418C30.9209 10.3116 30.7627 9.87436 30.7627 9.33482C30.7627 8.63249 30.9721 8.0604 31.3954 7.61389C31.8187 7.16737 32.3305 6.94877 32.9352 6.94877C33.4562 6.94877 33.8749 7.11621 34.1912 7.44644C34.5076 7.78133 34.6657 8.21854 34.6657 8.76738C34.6657 9.18133 34.5587 9.59064 34.3494 9.98599Z" fill="#5588FF"/>
<path d="M16.6122 4.03722C16.2633 3.11164 15.6957 2.27908 14.9468 1.60466C13.7977 0.572095 12.3091 0 10.76 0C9.42022 0 8.14093 0.418606 7.06168 1.20931C6.54066 1.5907 6.08942 2.04187 5.71726 2.5535C5.48466 2.52094 5.24741 2.50233 5.00551 2.50233C3.6704 2.50233 2.40972 3.02327 1.46537 3.96745C0.52102 4.91164 0 6.16746 0 7.507C0 8.74886 0.460544 9.93956 1.29325 10.8605C1.95382 11.5907 2.80978 12.107 3.75413 12.3489C4.16351 13.5675 5.31719 14.4466 6.67091 14.4466C8.36888 14.4466 9.75051 13.0652 9.75051 11.3675C9.75051 11.2698 9.74586 11.1675 9.73656 11.0698L14.0582 8.80003L13.1139 7.16281L8.98294 9.33026C8.42005 8.6884 7.592 8.28375 6.67091 8.28375C5.3358 8.28375 4.19607 9.13956 3.76809 10.3303C2.67953 9.85119 1.91661 8.76747 1.91661 7.50235C1.91661 5.80002 3.29824 4.41397 5.00551 4.41397C5.60561 4.41397 6.1685 4.58606 6.643 4.88374C7.21519 3.15815 8.84338 1.91163 10.76 1.91163C12.9929 1.91163 14.8258 3.59536 15.0724 5.75816C15.1514 5.74885 15.2305 5.7442 15.3096 5.7442C16.6447 5.7442 17.7286 6.82793 17.7286 8.16282C17.7286 9.42794 16.7564 10.4651 15.5189 10.5721H14.1373C14.0768 10.5582 14.0117 10.5535 13.9466 10.5535C13.4116 10.5535 12.979 10.9861 12.979 11.521C12.979 12.0279 13.3697 12.4419 13.8675 12.4838V12.4931H15.5189H15.6027L15.6864 12.4838C16.7657 12.3907 17.7658 11.9024 18.5008 11.1024C19.2405 10.2977 19.6499 9.25584 19.6499 8.16282C19.6499 6.23723 18.3706 4.59071 16.6122 4.03722ZM6.67091 10.1768C7.32684 10.1768 7.86181 10.7117 7.86181 11.3675C7.86181 12.0233 7.32684 12.5582 6.67091 12.5582C6.01499 12.5582 5.48001 12.0233 5.48001 11.3675C5.48001 10.7117 6.01499 10.1768 6.67091 10.1768Z" fill="#5588FF"/>
</svg>
