<svg width="19" height="30" viewBox="0 0 19 30" fill="none" xmlns="http://www.w3.org/2000/svg">
<path fill-rule="evenodd" clip-rule="evenodd" d="M10.3151 0.0732422C8.18666 0.8277 6.13198 3.02976 4.15109 6.67943C1.17975 12.1539 -2.65787 19.9333 2.62657 26.0927C5.07131 28.9422 9.10788 30.6239 14.4053 27.9604C18.6609 25.8206 19.8444 19.6801 18.3166 16.7946C15.165 10.8423 11.9675 9.37415 11.1113 5.6828C10.5405 3.2219 10.2751 1.35204 10.3151 0.0732422Z" fill="url(#paint0_linear_94_7494)"/>
<path fill-rule="evenodd" clip-rule="evenodd" d="M10.3151 0C8.17585 0.762236 6.12117 2.9643 4.15107 6.60618C1.19594 12.069 -2.65788 19.86 2.62655 26.0194C5.07129 28.8689 9.05591 29.7897 11.2669 28.0997C12.7083 26.998 13.6886 25.9478 14.2534 23.7351C14.8823 21.2712 14.3997 17.9542 14.0691 16.4304C13.6507 14.5021 13.5138 12.3858 13.6583 10.0813C13.6074 10.0192 13.5693 9.97282 13.5442 9.94201C12.3931 8.53332 11.5049 7.3063 11.1113 5.60955C10.5405 3.14865 10.2751 1.2788 10.3151 0Z" fill="url(#paint1_linear_94_7494)"/>
<path fill-rule="evenodd" clip-rule="evenodd" d="M8.5438 0.958008C6.55124 2.53279 5.06972 5.17425 4.09925 8.88237C2.64355 14.4446 2.48581 19.5738 2.99921 22.5572C3.99447 28.3407 9.15424 30.5361 14.4467 27.8441C17.7038 26.1874 19.0604 22.6313 18.9885 18.7713C18.9141 14.7745 11.1906 10.2449 9.82283 6.90935C8.91096 4.68565 8.48461 2.70187 8.5438 0.958008Z" fill="url(#paint2_linear_94_7494)"/>
<path fill-rule="evenodd" clip-rule="evenodd" d="M13.5953 11.3863C15.985 14.451 16.5059 16.5844 15.158 17.7865C13.1362 19.5897 8.19203 20.7662 5.11623 18.585C3.06569 17.1308 2.28985 14.0114 2.78869 9.22656C1.94222 10.9943 1.22653 12.7851 0.64161 14.5988C0.0566871 16.4126 -0.114121 18.3106 0.129186 20.293C0.862228 21.776 2.64452 22.7665 5.47606 23.2644C9.72337 24.0113 13.7433 23.6422 16.4408 22.2825C18.239 21.3759 19.0896 20.4735 18.9925 19.5752C19.0574 18.2487 18.6483 16.9859 17.7653 15.7869C16.8823 14.5879 15.4923 13.121 13.5953 11.3863Z" fill="url(#paint3_linear_94_7494)"/>
<path fill-rule="evenodd" clip-rule="evenodd" d="M4.2569 8.32617C4.23692 10.5395 4.80603 12.6436 5.96423 14.6383C7.70153 17.6305 9.72944 20.5871 12.764 23.0378C14.7871 24.6717 16.4036 25.1995 17.6136 24.6214C16.6198 26.4 15.5631 27.2715 14.4434 27.236C12.764 27.1827 10.7163 26.4487 7.43523 22.5059C5.24787 19.8773 3.7515 17.3909 2.94611 15.0466C3.07382 14.1165 3.20926 13.1902 3.3524 12.2676C3.49554 11.3449 3.79704 10.0311 4.2569 8.32617Z" fill="url(#paint4_linear_94_7494)"/>
<path fill-rule="evenodd" clip-rule="evenodd" d="M9.38934 11.3635C9.57497 13.1666 10.2766 16.0508 9.38934 17.9712C8.50209 19.8915 4.40398 23.3607 5.53522 26.4167C6.66646 29.4727 9.42331 28.7866 11.1526 27.3782C12.8819 25.9699 13.8076 23.6798 14.0127 22.0693C14.2179 20.4588 13.5218 17.3599 13.2955 14.6645C13.1445 12.8676 13.2469 11.3269 13.6027 10.0424L13.0728 9.37562L9.9538 8.45215C9.45374 9.19103 9.26559 10.1615 9.38934 11.3635Z" fill="url(#paint5_linear_94_7494)"/>
<path fill-rule="evenodd" clip-rule="evenodd" d="M10.5027 2.43262C9.49322 2.85917 8.53679 3.70438 7.6334 4.96824C6.27833 6.86402 5.58815 8.00043 6.09902 11.7583C6.4396 14.2636 6.68337 16.5684 6.83034 18.6728L11.1988 5.98034C11.0382 5.33361 10.9046 4.74952 10.7981 4.22809C10.6915 3.70665 10.5931 3.10816 10.5027 2.43262Z" fill="url(#paint6_linear_94_7494)"/>
<path fill-rule="evenodd" clip-rule="evenodd" d="M11.1905 5.95508C10.0815 6.60235 9.22223 7.92846 8.61259 9.9334C8.00296 11.9383 7.44523 14.7412 6.93939 18.342C7.61405 16.0517 8.06158 14.3929 8.28199 13.3656C8.61259 11.8245 8.72552 9.64525 9.60335 8.16574C10.1886 7.1794 10.7176 6.44252 11.1905 5.95508Z" fill="#330A4C" fill-opacity="0.316321"/>
<path fill-rule="evenodd" clip-rule="evenodd" d="M6.0556 27.4375C7.88056 27.6982 8.83483 27.93 8.91843 28.1329C9.04383 28.4372 8.68742 28.7155 7.67441 28.5285C6.99906 28.4038 6.45946 28.0401 6.0556 27.4375Z" fill="white"/>
<path fill-rule="evenodd" clip-rule="evenodd" d="M6.97251 2.43262C5.96872 3.63177 5.09893 4.90306 4.36313 6.24649C3.62733 7.58992 3.10158 8.59217 2.78588 9.25323C2.68803 9.74629 2.64027 10.4738 2.6426 11.4358C2.64493 12.3977 2.72813 13.4674 2.89222 14.6446C3.03587 12.3393 3.47564 10.1017 4.21153 7.93162C4.94741 5.76159 5.86774 3.92859 6.97251 2.43262Z" fill="#EDEDED" fill-opacity="0.603261"/>
<defs>
<linearGradient id="paint0_linear_94_7494" x1="9.90513" y1="2.23255" x2="8.88881" y2="29.2743" gradientUnits="userSpaceOnUse">
<stop stop-color="#D9D8DC"/>
<stop offset="1" stop-color="white" stop-opacity="0.385275"/>
</linearGradient>
<linearGradient id="paint1_linear_94_7494" x1="10.3645" y1="2.22622" x2="-0.2569" y2="25.5053" gradientUnits="userSpaceOnUse">
<stop stop-color="#8D67AF" stop-opacity="0.671932"/>
<stop offset="1" stop-color="#9F8DAF"/>
</linearGradient>
<linearGradient id="paint2_linear_94_7494" x1="11.5502" y1="9.76817" x2="11.5502" y2="28.4883" gradientUnits="userSpaceOnUse">
<stop stop-color="#26053D" stop-opacity="0.761634"/>
<stop offset="1" stop-color="#B7B4B4" stop-opacity="0.277683"/>
</linearGradient>
<linearGradient id="paint3_linear_94_7494" x1="1.94499" y1="11.0344" x2="6.71072" y2="23.6586" gradientUnits="userSpaceOnUse">
<stop stop-color="#91739F" stop-opacity="0.45955"/>
<stop offset="1" stop-color="#32054F" stop-opacity="0.539912"/>
</linearGradient>
<linearGradient id="paint4_linear_94_7494" x1="14.6834" y1="26.5582" x2="1.57808" y2="15.6991" gradientUnits="userSpaceOnUse">
<stop stop-color="#463D49" stop-opacity="0.331182"/>
<stop offset="1" stop-color="#340A50" stop-opacity="0.821388"/>
</linearGradient>
<linearGradient id="paint5_linear_94_7494" x1="11.9897" y1="9.94484" x2="2.7467" y2="24.006" gradientUnits="userSpaceOnUse">
<stop stop-color="#715383" stop-opacity="0.145239"/>
<stop offset="1" stop-color="#F4F4F4" stop-opacity="0.233639"/>
</linearGradient>
<linearGradient id="paint6_linear_94_7494" x1="12.8737" y1="14.2336" x2="6.32798" y2="13.834" gradientUnits="userSpaceOnUse">
<stop stop-color="#A5A1A8" stop-opacity="0.356091"/>
<stop offset="1" stop-color="#370C50" stop-opacity="0.581975"/>
</linearGradient>
</defs>
</svg>
