<svg width="41" height="39" viewBox="0 0 41 39" fill="none" xmlns="http://www.w3.org/2000/svg">
<path d="M34.3185 10.4696C32.6467 10.4696 31.1301 11.1362 30.0181 12.2174L22.9617 7.15359C23.006 6.96844 23.0319 6.77589 23.0319 6.57778C23.0319 5.20953 21.9254 4.09863 20.5584 4.09863C19.1933 4.09863 18.085 5.20768 18.085 6.57778C18.085 7.94603 19.1915 9.05693 20.5584 9.05693C21.0368 9.05693 21.482 8.91807 21.8607 8.68293L30.4984 14.9836C31.1726 13.5764 32.6578 12.4785 34.3185 12.4785C36.6257 12.4785 38.4969 14.354 38.4969 16.6666C38.4969 18.5143 37.3017 20.0844 35.6448 20.6399L36.2119 22.5673C38.7001 21.7656 40.5012 19.4271 40.5012 16.6666C40.5012 13.245 37.734 10.4696 34.3185 10.4696Z" fill="#4575BA"/>
<path d="M14.4954 4.45069C13.9911 6.04298 14.1648 7.68896 14.8538 9.07572L7.91925 14.2692C7.7567 14.171 7.58306 14.0896 7.39464 14.0285C6.09603 13.6156 4.70876 14.3358 4.29682 15.6356C3.88489 16.9372 4.60347 18.3276 5.90022 18.7405C7.19883 19.1534 8.5861 18.435 8.99804 17.1334C9.14212 16.6779 9.14582 16.2114 9.03683 15.78L17.6209 9.45158C16.4886 8.38512 15.8975 6.63916 16.3999 5.05428C17.0963 2.85471 19.4405 1.63828 21.635 2.33629C23.388 2.89359 24.5148 4.50624 24.5425 6.25405L26.5412 6.29663C26.532 3.68418 24.8584 1.26057 22.239 0.427403C18.9934 -0.603878 15.5262 1.19577 14.4954 4.45069Z" fill="#E84124"/>
<path d="M3.04273 21.2011C4.38752 22.1842 5.99462 22.5453 7.51859 22.3379L10.2543 30.5326C10.1121 30.6548 9.9791 30.7918 9.86457 30.9511C9.06842 32.0434 9.31595 33.5802 10.4151 34.3837C11.5142 35.1873 13.0492 34.954 13.8454 33.8616C14.6415 32.7692 14.394 31.2325 13.2949 30.4289C12.9107 30.1475 12.471 29.9957 12.0295 29.9624L8.73961 19.8495C7.38004 20.5772 5.54759 20.5772 4.21019 19.5996C2.35372 18.2406 1.93624 15.6429 3.28103 13.797C4.35427 12.3214 6.22737 11.7733 7.88434 12.3047L8.5475 10.4328C6.07959 9.60707 3.27179 10.4143 1.66839 12.6176C-0.321081 15.3485 0.294049 19.1922 3.04273 21.2011Z" fill="#0DBCD4"/>
<path d="M34.6965 30.8322C34.1867 29.2529 33.0949 28.0235 31.7335 27.3014L34.3732 19.0808C34.5616 19.066 34.7519 19.0308 34.9385 18.9697C36.2334 18.5513 36.9446 17.1645 36.5289 15.874C36.1133 14.5835 34.726 13.8763 33.4311 14.2947C32.1362 14.7131 31.4232 16.0999 31.8407 17.3904C31.9866 17.8422 32.2526 18.2199 32.5906 18.5069L29.2638 28.6012C30.8007 28.8067 32.2895 29.875 32.7957 31.4451C33.4995 33.6261 32.2951 35.9701 30.108 36.6774C28.3605 37.2439 26.5114 36.5941 25.4806 35.1981L23.8311 36.3238C25.3476 38.4308 28.1074 39.4157 30.7194 38.5715C33.9557 37.5254 35.7365 34.0594 34.6965 30.8322Z" fill="#87C250"/>
<path d="M15.5427 37.463C16.8838 36.4798 17.7095 35.0524 17.97 33.5304L26.5966 33.4416C26.6705 33.6156 26.761 33.7841 26.8774 33.9452C27.6791 35.0431 29.2178 35.2819 30.3132 34.4784C31.4086 33.6748 31.6469 32.1325 30.8452 31.0346C30.0435 29.9367 28.5048 29.6978 27.4094 30.5014C27.0252 30.7828 26.7499 31.155 26.5837 31.5678L15.9639 31.5956C16.2484 33.1212 15.6979 34.8746 14.366 35.8522C12.5151 37.2093 9.91606 36.8057 8.56019 34.9505C7.47771 33.4675 7.51835 31.5067 8.5214 30.0848L6.93831 28.8721C5.41065 30.9791 5.33676 33.9155 6.95309 36.1299C8.95919 38.8738 12.8033 39.4719 15.5427 37.463Z" fill="#7954A2"/>
</svg>
