<svg width="41" height="41" viewBox="0 0 41 41" fill="none" xmlns="http://www.w3.org/2000/svg">
<path d="M33.8526 30.2882C34.2694 30.2882 34.4133 30.191 34.6115 29.8527C34.8096 29.5144 34.7143 28.9649 34.7068 28.8154C34.6881 28.4864 34.5778 28.1201 34.5629 27.9369C34.5629 27.8248 34.5629 27.1089 34.5797 26.8155C34.8301 22.1727 36.8226 21.068 37.3983 20.9428C37.7654 20.8346 38.1592 20.8611 38.5085 21.0176V13.9151V13.8141V11.9301C38.5085 10.904 37.7795 9.64234 36.8899 9.12647L22.3372 0.715603C21.44 0.195998 19.9765 0.195998 19.0943 0.709996L4.55661 9.10965C3.66879 9.62365 2.93985 10.8853 2.94172 11.9133V13.7487C2.94098 13.7593 2.94098 13.7699 2.94172 13.7805V16.4608C3.02583 16.5075 3.10994 16.5561 3.19405 16.6084C3.47628 16.7953 3.75477 16.8981 4.03887 17.0944C4.84843 17.5877 5.60068 18.1694 6.28177 18.8289C6.41448 18.956 6.85745 19.513 6.96212 19.6438C7.28381 20.0871 7.64543 20.5 8.04245 20.8774C8.26178 21.0774 8.50321 21.2517 8.76204 21.397C9.19006 21.6194 9.89658 21.569 10.2573 21.4101C13.0273 20.2101 14.7655 20.812 15.5674 21.2942C17.5505 22.4848 18.2121 24.1502 18.4233 26.1725C18.4511 26.4344 18.4598 26.6981 18.4495 26.9613C18.4495 27.4416 18.4327 28.2135 18.9392 28.3425C19.6663 28.5294 19.842 27.7519 19.9504 27.236C20.1952 26.0678 21.7503 25.3015 22.8886 25.8903C23.6736 26.2959 23.9951 26.5258 24.7707 26.1837C25.7408 25.7557 26.2417 24.666 26.58 24.0866C26.9142 23.5224 27.3981 23.0618 27.9781 22.7558C29.492 21.8119 33.2975 22.0568 33.4358 26.251C33.4358 26.479 33.4358 27.0622 33.4358 27.4173C33.4358 27.8173 33.4489 28.2079 33.4227 28.621C33.4059 28.8958 33.3573 29.1817 33.3311 29.464C33.3237 29.464 33.1816 30.2845 33.8526 30.2882Z" fill="#E4A663"/>
<path d="M38.5047 21.0251C38.4019 20.9933 38.1029 20.7971 37.3982 20.9503C36.8207 21.0755 34.8301 22.1802 34.5796 26.823C34.5647 27.1089 34.5553 27.8248 34.5628 27.9444C34.5778 28.1313 34.688 28.4939 34.7067 28.8229C34.7067 28.9724 34.8207 29.5145 34.6114 29.8602C34.4021 30.206 34.2694 30.2976 33.8526 30.2957C33.1816 30.2957 33.3236 29.4715 33.3236 29.4715C33.3498 29.193 33.3984 28.9107 33.4152 28.6285C33.4414 28.2154 33.4283 27.8248 33.4283 27.4248C33.4283 27.0697 33.4283 26.4903 33.4283 26.2585C33.29 22.0643 29.4845 21.8194 27.9706 22.7633C27.3906 23.0693 26.9067 23.53 26.5725 24.0941C26.2342 24.6735 25.7333 25.7632 24.7632 26.1912C23.9875 26.5333 23.6661 26.3034 22.8811 25.8978C21.7428 25.309 20.1877 26.0753 19.9429 27.2435C19.8344 27.7594 19.6588 28.5351 18.9317 28.35C18.4252 28.2211 18.442 27.4491 18.442 26.9688C18.4523 26.7056 18.4435 26.442 18.4158 26.18C18.2046 24.1577 17.543 22.4923 15.5599 21.3017C14.758 20.8195 13.0198 20.2176 10.2498 21.4176C9.87598 21.5765 9.17694 21.6269 8.75453 21.4045C8.49569 21.2592 8.25427 21.0849 8.03493 20.8849C7.63792 20.5075 7.2763 20.0946 6.9546 19.6513C6.84993 19.5205 6.40696 18.9635 6.27425 18.8364C5.59316 18.1769 4.84092 17.5952 4.03136 17.1019C3.74725 16.915 3.47063 16.7954 3.18653 16.6159C3.10242 16.5636 3.01831 16.515 2.9342 16.4683V28.7238C2.9342 29.7518 3.66315 31.0135 4.55283 31.5275L19.1055 39.9383C19.9952 40.4542 21.4512 40.4542 22.3409 39.9383L36.8954 31.5387C37.7851 31.0247 38.5122 29.763 38.5103 28.7351L38.5047 21.0251Z" fill="#5E464D"/>
<path d="M22.5708 18.9654C21.5652 19.5467 19.9186 19.5467 18.913 18.9654L4.03137 11.1152C4.19959 11.2816 19.1223 19.9504 19.1223 19.9504C20.012 20.4663 21.468 20.4663 22.3577 19.9504C22.3577 19.9504 37.2599 11.3077 37.4281 11.1414L22.5708 18.9654Z" fill="white"/>
<path d="M18.8887 1.8352C19.8962 1.25952 21.541 1.25952 22.5484 1.83707L24.3521 2.5847C24.1838 2.41835 22.3372 1.22214 22.3372 1.22214C21.4475 0.708139 19.9934 0.70627 19.1037 1.22214C19.1037 1.22214 16.1543 2.95478 15.9879 3.11926L18.8887 1.8352Z" fill="white"/>
</svg>
