<svg width="36" height="41" viewBox="0 0 36 41" fill="none" xmlns="http://www.w3.org/2000/svg">
<path d="M2.00292 30.6126L3.47131 31.4604L19.8298 3.12748L18.3614 2.27967L2.00292 30.6126Z" fill="#E535AB"/>
<path d="M34.3837 28.3496H1.66663V30.0452H34.3837V28.3496Z" fill="#E535AB"/>
<path d="M2.31402 29.3026L18.6787 38.751L19.5265 37.2826L3.16182 27.8342L2.31402 29.3026Z" fill="#E535AB"/>
<path d="M16.53 4.67756L32.8946 14.126L33.7424 12.6576L17.3778 3.20916L16.53 4.67756Z" fill="#E535AB"/>
<path d="M2.31855 12.6507L3.16635 14.1191L19.531 4.67072L18.6832 3.20233L2.31855 12.6507Z" fill="#E535AB"/>
<path d="M16.2344 3.12796L32.593 31.4609L34.0614 30.6131L17.7028 2.28016L16.2344 3.12796Z" fill="#E535AB"/>
<path d="M4.65947 11.5264H2.96387V30.4232H4.65947V11.5264Z" fill="#E535AB"/>
<path d="M33.0967 11.5264H31.4011V30.4232H33.0967V11.5264Z" fill="#E535AB"/>
<path d="M17.6495 36.7496L18.39 38.0322L32.6228 29.8147L31.8823 28.532L17.6495 36.7496Z" fill="#E535AB"/>
<path d="M35.3439 30.9748C34.3633 32.6806 32.1774 33.2628 30.4715 32.2822C28.7657 31.3017 28.1835 29.1157 29.1641 27.4099C30.1447 25.7041 32.3306 25.1219 34.0364 26.1025C35.7524 27.0933 36.3347 29.269 35.3439 30.9748Z" fill="#E535AB"/>
<path d="M6.88625 14.5392C5.90566 16.2451 3.71975 16.8273 2.01393 15.8467C0.308106 14.8661 -0.274121 12.6802 0.706472 10.9744C1.68706 9.26855 3.87297 8.68633 5.57879 9.66692C7.28461 10.6577 7.86684 12.8334 6.88625 14.5392Z" fill="#E535AB"/>
<path d="M0.716664 30.9748C-0.263928 29.269 0.318299 27.0933 2.02412 26.1025C3.72994 25.1219 5.90563 25.7041 6.89644 27.4099C7.87703 29.1157 7.29481 31.2914 5.58898 32.2822C3.87295 33.2628 1.69726 32.6806 0.716664 30.9748Z" fill="#E535AB"/>
<path d="M29.1743 14.5392C28.1937 12.8334 28.7759 10.6577 30.4818 9.66692C32.1876 8.68633 34.3633 9.26855 35.3541 10.9744C36.3347 12.6802 35.7524 14.8559 34.0466 15.8467C32.3408 16.8273 30.1549 16.2451 29.1743 14.5392Z" fill="#E535AB"/>
<path d="M18.0303 40.9745C16.0589 40.9745 14.4654 39.381 14.4654 37.4096C14.4654 35.4382 16.0589 33.8447 18.0303 33.8447C20.0017 33.8447 21.5951 35.4382 21.5951 37.4096C21.5951 39.3708 20.0017 40.9745 18.0303 40.9745Z" fill="#E535AB"/>
<path d="M18.0303 8.10433C16.0589 8.10433 14.4654 6.51087 14.4654 4.53947C14.4654 2.56807 16.0589 0.974609 18.0303 0.974609C20.0017 0.974609 21.5951 2.56807 21.5951 4.53947C21.5951 6.51087 20.0017 8.10433 18.0303 8.10433Z" fill="#E535AB"/>
</svg>
