<svg width="40" height="41" viewBox="0 0 40 41" fill="none" xmlns="http://www.w3.org/2000/svg">
<path d="M20.2344 1.30093C9.34875 1.11343 0.191876 9.52343 0.00500127 19.9884C-0.228749 31.3009 7.9475 39.7509 19.3 39.8909C31.26 40.0784 39.81 32.2284 39.9969 20.9222C40.1844 10.1297 31.5406 1.53343 20.2344 1.29968V1.30093ZM20.0006 33.9116C12.9925 33.9116 6.91938 27.8378 6.82563 20.8303C6.73188 13.4016 12.6194 7.3753 20.0006 7.3753C27.2425 7.3753 33.1756 13.2628 33.1756 20.5972C33.1756 27.6984 27.0556 33.9597 20.0006 33.9122V33.9116Z" fill="#C62129"/>
<path d="M26.775 18.1203C25.7 17.7466 25.7469 18.9616 25.42 19.6153C25.1863 20.0828 25.3731 20.7366 24.5788 20.9703L22.7038 13.5953C22.5638 13.0816 22.47 12.4266 21.7225 12.5672C21.1619 12.6609 21.1619 13.2216 21.0681 13.6884L20.6006 16.4384L19.3006 23.4528C18.5069 21.7653 18.2256 20.0891 17.7588 18.4541C17.4788 17.4728 17.8056 15.7916 16.6375 15.6509C15.3763 15.5109 15.4225 17.1928 14.95 18.1272C14.2956 19.3422 14.1563 21.2572 11.96 19.7159C11.4463 19.3422 10.745 19.8097 10.3713 20.3703C9.99751 20.8841 10.0913 21.4453 10.465 21.9122C10.8856 22.4728 11.4463 22.6122 12.1 22.3797C13.7875 21.7722 15.8375 21.6797 16.2113 19.2028C17.0525 22.0059 17.6594 24.6691 18.3138 27.3791C18.4538 27.9397 18.4075 28.7809 19.2013 28.8272C20.1825 28.8272 20.0888 27.8928 20.1825 27.2384L21.7713 17.8947H22.2388L23.7338 23.6884C23.8738 24.2022 23.9675 24.9034 24.6213 24.9497C25.275 24.9959 25.2288 24.0622 25.6025 23.7809C26.5369 23.0809 25.0888 20.3234 27.7981 21.2184C27.845 21.2184 28.0781 20.8916 28.0781 20.7047C28.1719 19.5359 27.7513 18.5091 26.77 18.1422L26.775 18.1203Z" fill="#88888A"/>
</svg>
