<svg width="40" height="41" viewBox="0 0 40 41" fill="none" xmlns="http://www.w3.org/2000/svg">
<g clip-path="url(#clip0_83_2498)">
<path d="M19.9831 15.4029L15.8268 10.7041" stroke="#284A6A" stroke-width="0.26" stroke-miterlimit="10"/>
<path d="M6.875 11.7891L10.1281 16.5391" stroke="#284A6A" stroke-width="0.13" stroke-miterlimit="10"/>
<path d="M19.9831 15.4029L29.8331 16.5323M19.9831 15.4092L24.0944 10.6592L19.9831 15.4092ZM24.9531 20.6511L29.8325 16.5398L24.9531 20.6511ZM24.9531 20.6448L29.8325 24.9367L24.9531 20.6448ZM24.14 30.3592L19.9837 25.7511L24.14 30.3592ZM15.8275 30.3592L19.9837 25.7511L15.8275 30.3592ZM10.1337 24.7561L14.8325 20.6448L10.1337 24.7561ZM10.1344 16.5323L14.8331 20.6436L10.1344 16.5323ZM19.9831 15.4023L10.1331 16.5317L19.9831 15.4023Z" stroke="#284A6A" stroke-width="0.26" stroke-miterlimit="10"/>
<path d="M24.9531 20.6448L24.1406 30.3586M24.9531 20.6448L24.0938 10.6592L24.9531 20.6448Z" stroke="#284A6A" stroke-width="0.26" stroke-miterlimit="10"/>
<path d="M10.1337 24.7554L19.9837 25.7554M29.8325 24.9366L19.9825 25.7491L29.8325 24.9366Z" stroke="#284A6A" stroke-width="0.26" stroke-miterlimit="10"/>
<path d="M15.8268 10.7048L14.8268 20.6442M15.8268 30.3592L14.8268 20.6455L15.8268 30.3592Z" stroke="#284A6A" stroke-width="0.26" stroke-miterlimit="10"/>
<path d="M16.9112 5.19287L24.0937 10.6591M5.6156 17.7979L10.1344 16.5329L5.6156 17.7979ZM11.0825 7.31662L15.8325 10.7054L11.0825 7.31662ZM16.9112 5.19287L15.8269 10.7054L16.9112 5.19287Z" stroke="#284A6A" stroke-width="0.13" stroke-miterlimit="10"/>
<path d="M29.8325 16.5329L34.4406 17.7979M23.01 5.19287L24.0938 10.6591L23.01 5.19287ZM28.8388 7.31662L24.0888 10.6604L28.8388 7.31662ZM33.0856 11.7891L24.0938 10.6591L33.0856 11.7891ZM29.8325 16.5329L33.0856 11.7829L29.8325 16.5329Z" stroke="#284A6A" stroke-width="0.13" stroke-miterlimit="10"/>
<path d="M23.01 5.19287L15.8262 10.7054M29.8325 16.5329L34.3512 23.4004L29.8325 16.5329Z" stroke="#284A6A" stroke-width="0.13" stroke-miterlimit="10"/>
<path d="M29.8325 24.9365L34.3512 23.4003M29.8325 16.5328L28.8325 7.31592L29.8325 16.5328Z" stroke="#284A6A" stroke-width="0.13" stroke-miterlimit="10"/>
<path d="M24.14 30.3591L28.8387 33.7929M29.8325 24.9366L34.4406 17.7979L29.8325 24.9366ZM29.8325 24.9366L33.0856 29.3191L29.8325 24.9366ZM29.8325 24.9366L28.8325 33.7916L29.8325 24.9366Z" stroke="#284A6A" stroke-width="0.13" stroke-miterlimit="10"/>
<path d="M15.8268 30.3592L16.9112 35.9217M24.14 30.3592L33.0856 29.3198L24.14 30.3592ZM24.14 30.3592L23.0625 35.9092L24.14 30.3592ZM24.14 30.3592L16.9112 35.9092L24.14 30.3592Z" stroke="#284A6A" stroke-width="0.13" stroke-miterlimit="10"/>
<path d="M10.1338 24.7561L6.875 29.3642M15.8269 30.3592L23.0625 35.9092L15.8269 30.3592ZM15.8331 30.3592L11.0831 33.793L15.8331 30.3592ZM15.8331 30.3592L6.875 29.3642L15.8331 30.3592Z" stroke="#284A6A" stroke-width="0.13" stroke-miterlimit="10"/>
<path d="M10.1337 16.533L5.57123 23.3555M10.1337 24.7561L11.0825 33.7923L10.1337 24.7561ZM10.1337 24.7561L5.57123 23.3561L10.1337 24.7561Z" stroke="#284A6A" stroke-width="0.13" stroke-miterlimit="10"/>
<path d="M11.0825 7.31738L10.1337 16.5343M10.1337 24.7561L5.61499 17.7986L10.1337 24.7561Z" stroke="#284A6A" stroke-width="0.13" stroke-miterlimit="10"/>
<path d="M6.875 11.789L15.8206 10.7046" stroke="#284A6A" stroke-width="0.13" stroke-miterlimit="10"/>
<path d="M16.9113 5.19298L10.8125 3.52173M11.0825 7.31673L7.60376 5.69048L11.0825 7.31673ZM11.0825 7.31673L10.8125 3.52173L11.0825 7.31673Z" stroke="#24405D" stroke-width="0.101" stroke-miterlimit="10"/>
<path d="M23.01 5.19293L17.995 1.34668M16.9112 5.19293L14.2906 1.98543L16.9112 5.19293ZM16.9112 5.19293L17.995 1.34668L16.9112 5.19293ZM11.0825 7.31668L14.29 1.98543L11.0825 7.31668Z" stroke="#24405D" stroke-width="0.101" stroke-miterlimit="10"/>
<path d="M28.8387 7.31604L25.625 1.98541M23.01 5.19291L21.875 1.21729L23.01 5.19291ZM16.905 5.19229L21.875 1.21729L16.905 5.19229ZM23.01 5.19229L25.6306 1.98479L23.01 5.19229Z" stroke="#24405D" stroke-width="0.101" stroke-miterlimit="10"/>
<path d="M28.8388 7.31662L35.0281 8.26537M28.8388 7.31662L29.155 3.52162L28.8388 7.31662ZM23.01 5.19287L29.1538 3.521L23.01 5.19287ZM28.8388 7.31662L32.4013 5.50912L28.8388 7.31662Z" stroke="#24405D" stroke-width="0.101" stroke-miterlimit="10"/>
<path d="M33.0856 11.7893L38.6481 14.9518M33.0856 11.7893L35.0281 8.26553L33.0856 11.7893ZM33.0856 11.7893L32.4075 5.50928L33.0856 11.7893ZM33.0856 11.7893L37.1518 11.473L33.0856 11.7893Z" stroke="#24405D" stroke-width="0.101" stroke-miterlimit="10"/>
<path d="M34.35 23.4004L39.1394 18.7467M34.4406 17.7979L37.1512 11.4729L34.4406 17.7979ZM34.4406 17.7979L38.6425 14.9517L34.4406 17.7979ZM34.4406 17.7979L39.1394 18.7467L34.4406 17.7979Z" stroke="#24405D" stroke-width="0.101" stroke-miterlimit="10"/>
<path d="M33.0856 29.3191L38.5524 26.2016M34.3499 23.4004L39.2749 22.4966L34.3499 23.4004ZM34.4406 17.7979L39.2749 22.4966L34.4406 17.7979ZM34.3499 23.4004L38.5518 26.2016L34.3499 23.4004Z" stroke="#24405D" stroke-width="0.101" stroke-miterlimit="10"/>
<path d="M33.0918 29.3191L32.3687 35.5541M33.0856 29.3191L37.1068 29.7254L33.0856 29.3191ZM34.3568 23.4004L37.1068 29.7254L34.3568 23.4004ZM33.0918 29.3191L34.9893 32.8816L33.0918 29.3191Z" stroke="#24405D" stroke-width="0.101" stroke-miterlimit="10"/>
<path d="M28.8387 33.7917L25.625 39.2136M32.3625 35.5542L28.8387 33.7917L32.3625 35.5542ZM28.8387 33.7917L29.11 37.7292L28.8387 33.7917ZM28.8387 33.7917L34.9825 32.8879L28.8387 33.7917Z" stroke="#24405D" stroke-width="0.101" stroke-miterlimit="10"/>
<path d="M23.0625 35.9092L18.0025 39.9754M23.0625 35.9092L25.625 39.2073L23.0625 35.9092ZM23.0625 35.9092L29.1169 37.7167L23.0625 35.9092ZM23.0625 35.9092L21.875 39.9754L23.0625 35.9092Z" stroke="#24405D" stroke-width="0.101" stroke-miterlimit="10"/>
<path d="M11.0825 33.7917L14.3356 39.2136M16.9112 35.9092L17.9956 39.9755L16.9112 35.9092ZM16.9112 35.9092L21.875 39.9755L16.9112 35.9092ZM16.9112 35.9092L14.3362 39.2074L16.9112 35.9092Z" stroke="#24405D" stroke-width="0.101" stroke-miterlimit="10"/>
<path d="M6.875 29.3643L7.5525 35.7349M16.9113 35.9093L10.7675 37.8068L16.9113 35.9093ZM11.0825 33.7918L10.7663 37.813L11.0825 33.7918ZM11.0825 33.7918L7.55875 35.7343L11.0825 33.7918Z" stroke="#24405D" stroke-width="0.101" stroke-miterlimit="10"/>
<path d="M5.5706 23.3553L0.691223 22.4966M11.0825 33.7916L4.89372 32.9341L11.0825 33.7916ZM6.87497 29.3641L4.88747 32.9266L6.87497 29.3641ZM6.87497 29.3641L2.80872 29.7703L6.87497 29.3641ZM6.87497 29.3641L1.27872 26.2466L6.87497 29.3641ZM5.5706 23.3553L1.27872 26.2466L5.5706 23.3553Z" stroke="#24405D" stroke-width="0.101" stroke-miterlimit="10"/>
<path d="M5.61561 17.7979L0.690613 22.4966M5.57061 23.3554L2.82061 29.771L5.57061 23.3554Z" stroke="#24405D" stroke-width="0.101" stroke-miterlimit="10"/>
<path d="M5.61622 17.7978L1.41435 14.9966M5.5706 23.3553L0.691223 18.7466L5.5706 23.3553Z" stroke="#24405D" stroke-width="0.101" stroke-miterlimit="10"/>
<path d="M5.61561 17.7979L2.81436 11.4729M5.61561 17.7979L0.690613 18.7467L5.61561 17.7979Z" stroke="#24405D" stroke-width="0.101" stroke-miterlimit="10"/>
<path d="M6.87499 11.7892L7.59812 5.68921M6.87499 11.7892L2.80874 11.473L6.87499 11.7892ZM6.87499 11.7892L1.41437 14.9967L6.87499 11.7892ZM6.87499 11.7892L4.93749 8.44671L6.87499 11.7892Z" stroke="#24405D" stroke-width="0.101" stroke-miterlimit="10"/>
<path d="M11.0825 7.31665L4.9375 8.44665" stroke="#24405D" stroke-width="0.101" stroke-miterlimit="10"/>
<path d="M12.4138 22.9935L12.4469 18.2435L17.2 18.2766L17.1669 23.0266L12.4138 22.9935ZM17.5563 17.761L17.5894 13.011L22.3425 13.0441L22.3094 17.7941L17.5563 17.761ZM17.555 28.1797L17.5881 23.4297L22.3413 23.4629L22.3081 28.2129L17.555 28.1797ZM22.7425 22.9485L22.7756 18.1985L27.5288 18.2316L27.4956 22.9816L22.7425 22.9485Z" fill="#256EA5"/>
<path d="M22.4687 12.3117L22.4919 9.01356L25.8044 9.03669L25.7812 12.3348L22.4687 12.3117ZM14.1875 12.3111L14.2106 9.01294L17.5231 9.03606L17.5 12.3342L14.1875 12.3111ZM8.45498 18.1861L8.47811 14.8879L11.7906 14.9111L11.7675 18.2092L8.45498 18.1861ZM8.45123 26.4717L8.48561 23.1736L11.7969 23.2079L11.7625 26.5061L8.45123 26.4717ZM28.2 26.4092L28.2231 23.1111L31.5356 23.1342L31.5125 26.4323L28.2 26.4092ZM28.2669 18.2092L28.3012 14.9111L31.6125 14.9454L31.5781 18.2436L28.2669 18.2092Z" fill="#3378BC"/>
<path d="M5.77065 12.8655L5.78565 10.6967L7.95003 10.7117L7.93503 12.8805L5.77065 12.8655ZM10.0019 8.45171L10.0169 6.28296L12.1813 6.29796L12.1663 8.46671L10.0019 8.45171ZM15.8269 6.26858L15.8419 4.09983L18.0063 4.11483L17.9913 6.28358L15.8269 6.26858ZM4.49628 18.8717L4.51128 16.703L6.66128 16.718L6.64628 18.8867L4.49628 18.8717ZM31.9919 10.7267L34.1607 10.7117L34.1757 12.8761L32.0069 12.8911L31.9919 10.7267ZM27.7588 6.23921L29.9275 6.22421L29.9425 8.38858L27.7738 8.40358L27.7588 6.23921ZM21.915 4.11046L24.0838 4.09546L24.0988 6.25983L21.93 6.27483L21.915 4.11046ZM33.2525 16.7267L35.4213 16.7117L35.4363 18.8761L33.2675 18.8911L33.2525 16.7267Z" fill="#169BD6"/>
<path d="M14.1418 32.0967L14.165 28.7986L17.4775 28.8217L17.4543 32.1198L14.1418 32.0967ZM22.4231 32.0967L22.4462 28.7986L25.7587 28.8217L25.7356 32.1198L22.4231 32.0967Z" fill="#3378BC"/>
<path d="M31.9775 30.4279L31.9925 28.2591L34.1569 28.2741L34.1419 30.4429L31.9775 30.4279ZM27.7913 34.8866L27.8063 32.7179L29.9706 32.7329L29.9556 34.9016L27.7913 34.8866ZM21.9663 37.0241L21.9813 34.8554L24.1456 34.8704L24.1306 37.0391L21.9663 37.0241ZM33.2513 24.4216L33.2663 22.2529L35.4306 22.2679L35.4156 24.4366L33.2513 24.4216ZM5.77501 28.2591L7.94376 28.2441L7.95876 30.4085L5.79001 30.4235L5.77501 28.2591ZM10.0075 32.7016L12.1763 32.6866L12.1913 34.851L10.0225 34.866L10.0075 32.7016ZM15.805 34.8298L17.9738 34.8148L17.9888 36.9791L15.82 36.9941L15.805 34.8298ZM4.51251 22.2591L6.68126 22.2441L6.69626 24.4085L4.52751 24.4235L4.51251 22.2591Z" fill="#169BD6"/>
<path d="M36.5275 12.0541L36.5357 10.8792L37.7332 10.8873L37.725 12.0623L36.5275 12.0541Z" fill="#00A8DA"/>
<path d="M38.0738 15.603L38.0819 14.428L39.2794 14.4361L39.2713 15.6111L38.0738 15.603Z" fill="#00A8DA"/>
<path d="M34.4351 8.91426L34.4432 7.73926L35.6407 7.74738L35.6326 8.92238L34.4351 8.91426Z" fill="#00A8DA"/>
<path d="M7 6.22969L7.00813 5.05469L8.20562 5.06281L8.1975 6.23781L7 6.22969Z" fill="#00A8DA"/>
<path d="M0.129395 19.3322L0.13752 18.1572L1.33502 18.1654L1.32689 19.3404L0.129395 19.3322Z" fill="#00A8DA"/>
<path d="M31.7963 6.23042L31.8044 5.05542L33.0019 5.06354L32.9938 6.23854L31.7963 6.23042Z" fill="#00A8DA"/>
<path d="M0.8125 15.6018L0.820625 14.4268L2.01813 14.4349L2.01 15.6099L0.8125 15.6018Z" fill="#00A8DA"/>
<path d="M13.7325 2.59053L13.7407 1.41553L14.9382 1.42365L14.93 2.59865L13.7325 2.59053Z" fill="#00A8DA"/>
<path d="M2.26752 12.0529L2.27564 10.8779L3.47314 10.8861L3.46502 12.0611L2.26752 12.0529Z" fill="#00A8DA"/>
<path d="M4.40625 8.86909L4.41438 7.69409L5.61188 7.70222L5.60375 8.87722L4.40625 8.86909Z" fill="#00A8DA"/>
<path d="M10.2063 2.92799L11.3813 2.91986L11.3894 4.11736L10.2144 4.12549L10.2063 2.92799ZM17.4638 0.617988L18.6388 0.609863L18.6469 1.80736L17.4719 1.81549L17.4638 0.617988Z" fill="#00A8DA"/>
<path d="M28.6107 4.1374L28.6188 2.9624L29.8163 2.97053L29.8082 4.14553L28.6107 4.1374Z" fill="#00A8DA"/>
<path d="M38.6663 19.288L38.6744 18.113L39.8719 18.1212L39.8638 19.2962L38.6663 19.288Z" fill="#00A8DA"/>
<path d="M21.2856 1.77168L21.2938 0.59668L22.4913 0.604805L22.4831 1.7798L21.2856 1.77168Z" fill="#00A8DA"/>
<path d="M25.0169 2.54487L25.025 1.36987L26.2225 1.378L26.2144 2.553L25.0169 2.54487Z" fill="#00A8DA"/>
<path d="M31.795 36.1674L31.8032 34.9924L33.0007 35.0006L32.9925 36.1756L31.795 36.1674Z" fill="#00A8DA"/>
<path d="M38.6663 23.0642L38.6744 21.8892L39.8719 21.8973L39.8638 23.0723L38.6663 23.0642Z" fill="#00A8DA"/>
<path d="M6.99878 36.1667L7.0069 34.9917L8.2044 34.9998L8.19628 36.1748L6.99878 36.1667Z" fill="#00A8DA"/>
<path d="M38.0738 26.8466L38.0819 25.6716L39.2794 25.6798L39.2713 26.8548L38.0738 26.8466Z" fill="#00A8DA"/>
<path d="M25.0156 39.853L25.0238 38.678L26.2212 38.6861L26.2131 39.8611L25.0156 39.853Z" fill="#00A8DA"/>
<path d="M36.5269 30.3891L36.535 29.2141L37.7325 29.2222L37.7244 30.3972L36.5269 30.3891Z" fill="#00A8DA"/>
<path d="M34.4344 33.5742L34.4425 32.3992L35.64 32.4073L35.6319 33.5823L34.4344 33.5742Z" fill="#00A8DA"/>
<path d="M28.5625 37.1805L29.7375 37.1724L29.7456 38.3699L28.5706 38.378L28.5625 37.1805ZM21.3488 39.3992L22.5238 39.3911L22.5319 40.5886L21.3569 40.5967L21.3488 39.3992Z" fill="#00A8DA"/>
<path d="M10.2294 38.3967L10.2376 37.2217L11.4351 37.2298L11.4269 38.4048L10.2294 38.3967Z" fill="#00A8DA"/>
<path d="M2.22186 30.343L2.22999 29.168L3.42749 29.1761L3.41936 30.3511L2.22186 30.343Z" fill="#00A8DA"/>
<path d="M0.811279 26.8403L0.819405 25.6653L2.0169 25.6734L2.00878 26.8484L0.811279 26.8403Z" fill="#00A8DA"/>
<path d="M4.35938 33.5729L4.3675 32.3979L5.565 32.4061L5.55688 33.5811L4.35938 33.5729Z" fill="#00A8DA"/>
<path d="M0.129395 23.0637L0.13752 21.8887L1.33502 21.8968L1.32689 23.0718L0.129395 23.0637Z" fill="#00A8DA"/>
<path d="M17.5088 40.5805L17.5169 39.4055L18.7144 39.4136L18.7063 40.5886L17.5088 40.5805Z" fill="#00A8DA"/>
<path d="M13.6875 39.8066L13.6956 38.6316L14.8931 38.6397L14.885 39.8147L13.6875 39.8066Z" fill="#00A8DA"/>
</g>
<defs>
<clipPath id="clip0_83_2498">
<rect width="40" height="40" fill="white" transform="translate(0 0.59668)"/>
</clipPath>
</defs>
</svg>
