<svg width="41" height="33" viewBox="0 0 41 33" fill="none" xmlns="http://www.w3.org/2000/svg">
<g clip-path="url(#clip0)">
<path d="M9.29004 28.873L6.71191 -0.0644531H35.0557L32.4775 28.8574L20.8604 32.0761" fill="#E44D26"/>
<path d="M20.8838 29.6152V2.31055H32.4697L30.2588 26.998" fill="#F16529"/>
<path d="M11.9775 5.84961H20.8838V9.39648H15.8682L16.1963 13.0293H20.8838V16.5684H12.9463L11.9775 5.84961ZM13.1025 18.3496H16.665L16.915 21.1855L20.8838 22.248V25.9512L13.6025 23.9199" fill="#EBEBEB"/>
<path d="M29.7588 5.84961H20.8682V9.39648H29.4307L29.7588 5.84961ZM29.1104 13.0293H20.8682V16.5762H25.2432L24.8291 21.1855L20.8682 22.248V25.9355L28.1338 23.9199" fill="white"/>
</g>
<defs>
<clipPath id="clip0">
<rect width="40" height="32" fill="white" transform="translate(0.883789 0.0761719)"/>
</clipPath>
</defs>
</svg>
