<svg width="62" height="21" viewBox="0 0 62 21" fill="none" xmlns="http://www.w3.org/2000/svg">
<path d="M34.6999 14.6252H31.9725V14.8425H30.6867V4.467H34.6999V0.909668C35.8818 1.06779 36.4467 1.30494 36.3948 1.62113C36.3818 1.7529 36.2519 1.86489 36.0052 1.9571V4.467H40.0768V15.0006H38.7715V14.6252H36.0052V19.6252H34.6999V14.6252ZM31.9725 8.87414H34.6999V5.77135H31.9725V8.87414ZM36.0052 8.87414H38.7715V5.77135H36.0052V8.87414ZM38.7715 10.1983H36.0052V13.301H38.7715V10.1983ZM34.6999 10.1983H31.9725V13.301H34.6999V10.1983ZM27.3359 9.76347C28.3489 10.6067 29.1801 11.6937 29.8295 13.0244L28.758 13.8346C28.3294 12.8333 27.7385 11.9637 26.9852 11.2259V19.6252H25.6994V11.8386C24.9461 12.6027 24.0889 13.2747 23.1278 13.8544L22.0758 12.9255C24.7643 11.5026 26.8293 8.87414 28.271 5.04012H23.5759V3.71601H25.7384V0.909668C26.8813 1.06779 27.4398 1.29836 27.4138 1.60137C27.4008 1.74632 27.2709 1.86489 27.0241 1.9571V3.71601H29.1282L29.7711 4.6251C29.1087 6.61458 28.297 8.32737 27.3359 9.76347ZM54.8048 7.51049V0.909668C55.9607 1.06779 56.5192 1.29836 56.4803 1.60137C56.4673 1.71996 56.3764 1.81878 56.2075 1.89781C56.2075 1.89783 56.2075 1.89783 56.2075 1.89781L56.0906 1.9571V7.51049H60.0259V8.81485H56.0906V17.5501H61V18.8742H49.876V17.5501H54.8048V8.81485H50.7527V7.51049H54.8048ZM48.337 9.74371C49.5968 10.6001 50.6163 11.6805 51.3956 12.9848L50.4215 13.8939C49.7072 12.6555 48.85 11.6937 47.8499 11.0085V19.6252H46.5642V11.5817C45.4732 12.5303 44.2913 13.301 43.0185 13.8939L42.0639 12.886C45.4147 11.4631 47.9863 8.84779 49.7786 5.04012H43.7588V3.71601H46.6226V0.909668C47.7655 1.06779 48.324 1.29836 48.298 1.60137C48.285 1.74632 48.1551 1.86489 47.9084 1.9571V3.71601H50.7527L51.3371 4.6251C50.5059 6.61458 49.5059 8.32078 48.337 9.74371Z" fill="#F4F4F4" stroke="#E7E7E7" stroke-width="0.8" stroke-linejoin="round"/>
<path d="M31.0259 4.86063C30.9876 5.61807 30.9575 6.45772 30.9356 7.37959C30.9192 8.30147 30.8525 12.3065 30.8525 13.4127C30.8525 14.215 30.7787 14.8778 30.631 15.401C30.4833 15.9242 30.2509 16.3652 29.9337 16.724C29.6219 17.0828 29.2199 17.3494 28.7276 17.5238C28.2354 17.6982 27.6447 17.7854 26.9555 17.7854C26.425 17.7854 25.9492 17.7331 25.528 17.6284L25.6511 16.5371C26.0394 16.7016 26.4442 16.7838 26.8653 16.7838C27.3357 16.7838 27.7459 16.724 28.0959 16.6044C28.4514 16.4798 28.7331 16.288 28.941 16.0289C29.1543 15.7697 29.3047 15.4508 29.3922 15.0721C29.4852 14.6934 29.5316 14.1976 29.5317 13.5847C29.5316 11.3223 29.5491 6.42035 29.4671 4.86063H31.0259ZM34.9311 14.5926H33.4461C33.5227 13.596 33.561 12.4574 33.561 11.1767C33.561 9.73661 33.4653 8.5282 33.2738 7.55151L34.9147 7.34969C34.849 8.39117 34.8162 9.66685 34.8162 11.1767C34.8162 12.3727 34.8545 13.5113 34.9311 14.5926ZM35.2757 5.24931C35.2756 5.50346 35.1854 5.72521 35.0049 5.91455C34.8244 6.09894 34.5701 6.19113 34.2419 6.19112C33.963 6.19113 33.7442 6.1114 33.5856 5.95193C33.4324 5.78749 33.3559 5.59066 33.3559 5.36143C33.3559 5.11228 33.4489 4.89552 33.6348 4.71113C33.8208 4.52677 34.0778 4.43458 34.406 4.43457C34.674 4.43458 34.8846 4.5168 35.0377 4.68123C35.1963 4.8407 35.2756 5.03006 35.2757 5.24931ZM44.0705 14.5926H42.5773C42.6977 13.2821 42.7578 11.8519 42.7578 10.3022C42.7578 9.53479 42.5855 9.01157 42.241 8.73251C41.9019 8.44847 41.4151 8.30646 40.7806 8.30645C40.004 8.30646 39.2875 8.56309 38.6311 9.07634C38.6311 10.7756 38.6421 12.6144 38.664 14.5926H37.1708C37.2638 12.8984 37.3103 11.6725 37.3103 10.9151C37.3103 9.74907 37.1899 8.6179 36.9493 7.52161L38.3932 7.33474L38.5491 8.24665H38.6147C39.4242 7.57892 40.2911 7.24505 41.2155 7.24505C42.1234 7.24505 42.8262 7.42943 43.3239 7.79817C43.8216 8.16195 44.0705 8.81224 44.0705 9.74906C44.0705 9.84374 44.065 10.0306 44.0541 10.3097C44.0432 10.5887 44.0377 10.7756 44.0377 10.8703C44.0377 11.7024 44.0486 12.9432 44.0705 14.5926ZM47.6885 7.33474C47.5956 8.87951 47.5491 10.4293 47.5491 11.984C47.5491 12.3976 47.5627 12.9457 47.5901 13.6284C47.6229 14.3061 47.6393 14.7671 47.6393 15.0112C47.6393 16.6208 46.9666 17.5975 45.6211 17.9413L45.2109 17.3732C45.6977 16.9995 45.9985 16.6008 46.1133 16.1773C46.2829 15.5693 46.3677 14.2737 46.3677 12.2904C46.3677 10.1627 46.2583 8.57305 46.0395 7.52161L47.6885 7.33474ZM48.0413 5.24931C48.0413 5.50346 47.9511 5.72521 47.7706 5.91455C47.5901 6.09894 47.3358 6.19113 47.0076 6.19112C46.7287 6.19113 46.5099 6.1114 46.3513 5.95193C46.1981 5.78749 46.1215 5.59066 46.1215 5.36143C46.1215 5.11228 46.2145 4.89552 46.4005 4.71113C46.5865 4.52677 46.8435 4.43458 47.1717 4.43457C47.4397 4.43458 47.6503 4.5168 47.8034 4.68123C47.962 4.8407 48.0413 5.03006 48.0413 5.24931ZM56.0486 14.5926L54.7605 14.6375C54.6949 14.3933 54.6621 14.1616 54.6621 13.9424H54.58C53.9073 14.5005 52.9912 14.7795 51.8317 14.7795C51.2027 14.7795 50.6612 14.6126 50.2072 14.2787C49.7533 13.9399 49.5263 13.459 49.5263 12.8361C49.5263 12.0687 49.8818 11.4533 50.5928 10.9899C51.3038 10.5214 52.6247 10.2748 54.5554 10.2499C54.5718 10.1303 54.58 9.99324 54.58 9.83876C54.58 9.22584 54.3996 8.81723 54.0386 8.61291C53.6831 8.40861 53.1416 8.30646 52.4141 8.30645C51.5554 8.30646 50.7104 8.40363 49.8791 8.59796L50.0185 7.56646C50.8389 7.35219 51.7824 7.24505 52.849 7.24505C53.8225 7.24505 54.5746 7.42943 55.1051 7.79817C55.6356 8.16195 55.9009 8.78484 55.9009 9.66684C55.9009 9.90105 55.8872 10.3271 55.8599 10.945C55.838 11.5579 55.8271 11.9666 55.8271 12.1709C55.8271 13.0778 55.9009 13.885 56.0486 14.5926ZM54.5965 13.1426C54.5691 12.3851 54.5554 11.7049 54.5554 11.102C53.5272 11.102 52.745 11.1717 52.209 11.3113C51.3121 11.5604 50.8636 12.0363 50.8636 12.7389C50.8636 13.4166 51.3886 13.7555 52.4388 13.7555C53.3412 13.7555 54.0604 13.5512 54.5965 13.1426Z" fill="#B41717" stroke="#7F2828" stroke-width="0.2"/>
<path fill-rule="evenodd" clip-rule="evenodd" d="M21.128 0.53418C21.128 0.53418 17.2213 2.4015 14.0408 2.81368C10.8602 3.22587 4.79486 3.63824 3.59081 3.34728C2.38676 3.05632 1.52245 2.71656 1.52245 2.71656L1.77296 3.56552L1 4.24422L1.13703 4.48646L1.455 4.51045L2.43137 4.63157L2.5684 5.06804L3.11333 5.11718L3.38633 6.03812C3.38633 6.03812 4.54437 6.13524 4.88514 6.13524C5.22591 6.13524 5.90755 6.08725 5.90755 6.08725L5.93003 6.4506L6.18054 6.49859V6.91107L5.63455 7.39668L5.77158 7.42067V7.58978C5.77158 7.58978 4.54453 7.68765 4.04473 7.61492C3.54494 7.54218 3.45377 7.54179 3.45377 7.54179L3.40881 7.58978L3.38633 7.80802H3.49981L3.54477 8.7541L6.06706 8.65697L5.88506 11.9305L5.86258 12.3419L3.72677 12.2208L3.70429 11.3478H4.1807L4.22673 11.0085L4.65818 10.9113L4.72669 10.8154L3.11333 10.4269L1.88644 10.7902L2.09092 10.9605H2.2954L2.31789 11.2518L2.74933 11.2758V12.1248L2.27292 12.2459L2.36392 12.439L2.4774 12.5121V13.1668H2.77288V16.197L2.2954 16.2702L2.36392 17.1431L2.65833 17.1922L2.61337 19.1804L3.90877 19.2044L3.63577 17.2402L5.58958 17.1922L5.45362 18.2583L5.27162 19.0101L7.24791 19.0341L7.2704 17.0951L8.63325 16.974L8.5658 18.2103L8.51976 18.937H9.6792L9.63317 16.9489L9.79268 16.974L9.83765 16.0279H9.65565L9.5882 15.6394L9.47472 14.5243L9.51969 13.24H9.76913V12.4641L9.45117 12.4881L9.4972 11.5729L9.86656 11.5363L9.88368 11.2393L10.0935 11.2084L10.3087 11.045L9.01437 10.7788L7.73075 11.0633L7.856 11.269L7.99197 11.2575L8.15041 11.2518L8.17932 11.6266L8.53689 11.6095L8.54332 12.4207L7.00382 12.3853L7.05521 11.5181L7.10553 10.7297V9.69332L7.15156 8.60213L10.2348 8.44445L13.9037 8.23307L13.938 8.93006L13.8074 10.6028L13.7506 12.1602L12.3995 12.1362L12.3931 11.045L12.8931 11.0267L12.9156 10.7182L13.1201 10.6874L13.1093 10.6268L13.3138 10.6154L13.4273 10.4634L11.8996 10.1058L10.3772 10.4326L10.4854 10.6211L10.6556 10.6085V10.6942H10.8654V11.0393L11.314 11.045L11.3086 12.0025H10.8547L10.8483 12.2208L11.0078 12.239L10.9907 13.0697L11.3258 13.088L11.2861 16.3799L10.8429 16.4701L10.8483 16.6278H11.0024V17.471H11.2572L11.1898 18.6228L11.1041 19.6283L12.7175 19.6706L12.6661 18.7976L12.5473 18.0709L12.5237 17.4402L13.893 17.4162L13.8534 18.392L13.847 19.4226L14.6199 19.4832L15.6702 19.4409L15.9999 19.3438L15.8179 18.7919L15.773 17.9247L15.6873 17.3065L16.9934 17.2585L16.9367 18.0161L16.9313 19.2044L17.4538 19.2524L17.9709 19.2409L18.2203 19.1621L18.0726 18.0344L18.0222 17.1854L18.2439 17.1614L18.2492 16.4039L18.3113 16.3913L18.3006 16.2279H18.0447L17.9933 15.6703L17.9709 13.2514L18.1636 13.2457V12.4516L18.2439 12.4641V12.3065L17.9591 12.2813L17.9655 11.3604L18.4419 11.3181L18.4141 11.0085L18.6239 10.9902L18.6121 10.9296L18.8905 10.7902L17.4762 10.5057L16.0395 10.7971L16.1305 10.9662L16.3521 10.9479L16.3639 11.021H16.5513L16.562 11.3844L17.0277 11.3787L17.0673 12.2699L15.4207 12.2573L15.228 10.9182L15.0739 10.2086L14.9497 8.93577L15.0235 8.19079L18.3059 7.9417L18.3167 6.83223L18.4815 6.78996L18.4708 6.62085L18.3456 6.54772C18.3455 6.54772 16.5507 6.81389 15.9828 6.87451C15.8228 6.89158 15.8349 6.89046 15.7044 6.90422L15.6873 6.69855L15.0086 6.34319L15.0171 5.92957L15.2505 5.92272L15.2676 5.3537C15.2676 5.3537 16.6586 5.2624 17.1754 5.14117C17.6922 5.01994 18.4248 4.89894 18.4248 4.89894L18.7716 3.95972L19.459 3.75976L19.5157 3.60208L21.0713 3.17132L21.2479 3.02621L20.6569 1.73506L20.7137 1.4437L21.0145 1.28602L21.2308 0.625587L21.128 0.53418ZM13.6543 5.45653L13.6457 5.92614L13.9979 5.941L13.9754 6.38661L13.2849 6.83909L13.2421 6.96934L13.5204 6.97163L13.5183 7.08132L11.4082 7.18415L11.4221 6.87222L11.5185 6.71683L11.5249 6.61742L11.527 6.40261L11.587 6.25978L11.6095 6.14438V6.06211L11.7005 5.69876L13.6543 5.45653ZM9.24134 5.85644L9.18995 6.1718L9.35482 6.36605L9.34411 6.7054L9.4972 6.94192L9.45759 7.22072L9.57107 7.38411L7.41814 7.46866L7.41278 7.39668L7.66223 7.36583L7.674 7.27442L7.12908 6.97848L7.10017 6.50544L7.36139 6.49288L7.38388 5.98327L9.24134 5.85644ZM12.4274 13.1303L13.7335 13.2148L13.6885 14.9733L13.8588 16.4153L12.4734 16.3673L12.4274 13.1303ZM3.68074 13.2034L5.77158 13.312L5.58958 14.5243V15.5435L5.73732 16.1125L3.69251 16.2096L3.68074 13.2034ZM17.0619 13.2148V16.2222L15.7333 16.3193L15.6873 14.7311L15.5396 13.2514L17.0619 13.2148ZM6.99847 13.2822L8.54332 13.288L8.55937 16.0759L7.1173 16.1011L7.04343 15.1973L7.03808 14.3003L6.99847 13.2822Z" fill="url(#paint0_radial_81_5626)" stroke="#323232" stroke-width="0.2"/>
<defs>
<radialGradient id="paint0_radial_81_5626" cx="0" cy="0" r="1" gradientUnits="userSpaceOnUse" gradientTransform="translate(11.124 10.1024) scale(10.124 9.56819)">
<stop stop-color="#575757"/>
<stop offset="1" stop-color="#2F2F2F"/>
</radialGradient>
</defs>
</svg>
