<svg width="41" height="41" viewBox="0 0 41 41" fill="none" xmlns="http://www.w3.org/2000/svg">
<path d="M33.4949 25.8756C33.4811 32.6771 28.5399 38.1679 22.0115 38.9129C13.9097 39.8373 6.93964 33.16 7.57454 25.0617C7.74016 22.8957 8.45787 20.9091 9.58964 19.0466C9.81048 18.6879 9.9485 18.6465 10.3212 18.8672C13.4404 20.7159 16.5873 22.5094 19.7066 24.3719C20.2863 24.7168 20.7279 24.7444 21.3076 24.3857C24.3993 22.537 27.5324 20.7435 30.6378 18.9086C31.0243 18.6741 31.2451 18.6465 31.4936 19.088C32.8048 21.2678 33.5501 23.5993 33.4949 25.8756Z" fill="#00A2FE"/>
<path d="M29.3957 15.8046C27.2288 12.4522 25.0894 9.08593 22.9363 5.71969C22.1634 4.50563 21.3767 3.29158 20.5762 2.03613C20.4657 2.1603 20.3967 2.21548 20.3553 2.28446C17.4569 6.80958 14.5722 11.3347 11.66 15.846C11.384 16.2875 11.5358 16.4116 11.8808 16.6186C14.6274 18.2051 17.3603 19.7917 20.0931 21.392C20.4105 21.5714 20.659 21.599 20.9764 21.4058C23.7092 19.8055 26.4558 18.2189 29.2025 16.6462C29.6027 16.3978 29.6579 16.2185 29.3957 15.8046ZM26.1798 16.0667C24.4683 17.0463 22.7569 18.0396 21.0592 19.0467C20.6728 19.2812 20.3967 19.2812 20.0103 19.0467C18.2436 17.9844 16.4493 16.9497 14.6551 15.9426C14.241 15.708 14.2134 15.5425 14.4618 15.1562C16.4217 12.1349 18.354 9.09972 20.2863 6.06459C20.3415 5.96801 20.4243 5.89903 20.5485 5.74728C21.2939 6.89235 21.9978 7.98224 22.7017 9.07213C23.9577 11.0174 25.1999 12.9626 26.4558 14.9217C26.9527 15.6529 26.9389 15.6391 26.1798 16.0667Z" fill="#00A2FE"/>
</svg>
