<svg width="56" height="26" viewBox="0 0 56 26" fill="none" xmlns="http://www.w3.org/2000/svg">
<g clip-path="url(#clip0_177_9638)">
<path d="M3.62915 5.47754H4.38942C4.89627 5.47754 5.30175 5.78148 5.4538 6.26272L8.39353 15.0769L11.3586 6.26272C11.5107 5.78148 11.9415 5.47754 12.423 5.47754H13.1326C13.7154 5.47754 14.1969 5.90812 14.2476 6.46534C15.2867 14.545 17.1367 24.9803 28.4648 24.2204C29.4784 24.1445 30.4161 23.9672 31.3031 23.7139C18.4291 28.6529 14.3997 19.5854 12.423 10.5179L9.76202 18.4203C9.60996 18.9015 9.17915 19.2055 8.69764 19.2055H8.01339C7.50654 19.2055 7.10107 18.9015 6.94901 18.4203L4.31339 10.5179L2.97025 18.2683C2.86888 18.8255 2.41271 19.2055 1.85518 19.2055H1.60175C1.24696 19.2055 0.968195 19.0788 0.740113 18.8002C0.512031 18.5469 0.436003 18.2176 0.486688 17.8884L2.4634 6.41469C2.59011 5.88279 3.07162 5.47754 3.62915 5.47754Z" fill="#666666"/>
<path d="M20.0254 1.70361C28.9966 -2.34891 36.3966 1.85558 39.6404 9.47939L41.6425 5.62949C41.8452 5.24957 42.2254 5.02162 42.6562 5.02162H42.9096C43.3151 5.02162 43.6699 5.22425 43.8726 5.55351C44.0754 5.90811 44.1007 6.31336 43.9233 6.66795L40.7555 12.7974V17.6098C40.7555 18.243 40.2487 18.7495 39.6151 18.7495H39.235C38.6014 18.7495 38.0946 18.243 38.0946 17.6098V12.7974C37.0809 7.95969 33.9891 1.14639 22.8891 1.19705C21.8754 1.19705 20.9124 1.45033 20.0254 1.70361Z" fill="#666666"/>
<path d="M44.8617 18.5721H45.1405C45.622 18.5721 46.0528 18.2682 46.2049 17.8123L49.398 8.79539L50.8172 12.7466H48.9672L48.2829 14.7729H51.5521L52.6419 17.8123C52.8193 18.2682 53.2247 18.5721 53.7063 18.5721H53.985C54.3652 18.5721 54.6946 18.3948 54.9227 18.0909C55.1508 17.7869 55.2015 17.407 55.0494 17.0524L50.8932 5.5787C50.7158 5.12279 50.3104 4.81885 49.8288 4.81885H48.8912C48.4097 4.81885 47.9788 5.12279 47.8268 5.5787L43.772 17.0524C43.6453 17.407 43.696 17.7869 43.924 18.0909C44.1521 18.4201 44.4816 18.5721 44.8617 18.5721Z" fill="#666666"/>
<path d="M26.2849 4.86963C28.8951 4.86963 31.2266 6.13604 32.6458 8.11164C31.6575 7.37712 30.441 6.94655 29.1232 6.94655C25.8541 6.94655 23.2184 9.58069 23.2184 12.848C23.2184 16.1154 25.8541 18.7495 29.1232 18.7495C30.2383 18.7495 31.3027 18.4456 32.1897 17.8884C30.7451 19.5347 28.6417 20.5478 26.2849 20.5478C21.9513 20.5478 18.4287 17.0272 18.4287 12.6961C18.4287 8.36493 21.9513 4.86963 26.2849 4.86963Z" fill="#37C8AB"/>
<path d="M29.1232 7.17432C32.2403 7.17432 34.7999 9.70714 34.7999 12.8479C34.7999 15.9886 32.2657 18.5214 29.1232 18.5214C27.552 18.5214 26.1074 17.8882 25.0938 16.8497C25.7273 17.2043 26.4622 17.3816 27.2225 17.3816C29.7061 17.3816 31.7335 15.3554 31.7335 12.8732C31.7335 10.391 29.7061 8.36474 27.2225 8.36474C26.4369 8.36474 25.7273 8.56737 25.0938 8.89664C26.1328 7.83285 27.552 7.17432 29.1232 7.17432Z" fill="#37C8AB"/>
<path d="M26.995 9.27686C28.2115 9.27686 29.2758 9.8594 29.9347 10.7712C29.4786 10.442 28.921 10.2393 28.2875 10.2393C26.7669 10.2393 25.5505 11.4551 25.5505 12.9748C25.5505 14.4945 26.7669 15.7102 28.2875 15.7102C28.8197 15.7102 29.3012 15.5583 29.7067 15.305C29.0478 16.0648 28.0594 16.5461 26.9697 16.5461C24.9676 16.5461 23.3457 14.9251 23.3457 12.9241C23.3457 10.8979 24.9676 9.27686 26.995 9.27686Z" fill="#37C8AB"/>
<path d="M28.3376 11.2017C29.25 11.2017 29.9849 11.9362 29.9849 12.848C29.9849 13.7598 29.25 14.4943 28.3376 14.4943C27.8815 14.4943 27.476 14.317 27.1719 14.0131C27.3493 14.1144 27.5774 14.1651 27.8054 14.1651C28.5404 14.1651 29.1232 13.5825 29.1232 12.848C29.1232 12.1135 28.5404 11.5309 27.8054 11.5309C27.5774 11.5309 27.3746 11.5816 27.1719 11.6829C27.476 11.379 27.8815 11.2017 28.3376 11.2017Z" fill="#37C8AB"/>
<path d="M34.1418 22.4981L34.4459 23.5366L34.7246 22.5741C34.75 22.4728 34.7753 22.3968 34.8007 22.3715C34.826 22.3462 34.8513 22.2955 34.8767 22.2702C34.9274 22.2448 34.9781 22.2195 35.0287 22.2195C35.1048 22.2195 35.1555 22.2448 35.1808 22.2702C35.2315 22.2955 35.2568 22.3462 35.2568 22.3715C35.2822 22.4221 35.3075 22.4728 35.3329 22.5741L35.6116 23.5366L35.9157 22.4981C35.9411 22.4221 35.9411 22.3715 35.9664 22.3462C35.9918 22.3208 35.9918 22.2955 36.0424 22.2702C36.0678 22.2448 36.1185 22.2195 36.1692 22.2195C36.2198 22.2195 36.2705 22.2448 36.3212 22.2702C36.3719 22.3208 36.3719 22.3462 36.3719 22.3968C36.3719 22.4475 36.3466 22.5235 36.3212 22.6248L35.9411 23.7392C35.9157 23.8405 35.8904 23.8912 35.865 23.9418C35.8397 23.9925 35.8144 24.0178 35.789 24.0431C35.7383 24.0685 35.6876 24.0938 35.637 24.0938C35.5609 24.0938 35.5103 24.0685 35.4596 24.0431C35.4089 24.0178 35.3835 23.9672 35.3582 23.9165C35.3329 23.8659 35.3075 23.7899 35.3075 23.7139L35.0541 22.8021L34.8007 23.7139C34.7753 23.8405 34.7246 23.9418 34.6993 23.9925C34.6486 24.0685 34.5979 24.0938 34.4966 24.0938C34.4459 24.0938 34.3952 24.0938 34.3698 24.0685C34.3445 24.0431 34.2938 24.0178 34.2685 23.9925C34.2431 23.9672 34.2178 23.9165 34.1924 23.8658C34.1671 23.8152 34.1671 23.7645 34.1418 23.7392L33.7616 22.6248C33.7363 22.5235 33.7109 22.4475 33.7109 22.3968C33.7109 22.3462 33.7363 22.2955 33.7616 22.2702C33.8123 22.2195 33.8377 22.2195 33.9137 22.2195C33.9897 22.2195 34.0404 22.2448 34.0657 22.2955C34.0911 22.3208 34.1164 22.3968 34.1418 22.4981ZM37.9431 23.2833H37.0308C37.0308 23.3846 37.0561 23.4859 37.1068 23.5619C37.1575 23.6379 37.2082 23.7139 37.2842 23.7392C37.3602 23.7899 37.4363 23.7899 37.5123 23.7899C37.563 23.7899 37.6137 23.7899 37.6644 23.7645C37.715 23.7392 37.7657 23.7392 37.7911 23.7139C37.8418 23.6885 37.8671 23.6632 37.9178 23.6126C37.9431 23.5872 37.9938 23.5366 38.0698 23.4859C38.0952 23.4606 38.1205 23.4606 38.1712 23.4606C38.2219 23.4606 38.2472 23.4859 38.2979 23.5113C38.3233 23.5366 38.3486 23.5619 38.3486 23.6126C38.3486 23.6632 38.3233 23.7139 38.2979 23.7645C38.2726 23.8152 38.2219 23.8659 38.1459 23.9165C38.0698 23.9672 37.9938 24.0178 37.8924 24.0431C37.7911 24.0685 37.6644 24.0938 37.5376 24.0938C37.2335 24.0938 37.0055 24.0178 36.8281 23.8405C36.6507 23.6632 36.5746 23.4353 36.5746 23.1567C36.5746 23.03 36.6 22.9034 36.6253 22.7767C36.676 22.6501 36.7267 22.5488 36.8027 22.4728C36.8787 22.3968 36.9801 22.3208 37.0815 22.2702C37.2082 22.2195 37.3349 22.1942 37.4616 22.1942C37.639 22.1942 37.7911 22.2448 37.9178 22.3208C38.0445 22.3968 38.1459 22.4981 38.2219 22.6248C38.2979 22.7514 38.3233 22.878 38.3233 23.0047C38.3233 23.1313 38.2979 23.2073 38.2219 23.2326C38.1712 23.258 38.0698 23.2833 37.9431 23.2833ZM37.0308 23.0047H37.8671C37.8671 22.8527 37.8164 22.7261 37.7404 22.6501C37.6644 22.5741 37.563 22.5235 37.4363 22.5235C37.3096 22.5235 37.2335 22.5741 37.1575 22.6501C37.1068 22.7514 37.0561 22.8527 37.0308 23.0047ZM39.1089 21.7889V22.4981C39.1849 22.3968 39.2863 22.3461 39.3876 22.2955C39.489 22.2448 39.5904 22.2195 39.7171 22.2195C39.8692 22.2195 39.9959 22.2448 40.1226 22.3208C40.2493 22.3968 40.3253 22.4981 40.4013 22.6501C40.4774 22.7767 40.5027 22.954 40.5027 23.1567C40.5027 23.3086 40.4774 23.4353 40.452 23.5366C40.4267 23.6632 40.376 23.7645 40.3 23.8405C40.2239 23.9165 40.1479 23.9925 40.0465 24.0431C39.9452 24.0938 39.8438 24.1191 39.7171 24.1191C39.6411 24.1191 39.5904 24.1191 39.5144 24.0938C39.4637 24.0685 39.3876 24.0431 39.3623 24.0178C39.3116 23.9925 39.2863 23.9672 39.2609 23.9418L39.1342 23.8152V23.8658C39.1342 23.9418 39.1089 24.0178 39.0835 24.0685C39.0329 24.1191 38.9822 24.1445 38.9315 24.1445C38.8555 24.1445 38.8048 24.1191 38.7794 24.0685C38.7287 24.0178 38.7287 23.9672 38.7287 23.8658V21.8396C38.7287 21.7383 38.7541 21.6623 38.7794 21.637C38.8301 21.5863 38.8808 21.561 38.9315 21.561C39.0075 21.561 39.0582 21.5863 39.1089 21.637C39.0835 21.637 39.1089 21.7129 39.1089 21.7889ZM39.1342 23.182C39.1342 23.3593 39.1849 23.5113 39.2609 23.6126C39.337 23.7139 39.4637 23.7645 39.5904 23.7645C39.7171 23.7645 39.8185 23.7139 39.8945 23.6126C39.9705 23.5113 40.0212 23.3593 40.0212 23.182C40.0212 23.0553 39.9959 22.954 39.9705 22.878C39.9452 22.8021 39.8945 22.7261 39.8185 22.6754C39.7424 22.6248 39.6664 22.5994 39.5904 22.5994C39.5144 22.5994 39.413 22.6248 39.3623 22.6754C39.2863 22.7261 39.2356 22.8021 39.2102 22.878C39.1596 22.9287 39.1342 23.0553 39.1342 23.182ZM42.1753 22.4728V22.5235C42.2513 22.4221 42.3527 22.3461 42.4541 22.2955C42.5554 22.2448 42.6568 22.2195 42.7835 22.2195C42.9356 22.2195 43.0623 22.2448 43.189 22.3208C43.3157 22.3968 43.4171 22.4981 43.4678 22.6501C43.5438 22.8021 43.5691 22.954 43.5691 23.1567C43.5691 23.3086 43.5438 23.4353 43.5185 23.5619C43.4678 23.6885 43.4171 23.7899 43.3411 23.8658C43.265 23.9418 43.189 24.0178 43.0876 24.0431C42.9863 24.0938 42.8849 24.1191 42.7835 24.1191C42.6568 24.1191 42.5301 24.0938 42.4541 24.0431C42.3527 23.9925 42.2767 23.9165 42.2007 23.8152V24.5244C42.2007 24.727 42.1246 24.8283 41.9726 24.8283C41.8965 24.8283 41.8205 24.803 41.7952 24.7523C41.7698 24.7017 41.7445 24.6257 41.7445 24.5244V22.5235C41.7445 22.4475 41.7698 22.3715 41.7952 22.3208C41.8459 22.2702 41.8965 22.2448 41.9472 22.2448C42.0233 22.2448 42.0739 22.2702 42.0993 22.3208C42.15 22.3208 42.1753 22.3968 42.1753 22.4728ZM43.0876 23.1567C43.0876 23.03 43.0623 22.9287 43.037 22.8527C43.0116 22.7767 42.9356 22.7008 42.8849 22.6501C42.8089 22.5994 42.7328 22.5741 42.6568 22.5741C42.5301 22.5741 42.4287 22.6248 42.3274 22.7261C42.2513 22.8274 42.2007 22.9794 42.2007 23.182C42.2007 23.3593 42.2513 23.5113 42.3274 23.6126C42.4034 23.7139 42.5301 23.7645 42.6568 23.7645C42.7328 23.7645 42.8089 23.7392 42.8596 23.6885C42.9356 23.6379 42.9863 23.5872 43.0116 23.4859C43.0623 23.3846 43.0876 23.2833 43.0876 23.1567ZM43.9239 23.8405V21.8143C43.9239 21.7129 43.9493 21.6623 43.9746 21.6116C44.0253 21.561 44.076 21.5356 44.152 21.5356C44.228 21.5356 44.2787 21.561 44.3294 21.6116C44.3801 21.6623 44.4054 21.7383 44.4054 21.8143V23.8405C44.4054 23.9418 44.3801 24.0178 44.3294 24.0431C44.2787 24.0938 44.228 24.1191 44.152 24.1191C44.076 24.1191 44.0253 24.0938 43.9746 24.0431C43.9493 23.9925 43.9239 23.9165 43.9239 23.8405ZM46.0527 23.8405C45.9513 23.9165 45.8246 23.9925 45.7233 24.0431C45.6219 24.0938 45.4952 24.1191 45.3685 24.1191C45.2417 24.1191 45.1404 24.0938 45.0644 24.0431C44.963 23.9925 44.9123 23.9418 44.8616 23.8405C44.8109 23.7645 44.7856 23.6632 44.7856 23.5872C44.7856 23.4606 44.8363 23.3593 44.9123 23.258C44.9883 23.1567 45.115 23.106 45.2417 23.0807C45.2671 23.0807 45.3431 23.0553 45.4698 23.03C45.5965 23.0047 45.6979 22.9794 45.7739 22.954C45.85 22.9287 45.9513 22.9034 46.0527 22.878C46.0527 22.7514 46.0274 22.6754 45.9767 22.5994C45.926 22.5488 45.85 22.5235 45.6979 22.5235C45.5712 22.5235 45.4952 22.5488 45.4191 22.5741C45.3685 22.5994 45.3178 22.6501 45.2671 22.7261C45.2164 22.8021 45.1911 22.8274 45.1657 22.8527C45.1404 22.878 45.115 22.878 45.0644 22.878C45.0137 22.878 44.963 22.8527 44.9376 22.8274C44.9123 22.8021 44.887 22.7514 44.887 22.7007C44.887 22.6248 44.9123 22.5488 44.963 22.4728C45.0137 22.3968 45.115 22.3208 45.2417 22.2702C45.3685 22.2195 45.5205 22.1942 45.6979 22.1942C45.9007 22.1942 46.0527 22.2195 46.1794 22.2702C46.3061 22.3208 46.3822 22.3968 46.4328 22.4981C46.4835 22.5994 46.5089 22.7514 46.5089 22.9034V23.4353C46.5089 23.5112 46.5342 23.6126 46.5596 23.7139C46.5849 23.8152 46.6102 23.8658 46.6102 23.8912C46.6102 23.9418 46.5849 23.9925 46.5342 24.0178C46.4835 24.0685 46.4328 24.0685 46.3822 24.0685C46.3315 24.0685 46.2808 24.0431 46.2301 23.9925C46.1541 23.9925 46.1034 23.9418 46.0527 23.8405ZM46.0274 23.182C45.9513 23.2073 45.85 23.2326 45.7233 23.258C45.5965 23.2833 45.4952 23.3086 45.4445 23.3086L45.2924 23.3846C45.2417 23.4353 45.2164 23.4859 45.2164 23.5366C45.2164 23.6126 45.2417 23.6632 45.2924 23.7139C45.3431 23.7645 45.4191 23.7899 45.4952 23.7899C45.5965 23.7899 45.6726 23.7645 45.7486 23.7392C45.8246 23.6886 45.8753 23.6379 45.926 23.5872C45.9767 23.5113 45.9767 23.4099 45.9767 23.2326L46.0274 23.182ZM46.889 22.2702H46.9397V21.9916V21.8143C46.9397 21.7636 46.965 21.7383 46.965 21.7129L47.0411 21.637C47.0664 21.6116 47.1171 21.6116 47.1678 21.6116C47.2185 21.6116 47.2691 21.637 47.3198 21.6876C47.3452 21.7129 47.3705 21.7636 47.3705 21.7889C47.3705 21.8396 47.3959 21.8902 47.3959 21.9662V22.2955H47.5733C47.6493 22.2955 47.7 22.3208 47.7253 22.3462C47.7506 22.3715 47.776 22.4221 47.776 22.4728C47.776 22.5235 47.7506 22.5741 47.7 22.5994C47.6493 22.6248 47.5733 22.6248 47.4972 22.6248H47.4212V23.6632C47.4212 23.7139 47.4465 23.7392 47.4719 23.7645C47.4972 23.7899 47.5226 23.7899 47.5733 23.7899C47.5986 23.7899 47.6493 23.7899 47.6746 23.7645C47.7253 23.7645 47.7506 23.7392 47.776 23.7392C47.8013 23.7392 47.852 23.7645 47.8774 23.7899C47.9027 23.8152 47.928 23.8658 47.928 23.8912C47.928 23.9672 47.8774 24.0178 47.8013 24.0685C47.7253 24.1191 47.5986 24.1191 47.4465 24.1191C47.2945 24.1191 47.1931 24.0938 47.1171 24.0431C47.0411 23.9925 46.9904 23.9165 46.965 23.8405C46.9397 23.7645 46.9397 23.6379 46.9397 23.4859V22.5994H46.889C46.813 22.5994 46.7623 22.5741 46.737 22.5488C46.7116 22.5234 46.6863 22.4728 46.6863 22.4221C46.6863 22.3715 46.7116 22.3461 46.737 22.2955C46.7623 22.2702 46.813 22.2702 46.889 22.2702ZM48.0548 22.2702H48.1561V22.1182C48.1561 21.9662 48.1815 21.8649 48.2068 21.7636C48.2322 21.6876 48.3082 21.6116 48.3842 21.5863C48.4602 21.5356 48.5869 21.5356 48.739 21.5356C49.0178 21.5356 49.1445 21.6116 49.1445 21.7383C49.1445 21.7889 49.1191 21.8143 49.0938 21.8396C49.0685 21.8649 49.0431 21.8902 48.9924 21.8902H48.7897C48.7137 21.8902 48.663 21.9156 48.6376 21.9662C48.6123 22.0169 48.6123 22.0929 48.6123 22.1689V22.2702H48.739C48.9164 22.2702 48.9924 22.3208 48.9924 22.4221C48.9924 22.4981 48.9671 22.5488 48.9164 22.5741C48.8657 22.5994 48.815 22.5994 48.7137 22.5994H48.5869V23.8405C48.5869 23.9418 48.5616 23.9925 48.5109 24.0431C48.4602 24.0938 48.4096 24.1191 48.3335 24.1191C48.2575 24.1191 48.2068 24.0938 48.1815 24.0431C48.1308 23.9925 48.1054 23.9165 48.1054 23.8405V22.5994H47.9787C47.9027 22.5994 47.852 22.5741 47.8267 22.5488C47.8013 22.5234 47.776 22.4728 47.776 22.4221C47.8267 22.3208 47.9027 22.2702 48.0548 22.2702ZM50.9438 23.1567C50.9438 23.2833 50.9185 23.4353 50.8678 23.5366C50.8171 23.6632 50.7664 23.7645 50.6904 23.8405C50.6143 23.9165 50.513 23.9925 50.3863 24.0431C50.2849 24.0938 50.1328 24.1191 50.0061 24.1191C49.8541 24.1191 49.7274 24.0938 49.626 24.0431C49.5246 23.9925 49.4232 23.9418 49.3219 23.8405C49.2458 23.7645 49.1698 23.6632 49.1445 23.5366C49.0938 23.4099 49.0685 23.2833 49.0685 23.1567C49.0685 23.0047 49.0938 22.878 49.1445 22.7767C49.1952 22.6501 49.2458 22.5488 49.3219 22.4728C49.3979 22.3968 49.4993 22.3208 49.626 22.2702C49.7527 22.2195 49.8794 22.1942 50.0061 22.1942C50.1582 22.1942 50.2849 22.2195 50.3863 22.2702C50.513 22.3208 50.589 22.3715 50.6904 22.4728C50.7664 22.5488 50.8424 22.6501 50.8678 22.7767C50.9438 22.9034 50.9438 23.03 50.9438 23.1567ZM50.4876 23.1567C50.4876 22.9794 50.4369 22.8274 50.3609 22.7261C50.2849 22.6248 50.1582 22.5741 50.0315 22.5741C49.9301 22.5741 49.8541 22.5994 49.8034 22.6501C49.7274 22.7008 49.6767 22.7767 49.6513 22.8527C49.626 22.954 49.6006 23.0553 49.6006 23.182C49.6006 23.3086 49.626 23.4099 49.6513 23.5113C49.6767 23.6126 49.7527 23.6632 49.8034 23.7139C49.8794 23.7645 49.9554 23.7899 50.0568 23.7899C50.2089 23.7899 50.3102 23.7392 50.3863 23.6379C50.4369 23.5113 50.4876 23.3593 50.4876 23.1567ZM51.7801 23.4353V23.8152C51.7801 23.9165 51.7547 23.9925 51.7041 24.0178C51.6534 24.0685 51.6027 24.0938 51.5267 24.0938C51.4506 24.0938 51.4 24.0685 51.3493 24.0178C51.2986 23.9672 51.2732 23.8912 51.2732 23.8152V22.5235C51.2732 22.3208 51.3493 22.2195 51.5013 22.2195C51.5774 22.2195 51.628 22.2448 51.6787 22.2955C51.7041 22.3461 51.7294 22.4221 51.7294 22.5235C51.7801 22.4221 51.8308 22.3461 51.9068 22.2955C51.9575 22.2448 52.0335 22.2195 52.1349 22.2195C52.2363 22.2195 52.3376 22.2448 52.4137 22.2955C52.515 22.3461 52.5404 22.4221 52.5404 22.4981C52.5404 22.5488 52.515 22.5994 52.4897 22.6501C52.439 22.6754 52.4137 22.7007 52.363 22.7007C52.3376 22.7007 52.3123 22.7007 52.2363 22.6754C52.1602 22.6501 52.1095 22.6501 52.0589 22.6501C51.9828 22.6501 51.9321 22.6754 51.8815 22.7007C51.8308 22.7261 51.8054 22.8021 51.7801 22.8527C51.7548 22.9287 51.7294 23.0047 51.7294 23.106C51.7801 23.182 51.7801 23.3086 51.7801 23.4353ZM54.3904 23.2073V23.8152C54.3904 23.9165 54.365 23.9925 54.3143 24.0431C54.2636 24.0938 54.213 24.1191 54.1369 24.1191C54.0609 24.1191 54.0102 24.0938 53.9595 24.0431C53.9089 23.9925 53.8835 23.9165 53.8835 23.8152V23.0807V22.8021C53.8835 22.7261 53.8582 22.6754 53.8075 22.6501C53.7821 22.5994 53.7061 22.5994 53.6301 22.5994C53.478 22.5994 53.3767 22.6501 53.326 22.7514C53.2753 22.8527 53.25 23.0047 53.25 23.2073V23.8405C53.25 23.9418 53.2246 24.0178 53.1739 24.0685C53.1232 24.1191 53.0726 24.1445 52.9965 24.1445C52.9205 24.1445 52.8698 24.1191 52.8191 24.0685C52.7685 24.0178 52.7431 23.9418 52.7431 23.8405V22.4981C52.7431 22.4221 52.7685 22.3461 52.7938 22.2955C52.8445 22.2448 52.8952 22.2195 52.9458 22.2195C53.0219 22.2195 53.0726 22.2448 53.0979 22.2955C53.1486 22.3461 53.1739 22.3968 53.1739 22.4728V22.5235C53.25 22.4221 53.3513 22.3462 53.4274 22.3208C53.5287 22.2702 53.6301 22.2448 53.7315 22.2448C53.8582 22.2448 53.9595 22.2702 54.0356 22.3208C54.1116 22.3715 54.1876 22.4475 54.2383 22.5235C54.3143 22.4221 54.3904 22.3462 54.4917 22.3208C54.5931 22.2702 54.6691 22.2448 54.7958 22.2448C54.9226 22.2448 55.0239 22.2702 55.1253 22.3208C55.2267 22.3715 55.2773 22.4475 55.328 22.5235C55.3787 22.5994 55.3787 22.7514 55.3787 22.9287V23.8405C55.3787 23.9418 55.3534 24.0178 55.3027 24.0685C55.252 24.1191 55.2013 24.1445 55.1253 24.1445C55.0493 24.1445 54.9986 24.1191 54.9479 24.0685C54.8972 24.0178 54.8719 23.9418 54.8719 23.8405V23.0553C54.8719 22.954 54.8719 22.878 54.8465 22.8274C54.8465 22.7767 54.8212 22.7261 54.7705 22.6754C54.7452 22.6248 54.6691 22.6248 54.5931 22.6248C54.5424 22.6248 54.4664 22.6501 54.4157 22.6754C54.365 22.7007 54.3143 22.7514 54.289 22.8274C54.4157 22.8527 54.3904 23.0047 54.3904 23.2073Z" fill="#37C8AB"/>
</g>
<defs>
<clipPath id="clip0_177_9638">
<rect width="55" height="25" fill="white" transform="translate(0.5 0.136719)"/>
</clipPath>
</defs>
</svg>
