<svg width="41" height="41" viewBox="0 0 41 41" fill="none" xmlns="http://www.w3.org/2000/svg">
<path d="M29.1879 14.8557L29.1733 14.8494C29.165 14.8463 29.1566 14.8431 29.1493 14.8358C29.1374 14.823 29.1285 14.8075 29.1234 14.7907C29.1184 14.7739 29.1172 14.7561 29.1201 14.7388L29.9265 9.80859L33.7082 13.5913L29.7753 15.2646C29.7643 15.269 29.7526 15.2711 29.7408 15.2709H29.7252C29.72 15.2677 29.7148 15.2635 29.7043 15.2531C29.558 15.0902 29.3829 14.9554 29.1879 14.8557ZM34.6731 14.5552L38.7166 18.5987C39.5564 19.4395 39.9768 19.8589 40.1302 20.345C40.1531 20.417 40.1719 20.489 40.1865 20.5631L30.5232 16.4705C30.5181 16.4684 30.5128 16.4663 30.5076 16.4643C30.469 16.4486 30.4241 16.4309 30.4241 16.3913C30.4241 16.3516 30.47 16.3328 30.5086 16.3172L30.5212 16.312L34.6731 14.5552ZM40.0217 21.8608C39.813 22.2531 39.4062 22.6599 38.7177 23.3495L34.1588 27.9073L28.2626 26.6794L28.2313 26.6732C28.1792 26.6648 28.1239 26.6554 28.1239 26.6085C28.1015 26.3652 28.0292 26.1292 27.9117 25.9151C27.7941 25.701 27.6338 25.5134 27.4406 25.3639C27.4166 25.3399 27.4228 25.3024 27.4301 25.2679C27.4301 25.2627 27.4301 25.2575 27.4322 25.2533L28.5411 18.4453L28.5453 18.4224C28.5516 18.3702 28.561 18.3097 28.6079 18.3097C28.8456 18.2802 29.0749 18.2036 29.2827 18.0845C29.4905 17.9654 29.6724 17.8061 29.818 17.616C29.8274 17.6056 29.8337 17.5941 29.8462 17.5878C29.8796 17.5722 29.9192 17.5878 29.9537 17.6024L40.0206 21.8608H40.0217ZM33.1104 28.9557L25.6139 36.4522L26.897 28.5655L26.8991 28.5551C26.9002 28.5447 26.9023 28.5342 26.9054 28.5249C26.9158 28.4998 26.9429 28.4894 26.969 28.479L26.9815 28.4737C27.2625 28.3539 27.511 28.169 27.7066 27.9344C27.7316 27.9052 27.7619 27.877 27.8005 27.8718C27.8105 27.8702 27.8207 27.8702 27.8307 27.8718L33.1094 28.9567L33.1104 28.9557ZM24.0272 38.0389L23.1822 38.8839L13.8402 25.3827C13.8368 25.3778 13.8334 25.3729 13.8298 25.3681C13.8152 25.3483 13.7995 25.3285 13.8027 25.3055C13.8027 25.2888 13.8141 25.2742 13.8256 25.2617L13.836 25.2481C13.8642 25.2064 13.8882 25.1647 13.9143 25.1198L13.9351 25.0833L13.9383 25.0802C13.9529 25.0551 13.9664 25.0311 13.9915 25.0176C14.0134 25.0071 14.0436 25.0113 14.0676 25.0165L24.4173 27.1509C24.4463 27.1554 24.4736 27.1673 24.4966 27.1854C24.5102 27.1989 24.5133 27.2135 24.5164 27.2302C24.5886 27.5034 24.723 27.7561 24.909 27.9688C25.0951 28.1814 25.3277 28.3482 25.5889 28.456C25.6181 28.4706 25.6055 28.5029 25.592 28.5374C25.5852 28.5525 25.58 28.5682 25.5763 28.5843C25.4459 29.3772 24.3276 36.1977 24.0272 38.0389ZM22.2621 39.803C21.6393 40.4196 21.272 40.7461 20.8568 40.8775C20.4475 41.007 20.0081 41.007 19.5987 40.8775C19.1126 40.7231 18.6922 40.3038 17.8524 39.4629L8.4708 30.0813L10.9213 26.2809C10.9328 26.2621 10.9443 26.2454 10.963 26.2319C10.9891 26.2131 11.0267 26.2214 11.058 26.2319C11.6204 26.4016 12.2243 26.371 12.7667 26.1453C12.7949 26.1349 12.8231 26.1276 12.845 26.1474C12.8559 26.1574 12.8657 26.1686 12.8742 26.1808L22.2621 39.8041V39.803ZM7.56633 29.1769L5.41419 27.0247L9.66423 25.2116C9.67509 25.2069 9.6868 25.2044 9.69866 25.2043C9.73413 25.2043 9.75499 25.2398 9.77377 25.2721C9.81648 25.3378 9.86172 25.4019 9.90939 25.4641L9.92295 25.4808C9.93547 25.4985 9.92712 25.5162 9.9146 25.5329L7.56738 29.1769H7.56633ZM4.46174 26.0723L1.73895 23.3495C1.27577 22.8863 0.939853 22.5504 0.706173 22.2614L8.9851 23.9785C8.9955 23.9805 9.00593 23.9822 9.0164 23.9838C9.06751 23.9921 9.12385 24.0015 9.12385 24.0495C9.12385 24.1016 9.0623 24.1256 9.01014 24.1455L8.98614 24.1559L4.46174 26.0723ZM0.230469 20.8614C0.239904 20.686 0.27145 20.5125 0.324358 20.345C0.478753 19.8589 0.898124 19.4395 1.73895 18.5987L5.22328 15.1144C6.82756 17.4427 8.4362 19.768 10.0492 22.0903C10.0773 22.1279 10.1086 22.1696 10.0763 22.2009C9.92399 22.3689 9.77168 22.5525 9.66423 22.7517C9.65257 22.7773 9.63463 22.7996 9.61207 22.8164C9.59851 22.8247 9.5839 22.8216 9.56825 22.8185H9.56617L0.230469 20.8604V20.8614ZM6.15591 14.1817L10.8389 9.49668C11.2802 9.68967 12.8836 10.3667 14.3159 10.9718C15.4009 11.4308 16.3898 11.8481 16.7007 11.9837C16.732 11.9962 16.7602 12.0087 16.7737 12.04C16.7821 12.0588 16.7779 12.0828 16.7737 12.1026C16.6996 12.4408 16.7106 12.7921 16.8058 13.125C16.9011 13.4578 17.0775 13.7618 17.3193 14.0096C17.3506 14.0409 17.3193 14.0858 17.2922 14.1244L17.2776 14.1463L12.5205 21.5145C12.508 21.5353 12.4966 21.5531 12.4757 21.5666C12.4506 21.5823 12.4152 21.575 12.386 21.5677C12.201 21.5192 12.0107 21.4933 11.8195 21.4905C11.6484 21.4905 11.4627 21.5218 11.275 21.5562H11.2739C11.253 21.5593 11.2343 21.5635 11.2176 21.551C11.1991 21.5359 11.1833 21.518 11.1706 21.4978L6.15487 14.1817H6.15591ZM11.7872 8.55048L17.8524 2.48525C18.6922 1.64547 19.1126 1.22505 19.5987 1.0717C20.0081 0.942246 20.4475 0.942246 20.8568 1.0717C21.343 1.22505 21.7634 1.64547 22.6032 2.48525L23.9176 3.7997L19.604 10.4804C19.5933 10.4999 19.5787 10.5169 19.5612 10.5305C19.5351 10.5482 19.4986 10.5409 19.4673 10.5305C19.1272 10.4273 18.7671 10.4085 18.4181 10.4757C18.0691 10.543 17.7417 10.6943 17.4643 10.9165C17.4362 10.9457 17.3944 10.929 17.359 10.9134C16.7956 10.6682 12.4141 8.8165 11.7872 8.55048ZM24.8336 4.71564L28.8166 8.69862L27.8568 14.6428V14.6585C27.8559 14.672 27.8531 14.6854 27.8485 14.6981C27.838 14.719 27.8172 14.7232 27.7963 14.7294C27.5911 14.7916 27.3978 14.8879 27.2246 15.0142C27.2172 15.0195 27.2102 15.0255 27.2037 15.032C27.1923 15.0445 27.1808 15.056 27.162 15.058C27.1467 15.0585 27.1315 15.056 27.1172 15.0507L21.0478 12.4719L21.0363 12.4667C20.9977 12.4511 20.9518 12.4323 20.9518 12.3926C20.9161 12.0544 20.8056 11.7284 20.6284 11.4381C20.5992 11.3901 20.5668 11.34 20.5919 11.291L24.8336 4.71564ZM20.7317 13.6935L26.4213 16.1033C26.4526 16.1179 26.4871 16.1315 26.5006 16.1638C26.5061 16.1833 26.5061 16.2039 26.5006 16.2233C26.4839 16.3068 26.4693 16.4017 26.4693 16.4977V16.6573C26.4693 16.6969 26.4286 16.7136 26.3911 16.7293L26.3796 16.7334C25.4783 17.1184 13.7255 22.13 13.7077 22.13C13.69 22.13 13.6712 22.13 13.6535 22.1122C13.6222 22.0809 13.6535 22.0371 13.6816 21.9975C13.6866 21.9906 13.6915 21.9836 13.6962 21.9766L18.3719 14.7367L18.3803 14.7242C18.4074 14.6804 18.4387 14.6314 18.4888 14.6314L18.5357 14.6387C18.6421 14.6533 18.736 14.6668 18.8309 14.6668C19.5403 14.6668 20.1975 14.3215 20.594 13.7311C20.6034 13.7153 20.6154 13.7012 20.6294 13.6893C20.6576 13.6685 20.6993 13.6789 20.7317 13.6935ZM14.2158 23.2754L27.0264 17.8121C27.0264 17.8121 27.0452 17.8121 27.0629 17.8298C27.1328 17.8997 27.1923 17.9467 27.2497 17.9905L27.2778 18.0082C27.3039 18.0228 27.33 18.0395 27.3321 18.0667C27.3321 18.0771 27.3321 18.0834 27.33 18.0927L26.2325 24.834L26.2283 24.8611C26.221 24.9133 26.2137 24.9727 26.1647 24.9727C25.8721 24.9925 25.5888 25.0833 25.3392 25.2372C25.0896 25.3912 24.8813 25.6037 24.7324 25.8563L24.7272 25.8647C24.7126 25.8887 24.699 25.9116 24.675 25.9241C24.6531 25.9346 24.6249 25.9304 24.602 25.9252L14.3858 23.8179C14.3754 23.8158 14.2272 23.2765 14.2158 23.2754Z" fill="url(#paint0_radial_94_8420)"/>
<defs>
<radialGradient id="paint0_radial_94_8420" cx="0" cy="0" r="1" gradientUnits="userSpaceOnUse" gradientTransform="translate(-1.11103 20.4103) rotate(90) scale(39.956 46.1307)">
<stop stop-color="#20C6B7"/>
<stop offset="1" stop-color="#4D9ABF"/>
</radialGradient>
</defs>
</svg>
