<svg width="66" height="23" viewBox="0 0 66 23" fill="none" xmlns="http://www.w3.org/2000/svg">
<path d="M64.1729 1.47271C63.9678 1.26763 63.7254 1.15576 63.4271 1.15576L59.4186 1.17441C58.9152 1.15576 58.5796 1.36085 58.3932 1.8083L56.7339 6.3761L55.5593 3.11339L55.0746 1.8083C54.8881 1.36085 54.5525 1.15576 54.0305 1.15576H48.8101C48.5305 1.15576 48.2695 1.24898 48.0644 1.45407C47.8593 1.65915 47.7661 1.90152 47.7661 2.19983V16.8168C47.7661 17.0964 47.8779 17.3388 48.083 17.5439C48.2881 17.749 48.5305 17.8608 48.8101 17.8608C49.0898 17.8608 49.3508 17.7676 49.5559 17.5625C49.761 17.3575 49.8542 17.1151 49.8542 16.8168V8.16593L53.1169 17.2083C53.2847 17.6371 53.6203 17.8422 54.0864 17.8422C54.5712 17.8422 54.8881 17.6371 55.0746 17.2083L56.7339 12.6405L58.1695 16.6117L58.1881 16.5931L58.4118 17.2083C58.4864 17.3947 58.6169 17.5625 58.822 17.6931C59.0085 17.8236 59.2135 17.8795 59.4373 17.8795H63.4457C63.744 17.8795 63.9864 17.7676 64.1915 17.5625C64.3779 17.3575 64.4898 17.1151 64.4898 16.8354V2.19983C64.4712 1.92017 64.3779 1.6778 64.1729 1.47271ZM54.1051 13.6659L50.339 3.26254H53.3407L53.7881 4.51169L55.5966 9.52695L54.1051 13.6659ZM62.383 15.7914H60.1457L59.9593 15.2507L59.2881 13.3863C59.2881 13.3863 59.2881 13.3863 59.2881 13.3676L57.8898 9.5083L60.1457 3.26254H62.4017V15.7914H62.383ZM9.17286 5.35068C8.01692 5.35068 7.02879 5.76085 6.20845 6.58119C5.38811 7.40152 4.97794 8.38966 4.97794 9.54559C4.97794 10.7015 5.38811 11.6897 6.20845 12.51C7.02879 13.3303 8.01692 13.7405 9.17286 13.7405C10.3288 13.7405 11.3169 13.3303 12.1373 12.51C12.9576 11.6897 13.3678 10.7015 13.3678 9.54559C13.3678 8.38966 12.9576 7.40152 12.1373 6.58119C11.3169 5.7422 10.3288 5.35068 9.17286 5.35068ZM10.6457 10.9998C10.2356 11.41 9.75082 11.6151 9.17286 11.6151C8.59489 11.6151 8.11014 11.41 7.69997 10.9998C7.2898 10.5897 7.08472 10.1049 7.08472 9.52695C7.08472 8.94898 7.2898 8.46424 7.69997 8.05407C8.11014 7.6439 8.59489 7.43881 9.17286 7.43881C9.75082 7.43881 10.2356 7.6439 10.6457 8.05407C11.0559 8.46424 11.261 8.94898 11.261 9.52695C11.261 10.1049 11.0559 10.5897 10.6457 10.9998ZM9.17286 1.15576C6.86099 1.15576 4.90336 1.9761 3.26269 3.61678C1.62201 5.23881 0.820312 7.21508 0.820312 9.52695C0.820312 11.8388 1.64065 13.7964 3.26269 15.4371C4.90336 17.0778 6.86099 17.8795 9.17286 17.8795C11.4847 17.8795 13.4423 17.0592 15.083 15.4371C16.7051 13.7964 17.5254 11.8202 17.5254 9.52695C17.5254 7.21508 16.7051 5.25746 15.083 3.61678C13.461 1.9761 11.4661 1.15576 9.17286 1.15576ZM13.6101 13.9456C12.3796 15.1761 10.9068 15.7727 9.17286 15.7727C7.43896 15.7727 5.96608 15.1761 4.73557 13.9456C3.50506 12.7151 2.90845 11.2422 2.90845 9.5083C2.90845 7.77441 3.5237 6.30152 4.73557 5.07102C5.96608 3.84051 7.43896 3.2439 9.17286 3.2439C10.9068 3.2439 12.3796 3.85915 13.6101 5.07102C14.8407 6.30152 15.4373 7.77441 15.4373 9.5083C15.4373 11.2422 14.822 12.7337 13.6101 13.9456ZM20.2474 9.5083C19.5576 8.5761 19.2034 7.55068 19.2034 6.39475C19.2034 4.99644 19.7627 3.76593 20.8813 2.70322C21.9627 1.6778 23.1373 1.15576 24.4237 1.15576C25.5051 1.15576 26.4186 1.39813 27.2203 1.90152C27.8169 2.27441 28.4508 2.88966 29.122 3.74729C29.3644 4.04559 29.4949 4.3439 29.4949 4.60491C29.4949 4.90322 29.4017 5.14559 29.1966 5.35068C28.9915 5.55576 28.7491 5.64898 28.4508 5.64898C28.0966 5.64898 27.8169 5.49983 27.6118 5.20152C26.6237 3.89644 25.561 3.2439 24.4423 3.2439C23.5847 3.2439 22.839 3.5422 22.2423 4.15746C21.6271 4.77271 21.3288 5.49983 21.3288 6.3761C21.3288 7.01 21.4966 7.58797 21.8508 8.11L25.1881 11.8947C25.3932 12.0998 25.4864 12.3422 25.4864 12.6405C25.4864 12.9202 25.3932 13.1812 25.1881 13.3863C24.983 13.5914 24.7407 13.6846 24.4423 13.6846C24.144 13.6846 23.883 13.5727 23.6779 13.3303L20.2474 9.5083ZM42.7508 11.1303L44.8949 16.4066C45.0068 16.6863 45.0068 16.9473 44.8949 17.2269C44.783 17.5066 44.5779 17.6931 44.3169 17.8049C44.0373 17.9168 43.7762 17.8981 43.4966 17.7863C43.2169 17.6744 43.0305 17.4693 42.9186 17.2083L40.3644 10.9625C40.2712 10.7202 40.2712 10.4592 40.3457 10.1981C40.439 9.93712 40.5881 9.75068 40.8305 9.62017L40.9051 9.58288L40.9424 9.56424L40.9796 9.54559H41.0169L41.0729 9.52695H41.0915H41.1101L41.1288 9.5083H41.1474C41.5017 9.39644 41.744 9.32186 41.8932 9.22864C42.9186 8.68797 43.4407 7.71847 43.4407 6.3761C43.4407 5.59305 43.1423 4.88458 42.5457 4.25068C41.9305 3.59813 41.2034 3.26254 40.383 3.2439H34.044V16.8168C34.044 17.0964 33.9508 17.3575 33.7457 17.5625C33.5407 17.7676 33.2983 17.8608 33 17.8608C32.7203 17.8608 32.4779 17.749 32.2729 17.5439C32.0678 17.3388 31.9559 17.0964 31.9559 16.8168V2.19983C31.9559 1.92017 32.0491 1.6778 32.2542 1.47271C32.4593 1.26763 32.7017 1.15576 33 1.15576H40.3085C41.7254 1.15576 42.9559 1.69644 44 2.75915C45.0254 3.80322 45.5288 5.01508 45.5288 6.3761C45.5288 7.43881 45.2864 8.38966 44.783 9.22864C44.261 10.0676 43.6085 10.7015 42.7508 11.1303ZM28.6 9.52695C29.2898 10.3286 29.644 11.3727 29.644 12.6405C29.644 14.0388 29.0847 15.2693 27.9661 16.332C26.8847 17.3575 25.7101 17.8608 24.4237 17.8608C23.361 17.8608 22.4288 17.6185 21.6457 17.1151C21.0491 16.7422 20.4152 16.1269 19.744 15.2693C19.5017 14.971 19.3712 14.6727 19.3712 14.4117C19.3712 14.1134 19.4644 13.871 19.6695 13.6659C19.8746 13.4608 20.1169 13.3676 20.4152 13.3676C20.7695 13.3676 21.0491 13.5168 21.2542 13.8151C22.2423 15.1202 23.3051 15.7727 24.4051 15.7727C25.2813 15.7727 26.0085 15.4744 26.6237 14.8592C27.239 14.2439 27.5373 13.5168 27.5373 12.6405C27.5373 11.932 27.3695 11.3541 27.0152 10.9066L23.6966 7.12186C23.4915 6.91678 23.3983 6.67441 23.3983 6.3761C23.3983 6.09644 23.4915 5.83542 23.6966 5.63034C23.9017 5.42525 24.144 5.33203 24.4237 5.33203C24.7407 5.33203 25.0017 5.4439 25.2068 5.68627L28.6 9.52695ZM41.0169 7.12186C40.8118 7.32695 40.5695 7.42017 40.2712 7.42017H38.183V16.8168C38.183 17.0964 38.0712 17.3388 37.8661 17.5439C37.661 17.749 37.4186 17.8608 37.139 17.8608C36.8593 17.8608 36.5983 17.7676 36.3932 17.5625C36.1881 17.3575 36.0949 17.1151 36.0949 16.8168V6.43203C36.0949 6.09644 36.1881 5.83542 36.3746 5.63034C36.561 5.42525 36.822 5.33203 37.139 5.33203H40.2712C40.5508 5.33203 40.7932 5.4439 40.9983 5.64898C41.2034 5.85407 41.3152 6.09644 41.3152 6.3761C41.3339 6.67441 41.222 6.91678 41.0169 7.12186Z" fill="url(#paint0_linear_84_3266)"/>
<path d="M3.71017 21.0674C3.71017 21.1979 3.69152 21.3098 3.65423 21.403C3.61695 21.4962 3.56101 21.5894 3.48644 21.664C3.41186 21.7386 3.31864 21.7945 3.22542 21.8318C3.11356 21.8691 3.00169 21.8877 2.88983 21.8877C2.77796 21.8877 2.6661 21.8691 2.55423 21.8318C2.44237 21.7945 2.36779 21.7386 2.29322 21.664C2.21864 21.5894 2.16271 21.4962 2.12542 21.403C2.08813 21.3098 2.06949 21.1793 2.06949 21.0674C2.06949 20.9369 2.08813 20.825 2.12542 20.7318C2.16271 20.6386 2.21864 20.5454 2.29322 20.4708C2.36779 20.3962 2.46101 20.3403 2.55423 20.303C2.64745 20.2657 2.75932 20.2471 2.88983 20.2471C3.02034 20.2471 3.11356 20.2657 3.22542 20.303C3.33729 20.3403 3.41186 20.3962 3.48644 20.4708C3.56101 20.5454 3.61695 20.6386 3.65423 20.7318C3.69152 20.825 3.71017 20.9369 3.71017 21.0674ZM3.46779 21.0674C3.46779 20.9742 3.44915 20.8996 3.43051 20.825C3.41186 20.7505 3.35593 20.6759 3.31864 20.62C3.26271 20.564 3.20678 20.5081 3.1322 20.4894C3.05762 20.4522 2.98305 20.4335 2.88983 20.4335C2.79661 20.4335 2.72203 20.4522 2.64745 20.4894C2.57288 20.5267 2.51695 20.564 2.46101 20.62C2.40508 20.6759 2.36779 20.7505 2.34915 20.825C2.31186 20.8996 2.31186 20.9928 2.31186 21.0674C2.31186 21.1606 2.33051 21.2352 2.34915 21.3098C2.38644 21.3844 2.42373 21.4589 2.46101 21.5149C2.51695 21.5708 2.57288 21.6081 2.64745 21.6454C2.72203 21.6827 2.79661 21.7013 2.88983 21.7013C2.98305 21.7013 3.05762 21.6827 3.1322 21.6454C3.20678 21.6081 3.26271 21.5708 3.31864 21.5149C3.37457 21.4589 3.41186 21.3844 3.43051 21.3098C3.44915 21.2352 3.46779 21.1606 3.46779 21.0674Z" fill="#FF930E"/>
<path d="M4.97797 20.2847H5.46271C5.55593 20.2847 5.63051 20.2847 5.68644 20.3033C5.76102 20.322 5.81695 20.3406 5.87288 20.3779C5.92881 20.4152 5.9661 20.4525 5.98475 20.5084C6.00339 20.5643 6.02204 20.6389 6.02204 20.7135C6.02204 20.7881 6.00339 20.8626 5.98475 20.9186C5.9661 20.9745 5.91017 21.0304 5.87288 21.0491C5.81695 21.0864 5.76102 21.105 5.68644 21.1237C5.61187 21.1423 5.53729 21.1423 5.46271 21.1423H5.22034V21.8321H4.99661V20.2847H4.97797ZM5.2017 20.9745H5.44407C5.5 20.9745 5.55593 20.9745 5.59322 20.9559C5.63051 20.9372 5.68644 20.9372 5.70509 20.9186C5.74237 20.8999 5.76102 20.8813 5.77966 20.844C5.79831 20.8067 5.79831 20.7694 5.79831 20.7321C5.79831 20.6948 5.79831 20.6389 5.77966 20.6203C5.76102 20.6016 5.74237 20.5643 5.70509 20.5457C5.6678 20.527 5.63051 20.5084 5.59322 20.5084C5.55593 20.5084 5.5 20.4898 5.44407 20.4898H5.2017V20.9745Z" fill="#FF930E"/>
<path d="M7.49491 21.6643H8.31525V21.8694H7.27118V20.2847H8.27796V20.4711H7.47626V20.9372H8.22203V21.1237H7.47626V21.6643H7.49491Z" fill="#FF930E"/>
<path d="M10.6831 21.5525V20.2847H10.9068V21.8694H10.6271L9.78815 20.583V21.8694H9.56442V20.2847H9.84408L10.6831 21.5525Z" fill="#FF930E"/>
<path d="M14.5611 20.5642C14.5238 20.5269 14.4865 20.4896 14.4305 20.4523C14.3746 20.4337 14.3187 20.415 14.2441 20.415C14.2068 20.415 14.1695 20.415 14.1322 20.4337C14.095 20.4523 14.0577 20.4523 14.039 20.4896C14.0017 20.5083 13.9831 20.5456 13.9644 20.5642C13.9458 20.6015 13.9272 20.6388 13.9272 20.6761C13.9272 20.7134 13.9272 20.7506 13.9458 20.7879C13.9644 20.8252 13.9831 20.8439 14.0204 20.8625C14.0577 20.8811 14.0763 20.8998 14.1322 20.9184C14.1882 20.9371 14.2068 20.9557 14.2627 20.9557C14.3187 20.9744 14.3746 20.993 14.4305 21.0117C14.4865 21.0303 14.5424 21.0676 14.5797 21.0862C14.617 21.1235 14.6543 21.1608 14.6916 21.2167C14.7289 21.2727 14.7288 21.3286 14.7288 21.4032C14.7288 21.4778 14.7102 21.5523 14.6916 21.6083C14.6543 21.6642 14.617 21.7201 14.5611 21.7574C14.5051 21.7947 14.4492 21.832 14.3933 21.8506C14.3187 21.8693 14.2627 21.8879 14.1882 21.8879C14.095 21.8879 13.9831 21.8693 13.8899 21.832C13.7966 21.7947 13.7221 21.7388 13.6661 21.6642L13.8339 21.515C13.8712 21.571 13.9272 21.6083 13.9831 21.6456C14.039 21.6828 14.1136 21.7015 14.1882 21.7015C14.2255 21.7015 14.2627 21.7015 14.3 21.6828C14.3373 21.6642 14.3746 21.6642 14.3933 21.6269C14.4305 21.6083 14.4492 21.571 14.4678 21.5337C14.4865 21.4964 14.5051 21.4591 14.5051 21.4032C14.5051 21.3472 14.4865 21.31 14.4678 21.2913C14.4492 21.254 14.4119 21.2354 14.3933 21.2167C14.3746 21.1981 14.3187 21.1795 14.2814 21.1608C14.2441 21.1422 14.1882 21.1235 14.1322 21.1049C14.0763 21.0862 14.039 21.0676 13.9831 21.0489C13.9272 21.0303 13.8899 20.993 13.8526 20.9744C13.8153 20.9371 13.778 20.8998 13.7594 20.8439C13.7407 20.7879 13.7221 20.732 13.7221 20.6574C13.7221 20.5828 13.7407 20.5083 13.778 20.4523C13.8153 20.3964 13.8526 20.3405 13.9085 20.3032C13.9644 20.2659 14.0204 20.2473 14.0763 20.2286C14.1322 20.21 14.2068 20.21 14.2627 20.21C14.356 20.21 14.4492 20.2286 14.5238 20.2659C14.5983 20.3032 14.6729 20.3405 14.7102 20.3964L14.5611 20.5642Z" fill="#FF930E"/>
<path d="M17.6186 21.0674C17.6186 21.1979 17.6 21.3098 17.5627 21.403C17.5254 21.4962 17.4695 21.5894 17.3949 21.664C17.3203 21.7386 17.2271 21.7945 17.1339 21.8318C17.022 21.8691 16.9102 21.8877 16.7983 21.8877C16.6864 21.8877 16.5746 21.8691 16.4627 21.8318C16.3695 21.7945 16.2763 21.7386 16.2017 21.664C16.1271 21.5894 16.0712 21.4962 16.0339 21.403C15.9966 21.3098 15.978 21.1793 15.978 21.0674C15.978 20.9369 15.9966 20.825 16.0339 20.7318C16.0712 20.6386 16.1271 20.5454 16.2017 20.4708C16.2763 20.3962 16.3695 20.3403 16.4627 20.303C16.5559 20.2657 16.6678 20.2471 16.7983 20.2471C16.9102 20.2471 17.022 20.2657 17.1339 20.303C17.2458 20.3403 17.3203 20.3962 17.3949 20.4708C17.4695 20.5454 17.5254 20.6386 17.5627 20.7318C17.6 20.825 17.6186 20.9369 17.6186 21.0674ZM17.3763 21.0674C17.3763 20.9742 17.3576 20.8996 17.339 20.825C17.3017 20.7505 17.2644 20.6759 17.2271 20.62C17.1712 20.564 17.1153 20.5081 17.0407 20.4894C16.9661 20.4522 16.8915 20.4335 16.7983 20.4335C16.7051 20.4335 16.6305 20.4522 16.5559 20.4894C16.4814 20.5267 16.4254 20.564 16.3695 20.62C16.3136 20.6759 16.2763 20.7505 16.2576 20.825C16.239 20.8996 16.2203 20.9928 16.2203 21.0674C16.2203 21.1606 16.239 21.2352 16.2576 21.3098C16.2949 21.3844 16.3322 21.4589 16.3695 21.5149C16.4254 21.5708 16.4814 21.6081 16.5559 21.6454C16.6305 21.6827 16.7051 21.7013 16.7983 21.7013C16.8915 21.7013 16.9661 21.6827 17.0407 21.6454C17.1153 21.6081 17.1712 21.5708 17.2271 21.5149C17.2831 21.4589 17.3203 21.3844 17.339 21.3098C17.3576 21.2352 17.3763 21.1606 17.3763 21.0674Z" fill="#FF930E"/>
<path d="M19.4831 21.9064C19.3712 21.9064 19.2966 21.8877 19.2034 21.8505C19.1288 21.8132 19.0542 21.7759 19.017 21.7013C18.961 21.6454 18.9237 21.5708 18.9051 21.4962C18.8864 21.4216 18.8678 21.3471 18.8678 21.2539V20.2471H19.0915V21.2352C19.0915 21.2911 19.0915 21.3471 19.1102 21.403C19.1288 21.4589 19.1475 21.4962 19.1847 21.5522C19.222 21.5894 19.2593 21.6267 19.2966 21.6454C19.3525 21.664 19.4085 21.6827 19.4831 21.6827C19.5576 21.6827 19.6136 21.664 19.6695 21.6454C19.7254 21.6267 19.7627 21.5894 19.8 21.5522C19.8373 21.5149 19.8559 21.4589 19.8746 21.403C19.8932 21.3471 19.8932 21.2911 19.8932 21.2352V20.2471H20.1169V21.2539C20.1169 21.3284 20.0983 21.4216 20.0797 21.4962C20.061 21.5708 20.0237 21.6454 19.9678 21.7013C19.9119 21.7572 19.8559 21.8132 19.7814 21.8505C19.6695 21.8877 19.5949 21.9064 19.4831 21.9064Z" fill="#FF930E"/>
<path d="M21.6644 21.8694H21.4407V20.2847H21.9441C22.0186 20.2847 22.0932 20.2847 22.1678 20.3033C22.2424 20.322 22.2983 20.3406 22.3542 20.3779C22.4102 20.4152 22.4475 20.4525 22.4847 20.5084C22.522 20.5643 22.522 20.6389 22.522 20.7135C22.522 20.8253 22.4847 20.9186 22.4102 20.9931C22.3356 21.0677 22.2424 21.105 22.1305 21.1237L22.578 21.8508H22.3169L21.9068 21.1423H21.6644V21.8694ZM21.6644 20.9745H21.9254C21.9814 20.9745 22.0186 20.9745 22.0746 20.9559C22.1119 20.9559 22.1678 20.9372 22.1864 20.9186C22.2237 20.8999 22.2424 20.8813 22.261 20.844C22.2797 20.8067 22.2983 20.7694 22.2983 20.7321C22.2983 20.6762 22.2797 20.6389 22.261 20.6203C22.2424 20.6016 22.2237 20.5643 22.1864 20.5457C22.1491 20.527 22.1119 20.5084 22.0746 20.5084C22.0373 20.5084 21.9814 20.4898 21.9441 20.4898H21.6644V20.9745Z" fill="#FF930E"/>
<path d="M25.1322 21.6081C25.0763 21.7013 24.9831 21.7572 24.8899 21.8132C24.7966 21.8691 24.6661 21.8877 24.5356 21.8877C24.4238 21.8877 24.3119 21.8691 24.2 21.8318C24.1068 21.7945 24.0136 21.7386 23.939 21.664C23.8644 21.5894 23.8085 21.4962 23.7712 21.403C23.7339 21.3098 23.7153 21.1793 23.7153 21.0674C23.7153 20.9369 23.7339 20.825 23.7712 20.7318C23.8085 20.6386 23.8644 20.5454 23.939 20.4708C24.0136 20.3962 24.1068 20.3403 24.2 20.303C24.3119 20.2657 24.4238 20.2471 24.5356 20.2471C24.5915 20.2471 24.6475 20.2471 24.7034 20.2657C24.7593 20.2844 24.8153 20.2844 24.8712 20.3216C24.9271 20.3589 24.9644 20.3589 25.0017 20.3962C25.039 20.4335 25.0763 20.4708 25.1136 20.5081L24.9458 20.6386C24.9085 20.5827 24.8526 20.5454 24.778 20.5081C24.7034 20.4708 24.6288 20.4522 24.5543 20.4522C24.461 20.4522 24.3865 20.4708 24.3119 20.5081C24.2373 20.5454 24.1814 20.5827 24.1254 20.6386C24.0695 20.6945 24.0322 20.7691 24.0136 20.8437C23.9763 20.9183 23.9763 21.0115 23.9763 21.0861C23.9763 21.1793 23.9949 21.2538 24.0136 21.3284C24.0322 21.403 24.0882 21.4776 24.1254 21.5335C24.1814 21.5894 24.2373 21.6267 24.3119 21.664C24.3865 21.7013 24.461 21.72 24.5543 21.72C24.6475 21.72 24.7221 21.7013 24.7966 21.664C24.8712 21.6267 24.9271 21.5708 24.9831 21.5149L25.1322 21.6081Z" fill="#FF930E"/>
<path d="M26.5305 21.6643H27.3508V21.8694H26.3068V20.2847H27.3135V20.4711H26.5118V20.9372H27.2576V21.1237H26.5118V21.6643H26.5305Z" fill="#FF930E"/>
<path d="M30.3712 21.8694H30.1475V20.2847H30.6508C30.7254 20.2847 30.8 20.2847 30.8746 20.3033C30.9492 20.322 31.0051 20.3406 31.061 20.3779C31.1169 20.4152 31.1542 20.4525 31.1915 20.5084C31.2288 20.5643 31.2288 20.6389 31.2288 20.7135C31.2288 20.8253 31.1915 20.9186 31.1169 20.9931C31.0424 21.0677 30.9492 21.105 30.8373 21.1237L31.2847 21.8508H31.0237L30.6136 21.1423H30.3712V21.8694ZM30.3712 20.9745H30.6322C30.6881 20.9745 30.7254 20.9745 30.7814 20.9559C30.8186 20.9559 30.8746 20.9372 30.8932 20.9186C30.9305 20.8999 30.9492 20.8813 30.9678 20.844C30.9864 20.8067 31.0051 20.7694 31.0051 20.7321C31.0051 20.6762 30.9864 20.6389 30.9678 20.6203C30.9492 20.583 30.9305 20.5643 30.8932 20.5457C30.8559 20.527 30.8186 20.5084 30.7814 20.5084C30.7441 20.5084 30.6881 20.4898 30.6508 20.4898H30.3712V20.9745Z" fill="#FF930E"/>
<path d="M34.0813 21.0674C34.0813 21.1979 34.0627 21.3098 34.0254 21.403C33.9881 21.4962 33.9322 21.5894 33.8576 21.664C33.783 21.7386 33.6898 21.7945 33.5966 21.8318C33.4847 21.8691 33.3729 21.8877 33.261 21.8877C33.1491 21.8877 33.0373 21.8691 32.9254 21.8318C32.8135 21.7945 32.739 21.7386 32.6644 21.664C32.5898 21.5894 32.5339 21.4962 32.4966 21.403C32.4593 21.3098 32.4406 21.1793 32.4406 21.0674C32.4406 20.9369 32.4593 20.825 32.4966 20.7318C32.5339 20.6386 32.5898 20.5454 32.6644 20.4708C32.739 20.3962 32.8322 20.3403 32.9254 20.303C33.0186 20.2657 33.1305 20.2471 33.261 20.2471C33.3729 20.2471 33.4847 20.2657 33.5966 20.303C33.7085 20.3403 33.783 20.3962 33.8576 20.4708C33.9322 20.5454 33.9881 20.6386 34.0254 20.7318C34.0627 20.825 34.0813 20.9369 34.0813 21.0674ZM33.839 21.0674C33.839 20.9742 33.8203 20.8996 33.8017 20.825C33.783 20.7505 33.7271 20.6759 33.6898 20.62C33.6339 20.564 33.5779 20.5081 33.5034 20.4894C33.4288 20.4522 33.3542 20.4335 33.261 20.4335C33.1678 20.4335 33.0932 20.4522 33.0186 20.4894C32.944 20.5267 32.8881 20.564 32.8322 20.62C32.7762 20.6759 32.739 20.7505 32.7203 20.825C32.683 20.8996 32.683 20.9928 32.683 21.0674C32.683 21.1606 32.7017 21.2352 32.7203 21.3098C32.7576 21.3844 32.7949 21.4589 32.8322 21.5149C32.8881 21.5708 32.944 21.6081 33.0186 21.6454C33.0932 21.6827 33.1678 21.7013 33.261 21.7013C33.3542 21.7013 33.4288 21.6827 33.5034 21.6454C33.5779 21.6081 33.6339 21.5708 33.6898 21.5149C33.7457 21.4589 33.783 21.3844 33.8017 21.3098C33.8203 21.2352 33.839 21.1606 33.839 21.0674Z" fill="#FF930E"/>
<path d="M35.9457 21.9064C35.8339 21.9064 35.7593 21.8877 35.6661 21.8505C35.5915 21.8132 35.5169 21.7759 35.4796 21.7013C35.4237 21.6454 35.3864 21.5708 35.3678 21.4962C35.3491 21.4216 35.3305 21.3471 35.3305 21.2539V20.2471H35.5542V21.2352C35.5542 21.2911 35.5542 21.3471 35.5728 21.403C35.5915 21.4589 35.6101 21.4962 35.6474 21.5522C35.6847 21.5894 35.722 21.6267 35.7593 21.6454C35.8152 21.664 35.8712 21.6827 35.9457 21.6827C36.0203 21.6827 36.0762 21.664 36.1322 21.6454C36.1881 21.6267 36.2254 21.5894 36.2627 21.5522C36.3 21.5149 36.3186 21.4589 36.3373 21.403C36.3559 21.3471 36.3559 21.2911 36.3559 21.2352V20.2471H36.5796V21.2539C36.5796 21.3284 36.561 21.4216 36.5423 21.4962C36.5237 21.5708 36.4864 21.6454 36.4305 21.7013C36.3745 21.7572 36.3186 21.8132 36.244 21.8505C36.1322 21.8877 36.0576 21.9064 35.9457 21.9064Z" fill="#FF930E"/>
<path d="M38.4441 21.8694H38.2204V20.4711H37.717V20.2847H38.9475V20.4711H38.4441V21.8694Z" fill="#FF930E"/>
<path d="M40.3458 21.8694H40.122V20.2847H40.3458V21.8694Z" fill="#FF930E"/>
<path d="M42.8068 21.5525V20.2847H43.0305V21.8694H42.7509L41.9119 20.583V21.8694H41.6881V20.2847H41.9678L42.8068 21.5525Z" fill="#FF930E"/>
<path d="M45.5848 20.6013C45.5289 20.5454 45.4729 20.5081 45.3983 20.4708C45.3238 20.4335 45.2492 20.4149 45.156 20.4149C45.0628 20.4149 44.9882 20.4335 44.9136 20.4708C44.839 20.5081 44.7831 20.5454 44.7272 20.6013C44.6712 20.6572 44.6339 20.7318 44.6153 20.8064C44.578 20.881 44.578 20.9742 44.578 21.0488C44.578 21.142 44.5967 21.2166 44.6153 21.2911C44.6526 21.3657 44.6899 21.4403 44.7272 21.4962C44.7831 21.5522 44.839 21.5894 44.9136 21.6267C44.9882 21.664 45.0814 21.6827 45.1746 21.6827C45.2492 21.6827 45.3238 21.6827 45.3797 21.664C45.4356 21.6454 45.4916 21.6267 45.5475 21.6081V21.1606H45.1933V20.9742H45.7712V21.7386C45.6966 21.7759 45.6034 21.8132 45.4916 21.8505C45.3983 21.8691 45.2865 21.8877 45.1746 21.8877C45.0441 21.8877 44.9322 21.8691 44.839 21.8318C44.7272 21.7945 44.6526 21.7386 44.578 21.664C44.5034 21.5894 44.4475 21.4962 44.4102 21.403C44.3729 21.3098 44.3543 21.1793 44.3543 21.0674C44.3543 20.9369 44.3729 20.825 44.4102 20.7318C44.4475 20.6386 44.5034 20.5454 44.578 20.4708C44.6526 20.3962 44.7458 20.3403 44.839 20.303C44.9509 20.2657 45.0628 20.2471 45.1746 20.2471C45.3051 20.2471 45.417 20.2657 45.5102 20.303C45.6034 20.3403 45.6966 20.3962 45.7526 20.4522L45.5848 20.6013Z" fill="#FF930E"/>
<path d="M49.4254 21.4965L49.8915 20.2847H50.2271V21.8694H50.0034V20.5457L49.4814 21.8694H49.3322L48.8102 20.5457V21.8694H48.5865V20.2847H48.922L49.4254 21.4965Z" fill="#FF930E"/>
<path d="M51.6627 21.8694H51.4203L52.1102 20.2847H52.3153L52.9865 21.8694H52.7441L52.5763 21.4779H51.8305L51.6627 21.8694ZM51.9051 21.2728H52.5017L52.2034 20.527L51.9051 21.2728Z" fill="#FF930E"/>
<path d="M55.4661 21.6081C55.4102 21.7013 55.317 21.7572 55.2238 21.8132C55.1306 21.8691 55 21.8877 54.8695 21.8877C54.7577 21.8877 54.6458 21.8691 54.5339 21.8318C54.4221 21.7945 54.3475 21.7386 54.2729 21.664C54.1983 21.5894 54.1424 21.4962 54.1051 21.403C54.0678 21.3098 54.0492 21.1793 54.0492 21.0674C54.0492 20.9369 54.0678 20.825 54.1051 20.7318C54.1424 20.6386 54.1983 20.5454 54.2729 20.4708C54.3475 20.3962 54.4407 20.3403 54.5339 20.303C54.6458 20.2657 54.7577 20.2471 54.8695 20.2471C54.9255 20.2471 54.9814 20.2471 55.0373 20.2657C55.0933 20.2844 55.1492 20.2844 55.2051 20.3216C55.2611 20.3403 55.2983 20.3589 55.3356 20.3962C55.3729 20.4335 55.4102 20.4708 55.4475 20.5081L55.2797 20.6386C55.2424 20.5827 55.1865 20.5454 55.1119 20.5081C55.0373 20.4708 54.9628 20.4522 54.8882 20.4522C54.795 20.4522 54.7204 20.4708 54.6458 20.5081C54.5712 20.5454 54.5153 20.5827 54.4594 20.6386C54.4034 20.6945 54.3661 20.7691 54.3475 20.8437C54.3102 20.9183 54.3102 21.0115 54.3102 21.0861C54.3102 21.1793 54.3289 21.2538 54.3475 21.3284C54.3661 21.403 54.4221 21.4776 54.4594 21.5335C54.4967 21.5894 54.5712 21.6267 54.6458 21.664C54.7204 21.7013 54.795 21.72 54.8882 21.72C54.9814 21.72 55.056 21.7013 55.1306 21.664C55.2051 21.6267 55.2611 21.5708 55.317 21.5149L55.4661 21.6081Z" fill="#FF930E"/>
<path d="M56.6594 20.2847H56.8831V20.9559H57.6848V20.2847H57.9085V21.8694H57.6848V21.1423H56.8831V21.8694H56.6594V20.2847Z" fill="#FF930E"/>
<path d="M59.4746 21.8694H59.2509V20.2847H59.4746V21.8694Z" fill="#FF930E"/>
<path d="M61.9356 21.5525V20.2847H62.1593V21.8694H61.8797L61.0407 20.583V21.8694H60.817V20.2847H61.0966L61.9356 21.5525Z" fill="#FF930E"/>
<path d="M63.7254 21.6643H64.5457V21.8694H63.5017V20.2847H64.5085V20.4711H63.7068V20.9372H64.4525V21.1237H63.7068V21.6643H63.7254Z" fill="#FF930E"/>
<defs>
<linearGradient id="paint0_linear_84_3266" x1="0.815055" y1="9.52076" x2="64.4732" y2="9.52076" gradientUnits="userSpaceOnUse">
<stop stop-color="#005591"/>
<stop offset="1" stop-color="#572B7A"/>
</linearGradient>
</defs>
</svg>
