<svg width="39" height="41" viewBox="0 0 39 41" fill="none" xmlns="http://www.w3.org/2000/svg">
<path d="M36.5792 16.972H24.0086C23.7069 16.972 23.4176 16.8521 23.2043 16.6388C22.991 16.4255 22.8711 16.1362 22.8711 15.8345V2.7326C22.8711 1.75761 22.088 0.975098 21.1136 0.975098H16.623C15.648 0.975098 14.8655 1.75823 14.8655 2.7326V15.7463C14.8655 16.4257 14.3192 16.9726 13.6392 16.9726L9.518 16.9876C8.83862 16.9876 8.27737 16.4413 8.29175 15.7613L8.32112 2.73322C8.32112 1.75822 7.538 0.975727 6.56362 0.975727H2.073C1.098 0.975727 0.315491 1.75884 0.315491 2.73322V39.4095C0.315491 40.2657 1.00924 40.9751 1.88112 40.9751H36.5786C37.4349 40.9751 38.1442 40.2813 38.1442 39.4095V18.537C38.1455 18.331 38.1058 18.1269 38.0276 17.9364C37.9494 17.7459 37.8341 17.5728 37.6885 17.4271C37.5428 17.2815 37.3697 17.1662 37.1792 17.088C36.9887 17.0098 36.7846 16.9701 36.5786 16.9713L36.5792 16.972ZM30.6855 30.7389C30.684 31.279 30.4687 31.7967 30.0867 32.1786C29.7046 32.5605 29.1869 32.7757 28.6467 32.777H25.1017C24.5617 32.7755 24.0441 32.5603 23.6622 32.1784C23.2803 31.7965 23.0651 31.2789 23.0636 30.7389V27.1939C23.0651 26.6538 23.2803 26.1362 23.6622 25.7543C24.0441 25.3724 24.5617 25.1572 25.1017 25.1557H28.6467C29.1869 25.157 29.7046 25.3722 30.0867 25.7541C30.4687 26.136 30.684 26.6537 30.6855 27.1939V30.7389Z" fill="#FF6600"/>
</svg>
