<svg width="56" height="56" viewBox="0 0 56 56" fill="none" xmlns="http://www.w3.org/2000/svg">
<path d="M52.8682 30.2182V25.9414V25.9329C52.8682 24.0349 51.333 22.4997 49.435 22.4997C49.4265 22.4997 49.4097 22.4997 49.4012 22.4997H44.3314V19.9268H52.8598V16.502H42.5937H42.5768C40.6873 16.502 39.1436 18.0372 39.1436 19.9352V23.3685C39.1436 25.2496 40.662 26.7765 42.5347 26.7934H47.7141V30.2182H39.152V33.6515H49.4771C51.3498 33.6262 52.8598 32.0993 52.8682 30.2182Z" fill="#9D9C9C"/>
<path d="M34.0061 16.502H15.1525V33.643H20.332V19.9268H23.6809V33.643H28.8604V19.9268H32.2515V33.643H37.4309V19.9268C37.4393 18.0372 35.9041 16.502 34.0061 16.502ZM7.43398 30.2182V19.9268H13.4317V16.502H5.67938C3.78137 16.502 2.24609 18.0372 2.24609 19.9352V30.2182C2.24609 32.1078 3.78137 33.6515 5.67938 33.6515H13.4317V30.2182H7.43398Z" fill="#9D9C9C"/>
<path d="M52.8684 35.3555H2.25488V35.7941H52.8684V35.3555ZM52.8684 37.9283H2.25488V36.6461H52.8684V37.9283Z" fill="#E3051B"/>
</svg>
