<svg width="26" height="26" viewBox="0 0 26 26" fill="none" xmlns="http://www.w3.org/2000/svg">
<path d="M12.1823 3.06226C12.1823 2.85729 12.2637 2.66072 12.4087 2.51578C12.5537 2.37085 12.7503 2.28943 12.9553 2.28943C13.1603 2.28943 13.3569 2.37085 13.5018 2.51578C13.6468 2.66072 13.7282 2.85729 13.7282 3.06226C13.7282 3.26723 13.6468 3.46381 13.5018 3.60874C13.3569 3.75368 13.1603 3.8351 12.9553 3.8351C12.7503 3.8351 12.5537 3.75368 12.4087 3.60874C12.2637 3.46381 12.1823 3.26723 12.1823 3.06226ZM2.96075 10.0598C2.96075 9.85483 3.04219 9.65826 3.18715 9.51332C3.33211 9.36839 3.52871 9.28697 3.73372 9.28697C3.93872 9.28697 4.13532 9.36839 4.28028 9.51332C4.42524 9.65826 4.50668 9.85483 4.50668 10.0598C4.50668 10.2648 4.42524 10.4613 4.28028 10.6063C4.13532 10.7512 3.93872 10.8326 3.73372 10.8326C3.52871 10.8326 3.33211 10.7512 3.18715 10.6063C3.04219 10.4613 2.96075 10.2648 2.96075 10.0598ZM21.3984 10.0958C21.3984 9.89083 21.4798 9.69426 21.6248 9.54932C21.7698 9.40439 21.9664 9.32296 22.1714 9.32296C22.3764 9.32296 22.573 9.40439 22.7179 9.54932C22.8629 9.69426 22.9443 9.89083 22.9443 10.0958C22.9443 10.3008 22.8629 10.4973 22.7179 10.6423C22.573 10.7872 22.3764 10.8686 22.1714 10.8686C21.9664 10.8686 21.7698 10.7872 21.6248 10.6423C21.4798 10.4973 21.3984 10.3008 21.3984 10.0958ZM5.19836 11.1604C5.55402 10.9968 5.71495 10.5856 5.55675 10.2294L5.21473 9.44786H6.56373V15.5264H3.84281C3.50689 14.3468 3.40224 13.1133 3.53461 11.894L5.19836 11.1604ZM10.8404 11.3099V9.51331H14.0517C14.2175 9.51331 15.2229 9.70529 15.2229 10.4569C15.2229 11.0808 14.4516 11.305 13.8177 11.305L10.8404 11.3099ZM6.45463 20.9564C6.45463 20.855 6.47463 20.7545 6.51347 20.6607C6.55232 20.5669 6.60925 20.4817 6.68103 20.41C6.75281 20.3382 6.83802 20.2813 6.9318 20.2424C7.02558 20.2036 7.12609 20.1836 7.2276 20.1836C7.3291 20.1836 7.42962 20.2036 7.5234 20.2424C7.61718 20.2813 7.70239 20.3382 7.77416 20.41C7.84594 20.4817 7.90288 20.5669 7.94172 20.6607C7.98057 20.7545 8.00056 20.855 8.00056 20.9564C8.00056 21.1614 7.91912 21.358 7.77416 21.5029C7.62921 21.6479 7.4326 21.7293 7.2276 21.7293C7.02259 21.7293 6.82599 21.6479 6.68103 21.5029C6.53607 21.358 6.45463 21.1614 6.45463 20.9564ZM17.9078 20.9924C17.9078 20.7875 17.9892 20.5909 18.1342 20.446C18.2792 20.301 18.4758 20.2196 18.6808 20.2196C18.8858 20.2196 19.0824 20.301 19.2273 20.446C19.3723 20.5909 19.4537 20.7875 19.4537 20.9924C19.4537 21.1974 19.3723 21.394 19.2273 21.5389C19.0824 21.6839 18.8858 21.7653 18.6808 21.7653C18.4758 21.7653 18.2792 21.6839 18.1342 21.5389C17.9892 21.394 17.9078 21.1974 17.9078 20.9924ZM18.1467 19.2401C18.0562 19.2205 17.9626 19.2191 17.8715 19.2358C17.7804 19.2525 17.6935 19.287 17.6157 19.3374C17.538 19.3877 17.4709 19.453 17.4185 19.5293C17.366 19.6056 17.3291 19.6916 17.3099 19.7822L16.9281 21.5929C15.6804 22.158 14.3254 22.4471 12.9557 22.4405C11.586 22.4339 10.2339 22.1318 8.99172 21.5547L8.60988 19.744C8.59064 19.6534 8.55371 19.5676 8.50121 19.4913C8.44871 19.415 8.38167 19.3498 8.30393 19.2995C8.22619 19.2492 8.13928 19.2147 8.04819 19.1981C7.9571 19.1814 7.86361 19.1829 7.77309 19.2024L6.1748 19.546C5.87781 19.2402 5.60171 18.9148 5.34837 18.5719H13.126C13.2133 18.5719 13.2733 18.5556 13.2733 18.4759V15.7255C13.2733 15.6453 13.2144 15.6295 13.126 15.6295H10.8513V13.8858H13.306C13.5308 13.8858 14.5061 13.9502 14.8187 15.1975L15.278 17.2291C15.4242 17.6775 16.0198 18.5725 16.6543 18.5725H20.6702C20.4008 18.9329 20.1062 19.2737 19.7887 19.5924L18.1467 19.2401ZM22.4654 11.9769C22.52 12.526 22.5268 13.0787 22.4856 13.6289H21.5037C21.4055 13.6289 21.3673 13.6933 21.3673 13.7887V14.2371C21.3673 15.2924 20.7673 15.522 20.2507 15.5804C19.7597 15.6366 19.2033 15.3731 19.1357 15.0688C18.8428 13.4217 18.3546 13.0693 17.5838 12.4618C18.5406 11.8542 19.5366 10.9581 19.5366 9.75874C19.5366 8.4634 18.6486 7.64802 18.0431 7.2477C17.1937 6.68811 16.2539 6.57576 15.9997 6.57576H5.90641C7.30242 5.01592 9.17389 3.95985 11.231 3.57113L12.4212 4.82556C12.4851 4.89255 12.5615 4.94629 12.6461 4.98371C12.7308 5.02113 12.822 5.04148 12.9145 5.04361C13.007 5.04574 13.0991 5.0296 13.1854 4.99611C13.2716 4.96263 13.3504 4.91245 13.4173 4.84846L14.7494 3.57494C16.1071 3.82915 17.3931 4.37579 18.5182 5.17692C19.6433 5.97805 20.5805 7.01445 21.2648 8.21415L20.3538 10.2731C20.1901 10.6292 20.3571 11.0464 20.7122 11.2041L22.4654 11.9769ZM24.7401 12.0096L24.709 11.6911L25.6483 10.8152C25.6912 10.7697 25.7226 10.7145 25.7399 10.6544C25.7572 10.5943 25.7599 10.5309 25.7477 10.4696C25.7355 10.4082 25.7089 10.3506 25.67 10.3017C25.6311 10.2527 25.581 10.2137 25.524 10.188L24.3239 9.73911L24.2301 9.42932L24.979 8.38923C25.0123 8.33616 25.0324 8.2759 25.0376 8.21349C25.0428 8.15108 25.033 8.08833 25.0091 8.03047C24.9851 7.97261 24.9476 7.92132 24.8998 7.88088C24.852 7.84044 24.7951 7.81203 24.7341 7.79801L23.4686 7.59185L23.3158 7.30824L23.8477 6.14107C23.9568 5.90328 23.7549 5.59949 23.4931 5.6093L22.2085 5.65403L22.0055 5.40859L22.3001 4.15744C22.3105 4.0957 22.306 4.03236 22.287 3.97271C22.268 3.91306 22.235 3.85883 22.1907 3.81453C22.1465 3.77023 22.0923 3.73715 22.0326 3.71806C21.973 3.69896 21.9097 3.6944 21.8479 3.70475L20.5965 3.99927L20.35 3.79638L20.3952 2.51195C20.3934 2.44938 20.3766 2.38816 20.3463 2.33339C20.316 2.27862 20.273 2.23189 20.221 2.19709C20.1689 2.16229 20.1093 2.14044 20.0471 2.13335C19.9849 2.12627 19.9219 2.13415 19.8634 2.15635L18.696 2.68866L18.4124 2.53595L18.2062 1.27061C18.1921 1.20965 18.1637 1.15293 18.1233 1.10518C18.0829 1.05742 18.0317 1.02 17.9739 0.996045C17.9161 0.972088 17.8534 0.962282 17.791 0.967444C17.7287 0.972606 17.6685 0.992587 17.6154 1.02572L16.579 1.76856L16.2697 1.67475L15.8207 0.474865C15.7951 0.417803 15.7561 0.3677 15.7072 0.328732C15.6582 0.289764 15.6006 0.263057 15.5393 0.250837C15.4779 0.238618 15.4145 0.241239 15.3543 0.258482C15.2942 0.275725 15.239 0.307091 15.1934 0.349967L14.3114 1.28861L13.9928 1.25752L13.3164 0.16453C13.2801 0.113642 13.2321 0.0721643 13.1765 0.043547C13.1209 0.0149297 13.0593 0 12.9967 0C12.9342 0 12.8726 0.0149297 12.817 0.043547C12.7614 0.0721643 12.7134 0.113642 12.6771 0.16453L12.0007 1.25752L11.6821 1.28861L10.806 0.348876C10.7605 0.306 10.7053 0.274634 10.6451 0.257391C10.585 0.240148 10.5216 0.237527 10.4602 0.249747C10.3988 0.261966 10.3412 0.288673 10.2923 0.327641C10.2433 0.366609 10.2044 0.416712 10.1787 0.473774L9.72977 1.67366L9.41993 1.76747L8.3835 1.02027C8.33041 0.987019 8.27015 0.966944 8.20773 0.961721C8.14531 0.956497 8.08254 0.966277 8.02467 0.990243C7.9668 1.01421 7.91551 1.05167 7.87506 1.09949C7.83462 1.14731 7.8062 1.20412 7.79218 1.26516L7.58598 2.53049L7.30233 2.68321L6.13497 2.15089C6.07644 2.1287 6.01344 2.12081 5.95123 2.1279C5.88903 2.13499 5.82942 2.15684 5.77738 2.19164C5.72534 2.22643 5.68237 2.27316 5.65205 2.32793C5.62174 2.3827 5.60496 2.44393 5.60312 2.5065L5.64785 3.79092L5.40129 3.99381L4.14993 3.6993C4.08813 3.68884 4.02472 3.69333 3.96501 3.71238C3.9053 3.73144 3.85102 3.7645 3.8067 3.80881C3.76238 3.85312 3.72931 3.9074 3.71026 3.9671C3.6912 4.0268 3.68671 4.09019 3.69717 4.15198L3.99173 5.40314L3.7899 5.64857L2.50527 5.60385C2.24616 5.59621 2.0416 5.89837 2.1496 6.13562L2.68201 7.30278L2.52927 7.58639L1.26372 7.79256C1.00734 7.83455 0.867151 8.17216 1.01825 8.38378L1.76721 9.42386L1.67339 9.73365L0.473305 10.1825C0.416275 10.2082 0.366217 10.2472 0.327299 10.2962C0.288381 10.3452 0.261728 10.4027 0.249561 10.4641C0.237394 10.5255 0.240063 10.5888 0.257348 10.649C0.274633 10.7091 0.306033 10.7642 0.348933 10.8097L1.28827 11.6857L1.25718 12.0042L0.164556 12.6805C0.11366 12.7168 0.072176 12.7648 0.0435541 12.8203C0.0149321 12.8759 0 12.9376 0 13.0001C0 13.0626 0.0149321 13.1242 0.0435541 13.1798C0.072176 13.2354 0.11366 13.2834 0.164556 13.3197L1.25718 13.996L1.28827 14.3145L0.348933 15.1904C0.306033 15.236 0.274633 15.2911 0.257348 15.3512C0.240063 15.4113 0.237394 15.4747 0.249561 15.5361C0.261728 15.5974 0.288381 15.655 0.327299 15.704C0.366217 15.7529 0.416275 15.7919 0.473305 15.8176L1.67339 16.2665L1.76721 16.5763L1.01825 17.6164C0.985111 17.6694 0.965127 17.7296 0.959964 17.792C0.954801 17.8543 0.964608 17.917 0.988569 17.9748C1.01253 18.0326 1.04995 18.0838 1.09772 18.1242C1.14548 18.1646 1.20221 18.193 1.26318 18.2071L2.52872 18.4132L2.68146 18.6979L2.14906 19.8651C2.12686 19.9236 2.11897 19.9866 2.12606 20.0488C2.13315 20.111 2.15501 20.1706 2.18981 20.2226C2.22461 20.2747 2.27135 20.3176 2.32613 20.3479C2.38091 20.3782 2.44214 20.395 2.50472 20.3969L3.78881 20.3516L3.99173 20.5981L3.69717 21.8498C3.68691 21.9115 3.69155 21.9748 3.71069 22.0343C3.72983 22.0939 3.76293 22.148 3.80722 22.1922C3.85152 22.2364 3.90573 22.2693 3.96534 22.2883C4.02495 22.3073 4.08823 22.3118 4.14993 22.3014L5.40129 22.0069L5.64785 22.2087L5.60312 23.4937C5.60505 23.5562 5.62189 23.6173 5.65224 23.672C5.68258 23.7267 5.72556 23.7734 5.77759 23.8081C5.82962 23.8429 5.8892 23.8647 5.95136 23.8717C6.01353 23.8788 6.07648 23.8709 6.13497 23.8487L7.30233 23.3169L7.58598 23.4697L7.79218 24.735C7.80613 24.7961 7.8345 24.8529 7.87491 24.9008C7.91533 24.9487 7.96662 24.9863 8.0245 25.0103C8.08238 25.0343 8.14517 25.0441 8.20762 25.0389C8.27007 25.0337 8.33038 25.0137 8.3835 24.9804L9.42375 24.231L9.73359 24.3254L10.1825 25.5253C10.2083 25.5823 10.2472 25.6324 10.2962 25.6713C10.3452 25.7102 10.4028 25.7368 10.4642 25.749C10.5255 25.7612 10.5889 25.7585 10.649 25.7412C10.7092 25.7239 10.7643 25.6925 10.8098 25.6496L11.6859 24.7105L12.0045 24.7421L12.6809 25.8345C12.8173 26.0549 13.1827 26.0554 13.3202 25.8345L13.9972 24.741L14.3157 24.7094L15.1918 25.6486C15.2373 25.6914 15.2925 25.7228 15.3526 25.7401C15.4127 25.7574 15.4761 25.7601 15.5375 25.7479C15.5988 25.7357 15.6564 25.7091 15.7054 25.6702C15.7544 25.6313 15.7934 25.5812 15.8191 25.5242L16.268 24.3243L16.5779 24.23L17.6181 24.9793C17.6712 25.0125 17.7315 25.0324 17.7939 25.0376C17.8563 25.0427 17.919 25.0328 17.9768 25.0088C18.0346 24.9848 18.0858 24.9473 18.1262 24.8995C18.1666 24.8517 18.1949 24.7949 18.2089 24.7339L18.4151 23.4686L18.6988 23.3159L19.8661 23.8476C19.9246 23.8698 19.9876 23.8777 20.0497 23.8706C20.1119 23.8636 20.1715 23.8418 20.2235 23.807C20.2755 23.7723 20.3185 23.7257 20.3489 23.671C20.3792 23.6163 20.396 23.5551 20.398 23.4926L20.3532 22.2076L20.5998 22.0058L21.8512 22.3003C21.9128 22.3106 21.976 22.3061 22.0356 22.287C22.0951 22.268 22.1492 22.235 22.1935 22.1908C22.2377 22.1467 22.2707 22.0926 22.2899 22.0331C22.309 21.9736 22.3136 21.9104 22.3034 21.8487L22.0088 20.597L22.2106 20.3505L23.4953 20.3958C23.5578 20.3938 23.619 20.377 23.6737 20.3467C23.7284 20.3163 23.7751 20.2733 23.8098 20.2213C23.8445 20.1693 23.8664 20.1097 23.8734 20.0476C23.8805 19.9854 23.8726 19.9225 23.8504 19.864L23.3185 18.6968L23.4713 18.4121L24.7368 18.206C24.7978 18.1919 24.8545 18.1635 24.9023 18.1231C24.95 18.0827 24.9875 18.0315 25.0114 17.9737C25.0354 17.9159 25.0452 17.8532 25.04 17.7909C25.0349 17.7286 25.0149 17.6684 24.9817 17.6153L24.2328 16.5752L24.3266 16.2654L25.5267 15.8165C25.5837 15.7908 25.6338 15.7518 25.6727 15.7029C25.7116 15.6539 25.7383 15.5963 25.7504 15.535C25.7626 15.4736 25.7599 15.4102 25.7427 15.3501C25.7254 15.29 25.694 15.2349 25.6511 15.1893L24.7117 14.3134L24.7428 13.9949L25.8354 13.3186C25.8863 13.2823 25.9278 13.2343 25.9564 13.1787C25.9851 13.1231 26 13.0615 26 12.999C26 12.9365 25.9851 12.8748 25.9564 12.8193C25.9278 12.7637 25.8863 12.7157 25.8354 12.6794L24.7401 12.0096Z" fill="black"/>
</svg>
