<svg width="41" height="41" viewBox="0 0 41 41" fill="none" xmlns="http://www.w3.org/2000/svg">
<path d="M0.431152 0.974609H40.4312V40.9746H0.431152V0.974609Z" fill="#34BDB2"/>
<path d="M26.7532 14.5744C24.6413 13.3491 22.7666 12.3855 20.3141 12.428C18.911 12.4524 17.7063 13.215 17.453 14.6108C17.2173 15.9094 18.3716 16.6297 19.5726 17.0719C21.5643 17.8054 23.2982 18.5797 25.2552 19.3952C28.8129 20.8779 30.6371 23.2789 30.4215 26.3597C30.1471 30.2796 27.788 33.091 24.0388 34.0179C19.1398 35.2291 14.3824 33.3841 10.3629 30.8085C11.3774 29.263 12.5544 28.208 13.5629 26.6719C15.8851 27.6604 17.7094 28.996 20.1388 29.2043C21.8518 29.3511 23.7927 29.2694 24.1776 27.2574C24.5244 25.443 22.9454 24.4704 21.4052 23.9271C19.5716 23.2804 17.7415 22.4893 15.9434 21.7549C12.6194 20.3972 11.2669 17.7418 11.4946 14.6135C11.4946 12.7793 13.0165 9.07192 16.7479 7.9188C22.481 6.14692 25.6398 7.9613 29.7971 10.633C28.6929 12.0933 27.844 13.1316 26.7532 14.5744Z" fill="white"/>
</svg>
