<svg width="83" height="25" viewBox="0 0 83 25" fill="none" xmlns="http://www.w3.org/2000/svg">
<path fill-rule="evenodd" clip-rule="evenodd" d="M11.6297 0.0135014C13.7743 -0.0882523 16.312 0.370485 16.7847 1.89003C17.5596 4.3806 13.632 8.01216 10.2094 9.79468C9.37059 10.2317 8.86205 10.3516 8.65024 10.3218C8.44788 10.2936 8.41677 10.0911 8.48239 9.95154C8.60444 9.68983 9.15602 9.15611 9.89513 8.57631C13.7478 5.55471 15.0004 3.33811 14.2731 2.43952C13.8066 1.86438 11.8534 1.46455 9.82545 1.46455C9.27479 1.46455 7.82806 1.5928 7.6795 1.08107C7.55837 0.661653 9.50038 0.11455 11.6297 0.0135014Z" fill="#005386"/>
<path fill-rule="evenodd" clip-rule="evenodd" d="M7.09345 11.433C8.93231 11.3251 11.1661 11.6475 12.4207 12.6116C13.0445 13.0902 13.4832 13.9716 13.2292 14.982C12.5051 17.8497 9.80225 21.3189 3.79648 23.9848C1.8868 24.8326 0.385224 25.1569 0.0700145 24.9295C-0.268755 24.6849 0.71614 22.7927 1.01253 22.1645C1.97143 20.1304 3.16917 18.1498 4.33685 16.3366C4.76715 15.6692 5.43088 14.512 6.03219 14.6045C6.5704 14.6875 5.93998 15.9176 5.52526 16.6997C4.82849 18.012 2.90934 21.6578 3.54247 21.8755C4.94209 22.3576 11.5088 17.3412 10.5406 14.5473C10.0917 13.2507 7.24049 13.1272 5.44483 13.1272C4.6281 13.1272 2.84421 13.321 2.74551 12.693C2.63895 12.1135 5.45566 11.5302 7.09345 11.433Z" fill="#005386"/>
<path fill-rule="evenodd" clip-rule="evenodd" d="M21.2959 8.36085C22.3996 8.56107 23.2993 8.71609 23.5059 9.18399C23.7377 9.71425 22.5357 9.74633 21.9299 9.75886C19.0262 9.81541 17.2753 9.8727 17.1877 10.8634C17.0737 12.1388 18.4286 13.4225 19.7664 15.2229C20.9887 16.8662 22.3783 18.4876 21.9777 20C21.4785 21.8837 19.1786 22.2822 16.9888 22.2825C14.8912 22.2845 12.9039 21.9465 12.0693 21.78C11.0294 21.5738 11.1839 21.058 11.4614 20.8921C11.7704 20.7068 13.5386 20.7023 14.7672 20.6291C15.7783 20.5692 18.7149 20.5709 19.1726 19.8155C19.7342 18.891 18.3594 17.3082 17.0973 15.6507C15.5222 13.5824 13.7922 11.4475 14.7077 9.88822C15.8926 7.87072 19.3586 8.00903 21.2959 8.36085Z" fill="#005386"/>
<path fill-rule="evenodd" clip-rule="evenodd" d="M66.5535 14.0163C68.8855 14.0163 69.7841 13.215 70.153 11.3637L70.7058 8.47986C70.7428 8.28692 70.6278 8.2285 70.4817 8.2285H69.354L69.0442 9.8878L68.8668 10.7709L68.7189 11.5383C68.5124 12.5833 67.8389 13.0542 66.6967 13.0542C65.4401 13.0542 65.1038 12.5949 65.3005 11.5383C65.3005 11.5383 65.3489 11.2743 65.3655 11.1951L65.6255 9.8878L65.9361 8.2285H64.8078C64.6618 8.2285 64.5244 8.28692 64.4871 8.47986L63.9328 11.3637C63.5543 13.3974 64.562 14.0163 66.5535 14.0163ZM26.9423 17.1442C26.7736 17.9406 27.3942 18.3256 28.6552 19.1115C30.0332 19.9702 30.3485 20.0358 30.2216 20.4885C30.1199 20.8531 29.7583 20.8683 29.1375 20.8683H26.6817C26.4028 20.8683 26.2407 20.9834 26.1922 21.2338L26.0937 21.7391H29.1899C30.6074 21.7391 31.4955 21.6509 31.8181 20.7815C31.9746 20.3573 31.973 19.9189 31.5906 19.4856C31.3958 19.2651 31.1083 19.0715 30.7118 18.8469C28.9418 17.8425 28.4798 17.7263 28.5916 17.2397C28.6549 16.9661 28.8431 16.956 29.5087 16.956H31.5846C31.8646 16.956 32.0267 16.8408 32.0752 16.5907L32.1775 16.063H29.5504C28.0626 16.063 27.1689 16.0718 26.9423 17.1442ZM40.5972 17.1442C40.4292 17.9406 41.0497 18.3256 42.3096 19.1115C43.6894 19.9702 44.0042 20.0358 43.8764 20.4885C43.7743 20.8531 43.4128 20.8683 42.7923 20.8683H40.3372C40.058 20.8683 39.8957 20.9834 39.8472 21.2338L39.7497 21.7391H42.8457C44.263 21.7391 45.1507 21.6509 45.4726 20.7815C45.631 20.3573 45.6291 19.9189 45.2467 19.4856C45.0508 19.2651 44.7641 19.0715 44.3663 18.8469C42.5972 17.8425 42.1355 17.7263 42.2471 17.2397C42.3096 16.9661 42.4979 16.956 43.1639 16.956H45.241C45.5196 16.956 45.6822 16.8408 45.7302 16.5907L45.8332 16.063H43.2058C41.7176 16.063 40.8245 16.0718 40.5972 17.1442ZM75.2032 17.1442C75.0355 17.9406 75.656 18.3256 76.9146 19.1115C78.2946 19.9702 78.6098 20.0358 78.4814 20.4885C78.3806 20.8531 78.019 20.8683 77.3989 20.8683H74.9429C74.6636 20.8683 74.5015 20.9834 74.4529 21.2338L74.3554 21.7391H77.452C78.8683 21.7391 79.7562 21.6509 80.0787 20.7815C80.2364 20.3573 80.2345 19.9189 79.8518 19.4856C79.657 19.2651 79.3691 19.0715 78.9719 18.8469C77.2032 17.8425 76.7403 17.7263 76.853 17.2397C76.9146 16.9661 77.1045 16.956 77.7702 16.956H79.8469C80.1255 16.956 80.2874 16.8408 80.336 16.5907L80.439 16.063H77.8122C76.3238 16.063 75.4305 16.0718 75.2032 17.1442ZM54.7694 12.9321C54.9262 12.5075 54.9249 12.0687 54.5419 11.6363C54.3469 11.4154 54.0599 11.2223 53.6621 10.9959C51.8928 9.99155 51.431 9.8768 51.5422 9.38999C51.6052 9.11723 51.7942 9.10594 52.4606 9.10594H54.536C54.8157 9.10594 54.978 8.99119 55.0267 8.74162L55.1286 8.21126H52.5014C51.0132 8.21126 50.1201 8.22092 49.8921 9.29442C49.7248 10.09 50.3455 10.476 51.6052 11.262C52.984 12.1206 53.2986 12.1858 53.1727 12.6396C53.0699 13.0042 52.7088 13.0187 52.0889 13.0187H49.6334C49.3536 13.0187 49.1911 13.1338 49.1427 13.384L49.0456 13.8903H52.1414C53.5579 13.8903 54.4471 13.8024 54.7694 12.9321ZM48.1725 12.9321C48.329 12.5075 48.3277 12.0687 47.9459 11.6363C47.7501 11.4154 47.4628 11.2223 47.0657 10.9959C45.2953 9.99155 44.8342 9.8768 44.9464 9.38999C45.0085 9.11723 45.1965 9.10594 45.8641 9.10594H47.9389C48.2188 9.10594 48.3812 8.99119 48.4289 8.74162L48.5326 8.21126H45.9046C44.4165 8.21126 43.5235 8.22092 43.2965 9.29442C43.128 10.09 43.7492 10.476 45.0085 11.262C46.3871 12.1206 46.7025 12.1858 46.5759 12.6396C46.4747 13.0042 46.1126 13.0187 45.4912 13.0187H43.0372C42.757 13.0187 42.5954 13.1338 42.5459 13.384L42.4484 13.8903H45.5452C46.9621 13.8903 47.8499 13.8024 48.1725 12.9321ZM76.9711 8.2285C76.6914 8.2285 76.5338 8.32423 76.4921 8.53604L76.3812 9.10742H78.6014L77.6759 13.8903H78.6716C78.9515 13.8903 79.1145 13.7751 79.1698 13.4875L80.0187 9.10742H81.8714C82.1343 9.10742 82.2263 8.99119 82.2718 8.76049L82.3737 8.2285H76.9711ZM28.5975 9.80262C28.4578 9.80262 28.3524 9.8982 28.3339 9.99452L27.5787 13.8903H30.9189C32.7894 13.8903 34.086 13.1926 34.4907 11.0231C34.7925 9.40843 34.0954 8.2285 32.1897 8.2285H28.1503C28.1503 8.2285 28.1416 8.26849 28.1336 8.30193C28.0425 8.68275 28.0904 9.10311 28.729 9.10311H31.6652C33.0777 9.10311 33.2797 9.81244 32.9973 11.0616C32.7201 12.2881 32.2368 12.9195 31.1764 13.0161H29.1652L29.7863 9.80262H28.5975ZM76.18 13.3604C76.2279 13.1124 76.1412 13.0161 75.9148 13.0161H72.8898L73.7802 8.42025C73.7979 8.32423 73.7288 8.2285 73.6074 8.2285H72.4006L71.3046 13.8903H76.0768L76.18 13.3604ZM67.1728 16.0788H65.8955L63.4227 18.2852L61.8048 16.0788H60.5285C60.319 16.0788 60.2037 16.2122 60.1603 16.4429L59.1345 21.7391H60.2186C60.4462 21.7391 60.573 21.6245 60.6138 21.4132L61.382 17.4494L62.6281 19.2341C62.6648 19.3102 62.769 19.4067 62.9256 19.4067H63.4864C63.6437 19.4067 63.7839 19.3102 63.8513 19.2341L65.7877 17.4494L65.0195 21.4132C64.9788 21.6245 65.0613 21.7391 65.2896 21.7391H66.3727L67.3998 16.4429C67.4431 16.2122 67.3828 16.0788 67.1728 16.0788ZM53.6634 16.4429L52.6384 21.7391H57.848L57.9576 21.173C58.0031 20.9419 57.9469 20.8652 57.6845 20.8652H54.2238L54.5177 19.3461H57.577C57.6647 19.3461 57.7277 19.289 57.7433 19.2114L57.86 18.6088C57.8742 18.5328 57.8329 18.4743 57.7461 18.4743H54.6859L54.9801 16.9575H58.3196C58.477 16.9575 58.6335 16.9575 58.6759 16.7463L58.8038 16.0788H54.1011C53.8565 16.0788 53.7115 16.1925 53.6634 16.4429ZM69.1325 16.4429L68.1071 21.7391H73.3182L73.4266 21.173C73.4717 20.9419 73.4163 20.8652 73.1546 20.8652H69.693L69.9873 19.3461H73.0463C73.1341 19.3461 73.1978 19.289 73.2117 19.2114L73.3292 18.6088C73.3441 18.5328 73.3012 18.4743 73.2154 18.4743H70.1556L70.4489 16.9575H73.7887C73.9467 16.9575 74.103 16.9575 74.1436 16.7463L74.2729 16.0788H69.5706C69.3253 16.0788 69.1819 16.1925 69.1325 16.4429ZM37.8863 16.2696L37.386 18.8469C36.5124 19.1164 34.2487 19.6093 34.6022 17.7865L34.9332 16.0788H33.7433C33.6032 16.0788 33.4973 16.1731 33.4786 16.2696L33.1784 17.8246C32.6059 20.7802 35.3939 20.3764 37.1982 19.8208L36.8266 21.7391H37.8222C38.1026 21.7391 38.2645 21.6245 38.3211 21.3371L39.3377 16.0788H38.1322C38.0101 16.0788 37.904 16.1731 37.8863 16.2696ZM52.7692 16.6097L52.8731 16.079H47.471C47.1912 16.079 47.0327 16.1742 46.9916 16.3853L46.8804 16.956H49.1003L48.1753 21.7391H49.1714C49.4506 21.7391 49.6122 21.6245 49.6699 21.3371L50.5173 16.956H52.3706C52.6327 16.956 52.725 16.8408 52.7692 16.6097ZM37.2327 10.6083C37.4444 9.50534 38.085 9.10594 39.2279 9.10594C40.4356 9.10594 40.7524 9.56093 40.5559 10.6083C40.5559 10.6083 40.5063 10.8699 40.4894 10.9488C40.4658 11.0659 40.4122 11.3704 40.0991 11.3704H37.0857L37.2327 10.6083ZM35.5313 13.8903H36.5974L36.9079 12.2441H40.2296L39.9196 13.8903H40.9861C41.1264 13.8903 41.2596 13.8323 41.2963 13.6404L41.851 10.7816C42.2577 8.61274 41.0381 8.1521 39.3941 8.1521C37.4244 8.1521 36.3001 8.64857 35.8708 10.7816L35.3171 13.6404C35.2802 13.8323 35.3909 13.8903 35.5313 13.8903ZM57.9518 10.6083C58.1642 9.50534 58.8038 9.10594 59.9467 9.10594C61.1549 9.10594 61.4709 9.56093 61.2751 10.6083C61.2751 10.6083 61.2259 10.8699 61.2082 10.9488C61.1845 11.0659 61.131 11.3704 60.8184 11.3704H57.8042L57.9518 10.6083ZM56.2504 13.8903H57.3167L57.6278 12.2441H60.9487L60.6383 13.8903H61.7053C61.8453 13.8903 61.979 13.8323 62.0158 13.6404L62.5693 10.7816C62.9777 8.61274 61.7576 8.1521 60.1134 8.1521C58.1432 8.1521 57.0189 8.64857 56.5893 10.7816L56.0359 13.6404C55.9996 13.8323 56.1094 13.8903 56.2504 13.8903Z" fill="#005386"/>
</svg>
